<?xml version="1.0" encoding="UTF-8"?>
<svg width="14px" height="14px" viewBox="0 0 14 14" version="1.1" xmlns="http://www.w3.org/2000/svg" xmlns:xlink="http://www.w3.org/1999/xlink">
    <g id="Symbols" stroke="none" stroke-width="1" fill="none" fill-rule="evenodd">
        <g id="ic-/-map-/-re-centre-/-active" transform="translate(-5.000000, -5.000000)">
            <g id="ic-/-gps" transform="translate(5.000000, 5.000000)">
                <polygon id="Shape" points="0 0 14 0 14 14 0 14"></polygon>
                <path d="M7,4.66666667 C5.71083333,4.66666667 4.66666667,5.71083333 4.66666667,7 C4.66666667,8.28916667 5.71083333,9.33333333 7,9.33333333 C8.28916667,9.33333333 9.33333333,8.28916667 9.33333333,7 C9.33333333,5.71083333 8.28916667,4.66666667 7,4.66666667 Z M12.215,6.41666667 C11.9466667,3.98416667 10.0158333,2.05333333 7.58333333,1.785 L7.58333333,0.583333333 L6.41666667,0.583333333 L6.41666667,1.785 C3.98416667,2.05333333 2.05333333,3.98416667 1.785,6.41666667 L0.583333333,6.41666667 L0.583333333,7.58333333 L1.785,7.58333333 C2.05333333,10.0158333 3.98416667,11.9466667 6.41666667,12.215 L6.41666667,13.4166667 L7.58333333,13.4166667 L7.58333333,12.215 C10.0158333,11.9466667 11.9466667,10.0158333 12.215,7.58333333 L13.4166667,7.58333333 L13.4166667,6.41666667 L12.215,6.41666667 Z M7,11.0833333 C4.7425,11.0833333 2.91666667,9.2575 2.91666667,7 C2.91666667,4.7425 4.7425,2.91666667 7,2.91666667 C9.2575,2.91666667 11.0833333,4.7425 11.0833333,7 C11.0833333,9.2575 9.2575,11.0833333 7,11.0833333 Z" id="Shape" fill="#3CEDF7" fill-rule="nonzero"></path>
            </g>
        </g>
    </g>
</svg>