<?xml version="1.0" encoding="UTF-8" standalone="no"?>
<!DOCTYPE svg PUBLIC "-//W3C//DTD SVG 1.1//EN" "http://www.w3.org/Graphics/SVG/1.1/DTD/svg11.dtd">
<svg version="1.1" xmlns="http://www.w3.org/2000/svg" xmlns:xlink="http://www.w3.org/1999/xlink" preserveAspectRatio="xMidYMid meet" viewBox="0 0 640 640" width="640" height="640"><defs><path d="M437.21 6.01L442.46 6.02L447.95 6.03L453.67 6.04L459.62 6.06L465.83 6.08L472.28 6.1L478.98 6.12L487.07 6.14L494.77 6.17L502.07 6.19L509 6.21L515.56 6.23L521.77 6.26L527.63 6.28L533.16 6.31L538.36 6.33L543.25 6.36L547.84 6.39L552.13 6.43L556.14 6.46L559.88 6.5L563.36 6.55L566.58 6.59L569.57 6.65L572.32 6.7L574.85 6.77L577.18 6.83L579.3 6.91L581.24 6.99L583 7.07L584.59 7.17L586.03 7.27L587.31 7.37L588.46 7.49L589.49 7.61L590.4 7.75L591.2 7.89L591.91 8.04L592.54 8.2L593.09 8.37L593.58 8.55L594.01 8.75L594.41 8.95L594.77 9.16L595.11 9.39L595.44 9.63L595.76 9.88L595.95 10.02L596.14 10.16L596.33 10.32L596.53 10.47L596.73 10.63L596.93 10.8L597.14 10.98L597.35 11.15L597.56 11.34L597.77 11.52L597.99 11.71L598.2 11.91L598.42 12.11L598.63 12.31L598.85 12.51L599.07 12.72L599.29 12.93L599.5 13.14L599.72 13.35L599.93 13.56L600.15 13.78L600.36 13.99L600.57 14.21L600.78 14.43L600.99 14.65L601.19 14.86L601.39 15.08L601.59 15.3L601.78 15.51L601.98 15.73L602.16 15.94L602.34 16.15L602.52 16.36L602.69 16.56L602.86 16.77L603.03 16.97L603.18 17.16L603.33 17.36L603.48 17.55L603.62 17.73L603.87 18.06L604.11 18.4L604.33 18.78L604.55 19.21L604.75 19.74L604.94 20.39L605.12 21.18L605.29 22.14L605.46 23.3L605.61 24.68L605.75 26.3L605.88 28.21L606.01 30.42L606.13 32.95L606.23 35.85L606.34 39.12L606.43 42.81L606.52 46.93L606.6 51.51L606.68 56.58L606.75 62.17L606.82 68.29L606.88 74.99L606.93 82.28L606.99 90.19L607.03 98.75L607.08 107.99L607.12 117.93L607.16 128.59L607.2 140.01L607.24 152.21L607.27 165.21L607.3 179.05L607.34 193.75L607.37 209.34L607.4 225.84L607.43 243.28L607.47 261.69L607.5 281.09L607.54 301.51L607.87 580.7L615.07 582.67L616.76 583.17L618.37 583.78L619.9 584.47L621.35 585.26L622.73 586.13L624.02 587.07L625.23 588.09L626.36 589.18L627.41 590.34L628.38 591.55L629.27 592.82L630.08 594.14L630.8 595.5L631.44 596.9L632 598.34L632.48 599.8L632.87 601.3L633.18 602.81L633.4 604.34L633.54 605.88L633.6 607.42L633.57 608.97L633.46 610.51L633.26 612.04L632.97 613.56L632.6 615.06L632.14 616.54L631.59 617.99L630.96 619.4L630.24 620.78L629.43 622.12L628.54 623.41L627.56 624.64L626.48 625.82L625.32 626.94L624.07 627.98L622.73 628.96L621.3 629.86L619.78 630.68L618.17 631.41L616.52 631.66L612.84 631.9L607.22 632.13L599.78 632.34L590.61 632.54L579.84 632.73L567.56 632.9L553.89 633.06L538.93 633.21L522.78 633.34L505.57 633.47L487.38 633.58L468.34 633.67L448.54 633.76L428.1 633.83L407.13 633.89L385.72 633.93L363.99 633.96L342.05 633.98L320 633.99L297.95 633.98L276.01 633.96L254.28 633.93L232.87 633.89L211.9 633.83L191.46 633.76L171.66 633.67L152.62 633.58L134.43 633.47L117.22 633.34L101.07 633.21L86.11 633.06L72.44 632.9L60.16 632.73L49.39 632.54L40.22 632.34L32.78 632.13L27.16 631.9L23.48 631.66L21.83 631.41L20.22 630.68L18.7 629.86L17.27 628.96L15.93 627.98L14.68 626.94L13.52 625.82L12.45 624.64L11.46 623.41L10.57 622.12L9.76 620.78L9.04 619.4L8.41 617.99L7.86 616.54L7.4 615.06L7.03 613.56L6.75 612.04L6.55 610.51L6.43 608.97L6.4 607.42L6.46 605.88L6.6 604.34L6.82 602.81L7.13 601.3L7.53 599.8L8 598.34L8.56 596.9L9.2 595.5L9.93 594.14L10.73 592.82L11.62 591.55L12.59 590.34L13.64 589.18L14.78 588.09L15.99 587.07L17.28 586.13L18.65 585.26L20.11 584.47L21.64 583.78L23.25 583.17L24.94 582.67L32.13 580.7L32.46 353.85L32.5 337.29L32.53 321.56L32.56 306.63L32.6 292.48L32.63 279.09L32.66 266.45L32.69 254.51L32.73 243.28L32.76 232.72L32.8 222.81L32.83 213.53L32.87 204.87L32.92 196.79L32.96 189.27L33.01 182.31L33.06 175.86L33.12 169.92L33.18 164.46L33.25 159.46L33.32 154.9L33.39 150.75L33.47 147L33.56 143.62L33.66 140.59L33.76 137.89L33.87 135.51L33.99 133.4L34.11 131.57L34.25 129.97L34.39 128.6L34.54 127.44L34.7 126.45L34.87 125.62L35.06 124.92L35.25 124.34L35.45 123.85L35.67 123.44L35.89 123.08L36.13 122.74L36.38 122.41L36.52 122.23L36.67 122.04L36.82 121.84L36.97 121.64L37.14 121.44L37.31 121.24L37.48 121.03L37.66 120.83L37.84 120.61L38.02 120.4L38.22 120.19L38.41 119.97L38.61 119.76L38.81 119.54L39.01 119.32L39.22 119.1L39.43 118.89L39.64 118.67L39.85 118.45L40.07 118.24L40.28 118.03L40.5 117.81L40.71 117.6L40.93 117.39L41.15 117.19L41.37 116.98L41.58 116.78L41.8 116.58L42.01 116.39L42.23 116.2L42.44 116.01L42.65 115.83L42.86 115.65L43.07 115.48L43.27 115.31L43.47 115.15L43.67 114.99L43.86 114.84L44.05 114.7L44.24 114.56L44.56 114.31L44.89 114.07L45.23 113.84L45.59 113.63L45.98 113.43L46.41 113.23L46.9 113.05L47.45 112.88L48.07 112.72L48.78 112.57L49.59 112.43L50.5 112.3L51.53 112.18L52.69 112.07L53.99 111.96L55.44 111.87L57.05 111.78L58.83 111.69L60.79 111.62L62.94 111.55L65.3 111.49L67.87 111.44L70.67 111.39L73.7 111.34L76.98 111.3L80.51 111.27L84.32 111.24L88.4 111.22L92.77 111.19L97.44 111.18L102.42 111.16L107.72 111.15L113.35 111.14L119.33 111.13L125.66 111.13L132.35 111.13L139.42 111.12L146.87 111.12L154.73 111.12L162.98 111.12L171.24 111.12L179.09 111.12L186.54 111.12L193.61 111.13L200.31 111.13L206.64 111.13L212.61 111.14L218.25 111.15L223.55 111.16L228.53 111.18L233.2 111.19L237.57 111.22L241.65 111.24L245.45 111.27L248.99 111.3L252.26 111.34L255.3 111.39L258.09 111.44L260.66 111.49L263.02 111.55L265.18 111.62L267.14 111.69L268.92 111.78L270.52 111.87L271.97 111.96L273.27 112.07L274.43 112.18L275.46 112.3L276.38 112.43L277.18 112.57L277.89 112.72L278.52 112.88L279.07 113.05L279.55 113.23L279.99 113.43L280.38 113.63L280.74 113.84L281.07 114.07L281.4 114.31L281.73 114.56L281.91 114.7L282.1 114.84L282.3 115L282.5 115.15L282.7 115.32L282.9 115.48L283.11 115.66L283.32 115.83L283.53 116.02L283.74 116.2L283.95 116.39L284.17 116.59L284.38 116.79L284.6 116.99L284.82 117.19L285.04 117.4L285.25 117.61L285.47 117.82L285.69 118.03L285.9 118.24L286.12 118.46L286.33 118.68L286.54 118.89L286.75 119.11L286.95 119.33L287.16 119.54L287.36 119.76L287.56 119.98L287.75 120.19L287.94 120.41L288.13 120.62L288.31 120.83L288.49 121.04L288.66 121.24L288.83 121.45L288.99 121.65L289.15 121.84L289.3 122.04L289.44 122.23L289.58 122.41L289.83 122.74L290.07 123.07L290.3 123.41L290.51 123.78L290.71 124.18L290.91 124.63L291.09 125.14L291.26 125.72L291.42 126.38L291.57 127.14L291.71 127.99L291.85 128.97L291.97 130.07L292.09 131.31L292.2 132.69L292.3 134.24L292.4 135.97L292.49 137.87L292.57 139.98L292.64 142.28L292.71 144.81L292.78 147.57L292.84 150.57L292.9 153.82L292.95 157.33L293 161.13L293.04 165.2L293.09 169.58L293.13 174.26L293.17 179.27L293.2 184.61L293.24 190.29L293.27 196.33L293.3 202.73L293.33 209.52L293.37 216.69L293.4 224.26L293.43 232.24L293.47 240.65L293.5 249.5L293.83 372.01L346.18 372.01L346.18 199.61L346.18 190.86L346.18 182.34L346.18 174.05L346.19 166L346.2 158.17L346.21 150.58L346.22 143.21L346.24 136.08L346.25 129.17L346.27 122.48L346.29 116.02L346.32 109.79L346.34 103.78L346.37 97.99L346.4 92.42L346.43 87.07L346.47 81.94L346.5 77.03L346.54 72.34L346.58 67.86L346.63 63.61L346.67 59.56L346.72 55.73L346.77 52.11L346.83 48.71L346.89 45.52L346.95 42.53L347.01 39.76L347.07 37.19L347.14 34.84L347.21 32.69L347.28 30.74L347.36 29L347.44 27.46L347.52 26.13L347.61 25L347.69 24.07L347.78 23.34L347.88 22.81L347.97 22.48L348.15 22.02L348.34 21.57L348.54 21.12L348.75 20.67L348.97 20.23L349.2 19.79L349.45 19.35L349.7 18.91L349.96 18.47L350.23 18.04L350.51 17.61L350.8 17.19L351.1 16.77L351.41 16.36L351.73 15.95L352.05 15.54L352.38 15.14L352.73 14.75L353.07 14.36L353.43 13.97L353.79 13.6L354.16 13.23L354.53 12.86L354.92 12.5L355.3 12.15L355.7 11.81L356.1 11.48L356.5 11.15L356.91 10.83L357.33 10.52L357.75 10.22L358.17 9.92L358.6 9.64L359.04 9.36L359.47 9.1L359.91 8.84L360.36 8.6L360.81 8.36L361.26 8.14L361.71 7.92L362.04 7.79L362.44 7.66L362.92 7.54L363.49 7.43L364.14 7.32L364.88 7.21L365.72 7.11L366.67 7.01L367.72 6.92L368.88 6.84L370.15 6.76L371.55 6.68L373.07 6.61L374.73 6.54L376.52 6.48L378.45 6.42L380.52 6.36L382.74 6.31L385.12 6.27L387.65 6.23L390.35 6.19L393.22 6.15L396.26 6.12L399.48 6.1L402.87 6.07L406.46 6.06L410.24 6.04L414.22 6.03L418.39 6.02L422.78 6.01L427.37 6.01L432.18 6.01L437.21 6.01ZM258.68 546.2L258.48 546.38L258.29 546.57L258.11 546.76L257.92 546.96L257.75 547.16L257.58 547.36L257.41 547.57L257.24 547.78L257.09 547.99L256.93 548.2L256.78 548.42L256.64 548.63L256.5 548.86L256.36 549.08L256.23 549.3L256.1 549.53L255.98 549.76L255.87 549.99L255.76 550.22L255.65 550.45L255.55 550.68L255.45 550.92L255.36 551.15L255.27 551.39L255.19 551.63L255.11 551.87L255.04 552.1L254.97 552.34L254.91 552.58L254.86 552.82L254.81 553.06L254.76 553.3L254.72 553.54L254.68 553.78L254.65 554.01L254.63 554.25L254.61 554.49L254.6 554.72L254.59 554.96L254.59 555.19L254.59 555.43L254.6 555.66L254.61 555.9L254.63 556.14L254.65 556.37L254.68 556.61L254.72 556.85L254.76 557.09L254.81 557.33L254.86 557.57L254.91 557.81L254.97 558.05L255.04 558.28L255.11 558.52L255.19 558.76L255.27 559L255.36 559.24L255.45 559.47L255.55 559.71L255.65 559.94L255.76 560.17L255.87 560.4L255.98 560.63L256.1 560.86L256.23 561.09L256.36 561.31L256.5 561.53L256.64 561.76L256.78 561.97L256.93 562.19L257.09 562.4L257.24 562.61L257.41 562.82L257.58 563.03L257.75 563.23L257.92 563.43L258.11 563.62L258.29 563.82L258.48 564.01L258.68 564.19L262.6 568.28L377.41 568.28L381.34 564.19L381.53 564.01L381.72 563.82L381.91 563.62L382.09 563.43L382.26 563.23L382.44 563.02L382.6 562.82L382.77 562.61L382.93 562.4L383.08 562.19L383.23 561.97L383.38 561.75L383.52 561.53L383.65 561.31L383.78 561.08L383.91 560.86L384.03 560.63L384.15 560.4L384.26 560.17L384.36 559.94L384.47 559.7L384.56 559.47L384.65 559.23L384.74 559L384.82 558.76L384.9 558.52L384.97 558.28L385.04 558.04L385.1 557.81L385.16 557.57L385.21 557.33L385.25 557.09L385.29 556.85L385.33 556.61L385.36 556.37L385.38 556.14L385.4 555.9L385.42 555.66L385.42 555.43L385.43 555.19L385.42 555.04L385.42 554.88L385.4 554.71L385.39 554.54L385.36 554.37L385.34 554.2L385.3 554.02L385.26 553.84L385.22 553.65L385.17 553.46L385.12 553.27L385.06 553.08L385 552.88L384.93 552.68L384.85 552.47L384.77 552.26L384.69 552.05L384.6 551.83L384.5 551.61L384.4 551.39L384.3 551.16L384.19 550.93L384.08 550.7L383.95 550.46L383.83 550.22L383.7 549.98L383.56 549.73L383.42 549.48L383.28 549.22L383.13 548.97L382.97 548.7L382.81 548.44L382.64 548.17L382.47 547.9L382.3 547.62L382.11 547.35L381.93 547.06L381.74 546.78L381.54 546.49L381.34 546.2L377.41 542.11L262.6 542.11L258.68 546.2ZM528.84 489.78L528.59 489.8L528.33 489.82L528.07 489.85L527.82 489.88L527.56 489.92L527.3 489.97L527.04 490.02L526.78 490.08L526.52 490.15L526.27 490.22L526.01 490.3L525.75 490.38L525.49 490.47L525.24 490.57L524.98 490.67L524.73 490.77L524.48 490.89L524.23 491.01L523.98 491.13L523.73 491.26L523.49 491.39L523.24 491.54L523 491.68L522.77 491.83L522.53 491.99L522.3 492.15L522.07 492.32L521.84 492.5L521.62 492.67L521.4 492.86L521.18 493.05L520.97 493.24L520.76 493.44L520.55 493.65L520.35 493.86L520.03 494.17L519.72 494.47L519.44 494.76L519.16 495.05L518.91 495.34L518.67 495.63L518.44 495.93L518.23 496.25L518.03 496.58L517.85 496.93L517.68 497.3L517.52 497.71L517.38 498.15L517.24 498.62L517.12 499.14L517.01 499.7L516.91 500.31L516.82 500.97L516.73 501.69L516.66 502.47L516.59 503.32L516.53 504.23L516.48 505.22L516.44 506.29L516.4 507.43L516.37 508.67L516.34 509.99L516.32 511.4L516.3 512.92L516.29 514.53L516.28 516.25L516.27 518.08L516.27 520.03L516.26 522.09L516.26 524.27L516.26 526.58L516.26 529.02L516.26 531.46L516.26 533.78L516.26 535.96L516.27 538.02L516.27 539.97L516.28 541.8L516.29 543.52L516.3 545.13L516.32 546.65L516.34 548.06L516.37 549.39L516.4 550.62L516.44 551.77L516.48 552.83L516.53 553.82L516.59 554.74L516.66 555.58L516.73 556.36L516.82 557.08L516.91 557.75L517.01 558.36L517.12 558.92L517.24 559.43L517.38 559.91L517.52 560.34L517.68 560.75L517.85 561.12L518.03 561.48L518.23 561.81L518.44 562.12L518.67 562.42L518.91 562.71L519.16 563L519.44 563.29L519.72 563.58L520.03 563.88L520.35 564.19L520.55 564.4L520.76 564.61L520.97 564.81L521.18 565L521.4 565.19L521.62 565.37L521.84 565.55L522.07 565.73L522.3 565.89L522.53 566.06L522.77 566.21L523.01 566.37L523.25 566.51L523.49 566.65L523.73 566.79L523.98 566.92L524.23 567.04L524.48 567.16L524.73 567.27L524.99 567.38L525.24 567.48L525.5 567.58L525.75 567.67L526.01 567.75L526.27 567.83L526.53 567.9L526.78 567.97L527.04 568.03L527.3 568.08L527.56 568.13L527.82 568.17L528.08 568.2L528.33 568.23L528.59 568.25L528.84 568.27L529.1 568.28L529.35 568.28L529.6 568.28L529.86 568.27L530.11 568.25L530.37 568.23L530.63 568.2L530.88 568.17L531.14 568.13L531.4 568.08L531.66 568.03L531.92 567.97L532.18 567.9L532.43 567.83L532.69 567.75L532.95 567.67L533.21 567.58L533.46 567.48L533.72 567.38L533.97 567.27L534.22 567.16L534.47 567.04L534.72 566.92L534.97 566.79L535.21 566.65L535.46 566.51L535.7 566.37L535.94 566.21L536.17 566.06L536.4 565.89L536.63 565.73L536.86 565.55L537.08 565.37L537.3 565.19L537.52 565L537.73 564.81L537.94 564.61L538.15 564.4L538.35 564.19L538.67 563.88L538.98 563.58L539.27 563.29L539.54 563L539.79 562.71L540.03 562.42L540.26 562.12L540.47 561.8L540.67 561.47L540.85 561.12L541.02 560.74L541.18 560.34L541.32 559.9L541.46 559.43L541.58 558.91L541.69 558.35L541.79 557.74L541.88 557.08L541.97 556.36L542.04 555.58L542.11 554.73L542.17 553.82L542.22 552.83L542.26 551.76L542.3 550.62L542.33 549.38L542.36 548.06L542.38 546.64L542.4 545.13L542.41 543.52L542.42 541.8L542.43 539.96L542.43 538.02L542.44 535.96L542.44 533.77L542.44 531.46L542.44 529.02L542.44 526.58L542.44 524.27L542.44 522.09L542.43 520.03L542.43 518.08L542.42 516.25L542.41 514.53L542.4 512.92L542.38 511.4L542.36 509.99L542.33 508.66L542.3 507.43L542.26 506.28L542.22 505.22L542.17 504.23L542.11 503.31L542.04 502.47L541.97 501.69L541.88 500.97L541.79 500.3L541.69 499.69L541.58 499.13L541.46 498.62L541.32 498.14L541.18 497.71L541.02 497.3L540.85 496.92L540.67 496.57L540.47 496.24L540.26 495.93L540.03 495.63L539.79 495.33L539.54 495.05L539.27 494.76L538.98 494.47L538.67 494.17L538.35 493.86L538.15 493.65L537.94 493.44L537.73 493.24L537.52 493.05L537.3 492.86L537.08 492.68L536.86 492.5L536.63 492.32L536.4 492.16L536.17 491.99L535.94 491.84L535.7 491.68L535.46 491.54L535.21 491.4L534.97 491.26L534.72 491.13L534.47 491.01L534.22 490.89L533.97 490.78L533.72 490.67L533.46 490.57L533.21 490.47L532.95 490.38L532.69 490.3L532.43 490.22L532.18 490.15L531.92 490.08L531.66 490.02L531.4 489.97L531.14 489.92L530.88 489.88L530.63 489.85L530.37 489.82L530.11 489.8L529.86 489.78L529.6 489.77L529.35 489.77L529.1 489.77L528.84 489.78ZM476.51 489.78L476.26 489.8L476 489.82L475.74 489.85L475.48 489.88L475.23 489.92L474.97 489.97L474.71 490.02L474.45 490.08L474.19 490.15L473.93 490.22L473.68 490.3L473.42 490.38L473.16 490.47L472.91 490.57L472.65 490.67L472.4 490.77L472.15 490.89L471.89 491.01L471.65 491.13L471.4 491.26L471.15 491.39L470.91 491.54L470.67 491.68L470.43 491.83L470.2 491.99L469.96 492.15L469.73 492.32L469.51 492.5L469.28 492.67L469.06 492.86L468.85 493.05L468.63 493.24L468.43 493.44L468.22 493.65L468.02 493.86L467.7 494.17L467.39 494.47L467.1 494.76L466.83 495.05L466.58 495.34L466.33 495.63L466.11 495.93L465.9 496.25L465.7 496.58L465.52 496.93L465.35 497.3L465.19 497.71L465.05 498.15L464.91 498.62L464.79 499.14L464.68 499.7L464.58 500.31L464.48 500.97L464.4 501.69L464.33 502.47L464.26 503.32L464.2 504.23L464.15 505.22L464.11 506.29L464.07 507.43L464.04 508.67L464.01 509.99L463.99 511.4L463.97 512.92L463.96 514.53L463.95 516.25L463.94 518.08L463.93 520.03L463.93 522.09L463.93 524.27L463.93 526.58L463.93 529.02L463.93 531.46L463.93 533.78L463.93 535.96L463.93 538.02L463.94 539.97L463.95 541.8L463.96 543.52L463.97 545.13L463.99 546.65L464.01 548.06L464.04 549.39L464.07 550.62L464.11 551.77L464.15 552.83L464.2 553.82L464.26 554.74L464.33 555.58L464.4 556.36L464.48 557.08L464.58 557.75L464.68 558.36L464.79 558.92L464.91 559.43L465.05 559.91L465.19 560.34L465.35 560.75L465.52 561.12L465.7 561.48L465.9 561.81L466.11 562.12L466.33 562.42L466.58 562.71L466.83 563L467.1 563.29L467.39 563.58L467.7 563.88L468.02 564.19L468.22 564.4L468.43 564.61L468.64 564.81L468.85 565L469.07 565.19L469.29 565.37L469.51 565.55L469.74 565.73L469.97 565.89L470.2 566.06L470.44 566.21L470.67 566.37L470.91 566.51L471.16 566.65L471.4 566.79L471.65 566.92L471.9 567.04L472.15 567.16L472.4 567.27L472.65 567.38L472.91 567.48L473.16 567.58L473.42 567.67L473.68 567.75L473.93 567.83L474.19 567.9L474.45 567.97L474.71 568.03L474.97 568.08L475.23 568.13L475.48 568.17L475.74 568.2L476 568.23L476.26 568.25L476.51 568.27L476.76 568.28L477.02 568.28L477.27 568.28L477.52 568.27L477.78 568.25L478.04 568.23L478.29 568.2L478.55 568.17L478.81 568.13L479.07 568.08L479.33 568.03L479.59 567.97L479.84 567.9L480.1 567.83L480.36 567.75L480.62 567.67L480.87 567.58L481.13 567.48L481.38 567.38L481.64 567.27L481.89 567.16L482.14 567.04L482.39 566.92L482.64 566.79L482.88 566.65L483.12 566.51L483.36 566.37L483.6 566.21L483.84 566.06L484.07 565.89L484.3 565.73L484.53 565.55L484.75 565.37L484.97 565.19L485.19 565L485.4 564.81L485.61 564.61L485.82 564.4L486.02 564.19L486.34 563.88L486.64 563.58L486.93 563.29L487.2 563L487.46 562.71L487.7 562.42L487.93 562.12L488.14 561.8L488.33 561.47L488.52 561.12L488.69 560.74L488.84 560.34L488.99 559.9L489.12 559.43L489.25 558.91L489.36 558.35L489.46 557.74L489.55 557.08L489.63 556.36L489.71 555.58L489.77 554.73L489.83 553.82L489.88 552.83L489.93 551.76L489.97 550.62L490 549.38L490.02 548.06L490.05 546.64L490.06 545.13L490.08 543.52L490.09 541.8L490.1 539.96L490.1 538.02L490.1 535.96L490.1 533.77L490.11 531.46L490.11 529.02L490.11 526.58L490.1 524.27L490.1 522.09L490.1 520.03L490.1 518.08L490.09 516.25L490.08 514.53L490.06 512.92L490.05 511.4L490.02 509.99L490 508.66L489.97 507.43L489.93 506.28L489.88 505.22L489.83 504.23L489.77 503.31L489.71 502.47L489.63 501.69L489.55 500.97L489.46 500.3L489.36 499.69L489.25 499.13L489.12 498.62L488.99 498.14L488.84 497.71L488.69 497.3L488.52 496.92L488.33 496.57L488.14 496.24L487.93 495.93L487.7 495.63L487.46 495.33L487.2 495.05L486.93 494.76L486.64 494.47L486.34 494.17L486.02 493.86L485.81 493.65L485.61 493.44L485.4 493.24L485.19 493.05L484.97 492.86L484.75 492.68L484.53 492.5L484.3 492.32L484.07 492.16L483.84 491.99L483.6 491.84L483.36 491.68L483.12 491.54L482.88 491.4L482.63 491.26L482.39 491.13L482.14 491.01L481.89 490.89L481.64 490.78L481.38 490.67L481.13 490.57L480.87 490.47L480.62 490.38L480.36 490.3L480.1 490.22L479.84 490.15L479.58 490.08L479.33 490.02L479.07 489.97L478.81 489.92L478.55 489.88L478.29 489.85L478.04 489.82L477.78 489.8L477.52 489.78L477.27 489.77L477.02 489.77L476.76 489.77L476.51 489.78ZM132.06 542.11L129.88 542.11L127.81 542.11L125.87 542.12L124.04 542.12L122.32 542.13L120.7 542.15L119.19 542.16L117.77 542.19L116.45 542.21L115.22 542.25L114.07 542.28L113 542.33L112.02 542.38L111.1 542.44L110.25 542.5L109.47 542.58L108.75 542.66L108.09 542.75L107.48 542.85L106.92 542.97L106.41 543.09L105.93 543.22L105.49 543.37L105.09 543.52L104.71 543.69L104.36 543.88L104.03 544.07L103.72 544.29L103.42 544.51L103.12 544.75L102.83 545.01L102.55 545.28L102.25 545.57L101.96 545.87L101.64 546.2L101.44 546.4L101.23 546.6L101.03 546.81L100.84 547.02L100.65 547.24L100.46 547.46L100.28 547.69L100.11 547.91L99.94 548.14L99.78 548.38L99.62 548.61L99.47 548.85L99.32 549.09L99.18 549.33L99.05 549.58L98.92 549.82L98.79 550.07L98.68 550.32L98.56 550.58L98.46 550.83L98.35 551.08L98.26 551.34L98.17 551.6L98.09 551.85L98.01 552.11L97.94 552.37L97.87 552.63L97.81 552.89L97.76 553.14L97.71 553.4L97.67 553.66L97.64 553.92L97.61 554.18L97.58 554.43L97.57 554.69L97.56 554.94L97.56 555.19L97.56 555.45L97.57 555.7L97.58 555.96L97.61 556.21L97.64 556.47L97.67 556.73L97.71 556.99L97.76 557.24L97.81 557.5L97.87 557.76L97.94 558.02L98.01 558.28L98.09 558.54L98.17 558.79L98.26 559.05L98.35 559.31L98.46 559.56L98.56 559.81L98.68 560.07L98.79 560.32L98.92 560.57L99.05 560.81L99.18 561.06L99.32 561.3L99.47 561.54L99.62 561.78L99.78 562.01L99.94 562.25L100.11 562.48L100.28 562.7L100.46 562.93L100.65 563.15L100.84 563.36L101.03 563.58L101.23 563.79L101.44 563.99L101.64 564.19L101.96 564.51L102.26 564.82L102.55 565.11L102.84 565.38L103.12 565.64L103.42 565.88L103.72 566.1L104.03 566.31L104.36 566.51L104.72 566.69L105.09 566.86L105.5 567.02L105.94 567.17L106.41 567.3L106.93 567.42L107.49 567.53L108.1 567.64L108.76 567.73L109.48 567.81L110.26 567.88L111.1 567.95L112.02 568.01L113.01 568.06L114.07 568.1L115.22 568.14L116.45 568.17L117.78 568.2L119.19 568.22L120.71 568.24L122.32 568.25L124.04 568.26L125.87 568.27L127.82 568.28L129.88 568.28L132.06 568.28L134.37 568.28L136.81 568.28L139.25 568.28L141.56 568.28L143.75 568.28L145.81 568.28L147.75 568.27L149.58 568.26L151.31 568.25L152.92 568.24L154.43 568.22L155.85 568.2L157.17 568.17L158.41 568.14L159.55 568.1L160.62 568.06L161.61 568.01L162.52 567.95L163.37 567.88L164.15 567.81L164.87 567.73L165.53 567.64L166.14 567.53L166.7 567.42L167.22 567.3L167.69 567.17L168.13 567.02L168.54 566.86L168.91 566.69L169.26 566.51L169.59 566.31L169.91 566.1L170.21 565.88L170.5 565.64L170.79 565.38L171.08 565.11L171.37 564.82L171.67 564.51L171.98 564.19L172.19 563.99L172.4 563.79L172.59 563.58L172.79 563.36L172.98 563.15L173.16 562.93L173.34 562.7L173.51 562.47L173.68 562.24L173.85 562.01L174 561.78L174.16 561.54L174.3 561.3L174.44 561.05L174.58 560.81L174.71 560.56L174.83 560.31L174.95 560.06L175.06 559.81L175.17 559.56L175.27 559.3L175.37 559.05L175.46 558.79L175.54 558.53L175.62 558.28L175.69 558.02L175.75 557.76L175.81 557.5L175.87 557.24L175.91 556.98L175.96 556.73L175.99 556.47L176.02 556.21L176.04 555.96L176.06 555.7L176.07 555.45L176.07 555.19L176.07 554.94L176.06 554.69L176.04 554.43L176.02 554.18L175.99 553.92L175.96 553.66L175.91 553.4L175.87 553.14L175.81 552.88L175.75 552.63L175.69 552.37L175.62 552.11L175.54 551.85L175.46 551.59L175.37 551.34L175.27 551.08L175.17 550.83L175.06 550.57L174.95 550.32L174.83 550.07L174.71 549.82L174.58 549.57L174.44 549.33L174.3 549.09L174.16 548.85L174 548.61L173.85 548.37L173.68 548.14L173.51 547.91L173.34 547.68L173.16 547.46L172.98 547.24L172.79 547.02L172.59 546.81L172.4 546.6L172.19 546.4L171.98 546.2L171.67 545.87L171.37 545.57L171.08 545.28L170.79 545.01L170.5 544.75L170.21 544.51L169.91 544.29L169.59 544.07L169.26 543.88L168.91 543.69L168.53 543.52L168.13 543.37L167.69 543.22L167.22 543.09L166.7 542.97L166.14 542.85L165.53 542.75L164.87 542.66L164.15 542.58L163.37 542.5L162.52 542.44L161.61 542.38L160.62 542.33L159.55 542.28L158.4 542.25L157.17 542.21L155.85 542.19L154.43 542.16L152.92 542.15L151.3 542.13L149.58 542.12L147.75 542.12L145.81 542.11L143.75 542.11L141.56 542.11L139.25 542.11L136.81 542.11L134.37 542.11L132.06 542.11ZM258.68 493.86L258.48 494.04L258.29 494.23L258.11 494.42L257.92 494.62L257.75 494.82L257.58 495.02L257.41 495.23L257.24 495.44L257.09 495.65L256.93 495.86L256.78 496.08L256.64 496.3L256.5 496.52L256.36 496.74L256.23 496.96L256.1 497.19L255.98 497.42L255.87 497.65L255.76 497.88L255.65 498.11L255.55 498.35L255.45 498.58L255.36 498.82L255.27 499.05L255.19 499.29L255.11 499.53L255.04 499.77L254.97 500.01L254.91 500.25L254.86 500.48L254.81 500.72L254.76 500.96L254.72 501.2L254.68 501.44L254.65 501.68L254.63 501.91L254.61 502.15L254.6 502.39L254.59 502.62L254.59 502.85L254.59 503.09L254.6 503.32L254.61 503.56L254.63 503.8L254.65 504.03L254.68 504.27L254.72 504.51L254.76 504.75L254.81 504.99L254.86 505.23L254.91 505.47L254.97 505.71L255.04 505.95L255.11 506.18L255.19 506.42L255.27 506.66L255.36 506.9L255.45 507.13L255.55 507.37L255.65 507.6L255.76 507.83L255.87 508.06L255.98 508.29L256.1 508.52L256.23 508.75L256.36 508.97L256.5 509.2L256.64 509.42L256.78 509.63L256.93 509.85L257.09 510.06L257.24 510.27L257.41 510.48L257.58 510.69L257.75 510.89L257.92 511.09L258.11 511.29L258.29 511.48L258.48 511.67L258.68 511.85L262.6 515.94L377.41 515.94L381.34 511.85L381.53 511.67L381.72 511.48L381.91 511.28L382.09 511.09L382.26 510.89L382.44 510.69L382.6 510.48L382.77 510.27L382.93 510.06L383.08 509.85L383.23 509.63L383.38 509.41L383.52 509.19L383.65 508.97L383.78 508.75L383.91 508.52L384.03 508.29L384.15 508.06L384.26 507.83L384.36 507.6L384.47 507.36L384.56 507.13L384.65 506.89L384.74 506.66L384.82 506.42L384.9 506.18L384.97 505.94L385.04 505.71L385.1 505.47L385.16 505.23L385.21 504.99L385.25 504.75L385.29 504.51L385.33 504.27L385.36 504.03L385.38 503.8L385.4 503.56L385.42 503.32L385.42 503.09L385.43 502.85L385.42 502.7L385.42 502.54L385.4 502.37L385.39 502.2L385.36 502.03L385.34 501.86L385.3 501.68L385.26 501.5L385.22 501.31L385.17 501.13L385.12 500.93L385.06 500.74L385 500.54L384.93 500.34L384.85 500.13L384.77 499.92L384.69 499.71L384.6 499.49L384.5 499.27L384.4 499.05L384.3 498.82L384.19 498.59L384.08 498.36L383.95 498.12L383.83 497.88L383.7 497.64L383.56 497.39L383.42 497.14L383.28 496.88L383.13 496.63L382.97 496.36L382.81 496.1L382.64 495.83L382.47 495.56L382.3 495.28L382.11 495.01L381.93 494.72L381.74 494.44L381.54 494.15L381.34 493.86L377.41 489.77L262.6 489.77L258.68 493.86ZM132.06 489.77L129.88 489.77L127.81 489.77L125.87 489.78L124.04 489.78L122.32 489.79L120.7 489.81L119.19 489.83L117.77 489.85L116.45 489.87L115.22 489.91L114.07 489.94L113 489.99L112.02 490.04L111.1 490.1L110.25 490.16L109.47 490.24L108.75 490.32L108.09 490.41L107.48 490.51L106.92 490.63L106.41 490.75L105.93 490.88L105.49 491.03L105.09 491.19L104.71 491.36L104.36 491.54L104.03 491.74L103.72 491.95L103.42 492.17L103.12 492.41L102.83 492.67L102.55 492.94L102.25 493.23L101.96 493.53L101.64 493.86L101.44 494.06L101.23 494.26L101.03 494.47L100.84 494.69L100.65 494.9L100.46 495.12L100.28 495.35L100.11 495.57L99.94 495.8L99.78 496.04L99.62 496.27L99.47 496.51L99.32 496.75L99.18 497L99.05 497.24L98.92 497.49L98.79 497.74L98.68 497.99L98.56 498.24L98.46 498.49L98.35 498.75L98.26 499L98.17 499.26L98.09 499.52L98.01 499.77L97.94 500.03L97.87 500.29L97.81 500.55L97.76 500.81L97.71 501.07L97.67 501.32L97.64 501.58L97.61 501.84L97.58 502.09L97.57 502.35L97.56 502.6L97.56 502.85L97.56 503.11L97.57 503.36L97.58 503.62L97.61 503.87L97.64 504.13L97.67 504.39L97.71 504.65L97.76 504.9L97.81 505.16L97.87 505.42L97.94 505.68L98.01 505.94L98.09 506.2L98.17 506.45L98.26 506.71L98.35 506.97L98.46 507.22L98.56 507.47L98.68 507.73L98.79 507.98L98.92 508.23L99.05 508.47L99.18 508.72L99.32 508.96L99.47 509.2L99.62 509.44L99.78 509.68L99.94 509.91L100.11 510.14L100.28 510.36L100.46 510.59L100.65 510.81L100.84 511.02L101.03 511.24L101.23 511.45L101.44 511.65L101.64 511.85L101.96 512.18L102.26 512.48L102.55 512.77L102.84 513.04L103.12 513.3L103.42 513.54L103.72 513.76L104.03 513.97L104.36 514.17L104.72 514.35L105.09 514.52L105.5 514.68L105.94 514.83L106.41 514.96L106.93 515.08L107.49 515.19L108.1 515.3L108.76 515.39L109.48 515.47L110.26 515.55L111.1 515.61L112.02 515.67L113.01 515.72L114.07 515.77L115.22 515.8L116.45 515.83L117.78 515.86L119.19 515.88L120.71 515.9L122.32 515.91L124.04 515.92L125.87 515.93L127.82 515.94L129.88 515.94L132.06 515.94L134.37 515.94L136.81 515.94L139.25 515.94L141.56 515.94L143.75 515.94L145.81 515.94L147.75 515.93L149.58 515.92L151.31 515.91L152.92 515.9L154.43 515.88L155.85 515.86L157.17 515.83L158.41 515.8L159.55 515.77L160.62 515.72L161.61 515.67L162.52 515.61L163.37 515.55L164.15 515.47L164.87 515.39L165.53 515.3L166.14 515.19L166.7 515.08L167.22 514.96L167.69 514.83L168.13 514.68L168.54 514.52L168.91 514.35L169.26 514.17L169.59 513.97L169.91 513.76L170.21 513.54L170.5 513.3L170.79 513.04L171.08 512.77L171.37 512.48L171.67 512.18L171.98 511.85L172.19 511.65L172.4 511.45L172.59 511.24L172.79 511.02L172.98 510.81L173.16 510.59L173.34 510.36L173.51 510.14L173.68 509.91L173.85 509.67L174 509.44L174.16 509.2L174.3 508.96L174.44 508.72L174.58 508.47L174.71 508.22L174.83 507.97L174.95 507.72L175.06 507.47L175.17 507.22L175.27 506.96L175.37 506.71L175.46 506.45L175.54 506.2L175.62 505.94L175.69 505.68L175.75 505.42L175.81 505.16L175.87 504.9L175.91 504.65L175.96 504.39L175.99 504.13L176.02 503.87L176.04 503.62L176.06 503.36L176.07 503.11L176.07 502.85L176.07 502.6L176.06 502.35L176.04 502.09L176.02 501.84L175.99 501.58L175.96 501.32L175.91 501.06L175.87 500.8L175.81 500.55L175.75 500.29L175.69 500.03L175.62 499.77L175.54 499.51L175.46 499.25L175.37 499L175.27 498.74L175.17 498.49L175.06 498.23L174.95 497.98L174.83 497.73L174.71 497.48L174.58 497.24L174.44 496.99L174.3 496.75L174.16 496.51L174 496.27L173.85 496.03L173.68 495.8L173.51 495.57L173.34 495.34L173.16 495.12L172.98 494.9L172.79 494.68L172.59 494.47L172.4 494.26L172.19 494.06L171.98 493.86L171.67 493.53L171.37 493.23L171.08 492.94L170.79 492.67L170.5 492.41L170.21 492.17L169.91 491.95L169.59 491.74L169.26 491.54L168.91 491.36L168.53 491.19L168.13 491.03L167.69 490.88L167.22 490.75L166.7 490.63L166.14 490.51L165.53 490.41L164.87 490.32L164.15 490.24L163.37 490.16L162.52 490.1L161.61 490.04L160.62 489.99L159.55 489.94L158.4 489.91L157.17 489.87L155.85 489.85L154.43 489.83L152.92 489.81L151.3 489.79L149.58 489.78L147.75 489.78L145.81 489.77L143.75 489.77L141.56 489.77L139.25 489.77L136.81 489.77L134.37 489.77L132.06 489.77ZM258.68 441.52L258.48 441.7L258.29 441.89L258.11 442.09L257.92 442.28L257.75 442.48L257.58 442.68L257.41 442.89L257.24 443.1L257.09 443.31L256.93 443.52L256.78 443.74L256.64 443.96L256.5 444.18L256.36 444.4L256.23 444.63L256.1 444.85L255.98 445.08L255.87 445.31L255.76 445.54L255.65 445.77L255.55 446.01L255.45 446.24L255.36 446.48L255.27 446.71L255.19 446.95L255.11 447.19L255.04 447.43L254.97 447.67L254.91 447.91L254.86 448.15L254.81 448.38L254.76 448.62L254.72 448.86L254.68 449.1L254.65 449.34L254.63 449.58L254.61 449.81L254.6 450.05L254.59 450.28L254.59 450.52L254.59 450.75L254.6 450.98L254.61 451.22L254.63 451.46L254.65 451.69L254.68 451.93L254.72 452.17L254.76 452.41L254.81 452.65L254.86 452.89L254.91 453.13L254.97 453.37L255.04 453.61L255.11 453.84L255.19 454.08L255.27 454.32L255.36 454.56L255.45 454.79L255.55 455.03L255.65 455.26L255.76 455.49L255.87 455.73L255.98 455.95L256.1 456.18L256.23 456.41L256.36 456.63L256.5 456.86L256.64 457.08L256.78 457.3L256.93 457.51L257.09 457.72L257.24 457.94L257.41 458.14L257.58 458.35L257.75 458.55L257.92 458.75L258.11 458.95L258.29 459.14L258.48 459.33L258.68 459.51L262.6 463.6L377.41 463.6L381.34 459.51L381.53 459.33L381.72 459.14L381.91 458.94L382.09 458.75L382.26 458.55L382.44 458.35L382.6 458.14L382.77 457.93L382.93 457.72L383.08 457.51L383.23 457.29L383.38 457.07L383.52 456.85L383.65 456.63L383.78 456.41L383.91 456.18L384.03 455.95L384.15 455.72L384.26 455.49L384.36 455.26L384.47 455.03L384.56 454.79L384.65 454.56L384.74 454.32L384.82 454.08L384.9 453.84L384.97 453.6L385.04 453.37L385.1 453.13L385.16 452.89L385.21 452.65L385.25 452.41L385.29 452.17L385.33 451.93L385.36 451.69L385.38 451.46L385.4 451.22L385.42 450.98L385.42 450.75L385.43 450.52L385.42 450.36L385.42 450.2L385.4 450.03L385.39 449.87L385.36 449.69L385.34 449.52L385.3 449.34L385.26 449.16L385.22 448.97L385.17 448.79L385.12 448.59L385.06 448.4L385 448.2L384.93 448L384.85 447.79L384.77 447.58L384.69 447.37L384.6 447.15L384.5 446.93L384.4 446.71L384.3 446.48L384.19 446.25L384.08 446.02L383.95 445.78L383.83 445.54L383.7 445.3L383.56 445.05L383.42 444.8L383.28 444.55L383.13 444.29L382.97 444.03L382.81 443.76L382.64 443.49L382.47 443.22L382.3 442.95L382.11 442.67L381.93 442.38L381.74 442.1L381.54 441.81L381.34 441.52L377.41 437.43L262.6 437.43L258.68 441.52ZM528.84 385.1L528.59 385.12L528.33 385.14L528.07 385.17L527.82 385.2L527.56 385.24L527.3 385.29L527.04 385.34L526.78 385.4L526.52 385.47L526.27 385.54L526.01 385.62L525.75 385.7L525.49 385.79L525.24 385.89L524.98 385.99L524.73 386.1L524.48 386.21L524.23 386.33L523.98 386.45L523.73 386.58L523.49 386.72L523.24 386.86L523 387L522.77 387.16L522.53 387.31L522.3 387.48L522.07 387.64L521.84 387.82L521.62 388L521.4 388.18L521.18 388.37L520.97 388.56L520.76 388.76L520.55 388.97L520.35 389.18L520.03 389.49L519.72 389.79L519.44 390.08L519.16 390.37L518.91 390.66L518.67 390.95L518.44 391.25L518.23 391.57L518.03 391.9L517.85 392.25L517.68 392.63L517.52 393.03L517.38 393.47L517.24 393.94L517.12 394.46L517.01 395.02L516.91 395.63L516.82 396.29L516.73 397.01L516.66 397.79L516.59 398.64L516.53 399.55L516.48 400.54L516.44 401.61L516.4 402.75L516.37 403.99L516.34 405.31L516.32 406.73L516.3 408.24L516.29 409.85L516.28 411.57L516.27 413.4L516.27 415.35L516.26 417.41L516.26 419.6L516.26 421.91L516.26 424.35L516.26 426.79L516.26 429.1L516.26 431.28L516.27 433.34L516.27 435.29L516.28 437.12L516.29 438.84L516.3 440.46L516.32 441.97L516.34 443.39L516.37 444.71L516.4 445.94L516.44 447.09L516.48 448.15L516.53 449.14L516.59 450.06L516.66 450.9L516.73 451.69L516.82 452.41L516.91 453.07L517.01 453.68L517.12 454.24L517.24 454.75L517.38 455.23L517.52 455.67L517.68 456.07L517.85 456.45L518.03 456.8L518.23 457.13L518.44 457.44L518.67 457.74L518.91 458.04L519.16 458.32L519.44 458.61L519.72 458.9L520.03 459.2L520.35 459.51L520.55 459.72L520.76 459.93L520.97 460.13L521.18 460.32L521.4 460.51L521.62 460.7L521.84 460.87L522.07 461.05L522.3 461.22L522.53 461.38L522.77 461.54L523.01 461.69L523.25 461.83L523.49 461.98L523.73 462.11L523.98 462.24L524.23 462.36L524.48 462.48L524.73 462.6L524.99 462.7L525.24 462.8L525.5 462.9L525.75 462.99L526.01 463.07L526.27 463.15L526.53 463.22L526.78 463.29L527.04 463.35L527.3 463.4L527.56 463.45L527.82 463.49L528.08 463.52L528.33 463.55L528.59 463.57L528.84 463.59L529.1 463.6L529.35 463.6L529.6 463.6L529.86 463.59L530.11 463.57L530.37 463.55L530.63 463.52L530.88 463.49L531.14 463.45L531.4 463.4L531.66 463.35L531.92 463.29L532.18 463.22L532.43 463.15L532.69 463.07L532.95 462.99L533.21 462.9L533.46 462.8L533.72 462.7L533.97 462.6L534.22 462.48L534.47 462.36L534.72 462.24L534.97 462.11L535.21 461.98L535.46 461.83L535.7 461.69L535.94 461.54L536.17 461.38L536.4 461.22L536.63 461.05L536.86 460.87L537.08 460.7L537.3 460.51L537.52 460.32L537.73 460.13L537.94 459.93L538.15 459.72L538.35 459.51L538.67 459.2L538.98 458.9L539.27 458.61L539.54 458.32L539.79 458.03L540.03 457.74L540.26 457.44L540.47 457.12L540.67 456.79L540.85 456.44L541.02 456.07L541.18 455.66L541.32 455.22L541.46 454.75L541.58 454.23L541.69 453.67L541.79 453.06L541.88 452.4L541.97 451.68L542.04 450.9L542.11 450.05L542.17 449.14L542.22 448.15L542.26 447.08L542.3 445.94L542.33 444.7L542.36 443.38L542.38 441.97L542.4 440.45L542.41 438.84L542.42 437.12L542.43 435.29L542.43 433.34L542.44 431.28L542.44 429.1L542.44 426.79L542.44 424.35L542.44 421.91L542.44 419.6L542.44 417.41L542.43 415.35L542.43 413.4L542.42 411.57L542.41 409.85L542.4 408.24L542.38 406.72L542.36 405.31L542.33 403.99L542.3 402.75L542.26 401.61L542.22 400.54L542.17 399.55L542.11 398.64L542.04 397.79L541.97 397.01L541.88 396.29L541.79 395.63L541.69 395.02L541.58 394.46L541.46 393.94L541.32 393.47L541.18 393.03L541.02 392.62L540.85 392.25L540.67 391.89L540.47 391.56L540.26 391.25L540.03 390.95L539.79 390.66L539.54 390.37L539.27 390.08L538.98 389.79L538.67 389.49L538.35 389.18L538.15 388.97L537.94 388.76L537.73 388.56L537.52 388.37L537.3 388.18L537.08 388L536.86 387.82L536.63 387.65L536.4 387.48L536.17 387.32L535.94 387.16L535.7 387.01L535.46 386.86L535.21 386.72L534.97 386.58L534.72 386.45L534.47 386.33L534.22 386.21L533.97 386.1L533.72 385.99L533.46 385.89L533.21 385.79L532.95 385.7L532.69 385.62L532.43 385.54L532.18 385.47L531.92 385.41L531.66 385.35L531.4 385.29L531.14 385.24L530.88 385.2L530.63 385.17L530.37 385.14L530.11 385.12L529.86 385.1L529.6 385.09L529.35 385.09L529.1 385.09L528.84 385.1ZM476.51 385.1L476.26 385.12L476 385.14L475.74 385.17L475.48 385.2L475.23 385.24L474.97 385.29L474.71 385.34L474.45 385.4L474.19 385.47L473.93 385.54L473.68 385.62L473.42 385.7L473.16 385.79L472.91 385.89L472.65 385.99L472.4 386.1L472.15 386.21L471.89 386.33L471.65 386.45L471.4 386.58L471.15 386.72L470.91 386.86L470.67 387L470.43 387.16L470.2 387.31L469.96 387.48L469.73 387.64L469.51 387.82L469.28 388L469.06 388.18L468.85 388.37L468.63 388.56L468.43 388.76L468.22 388.97L468.02 389.18L467.7 389.49L467.39 389.79L467.1 390.08L466.83 390.37L466.58 390.66L466.33 390.95L466.11 391.25L465.9 391.57L465.7 391.9L465.52 392.25L465.35 392.63L465.19 393.03L465.05 393.47L464.91 393.94L464.79 394.46L464.68 395.02L464.58 395.63L464.48 396.29L464.4 397.01L464.33 397.79L464.26 398.64L464.2 399.55L464.15 400.54L464.11 401.61L464.07 402.75L464.04 403.99L464.01 405.31L463.99 406.73L463.97 408.24L463.96 409.85L463.95 411.57L463.94 413.4L463.93 415.35L463.93 417.41L463.93 419.6L463.93 421.91L463.93 424.35L463.93 426.79L463.93 429.1L463.93 431.28L463.93 433.34L463.94 435.29L463.95 437.12L463.96 438.84L463.97 440.46L463.99 441.97L464.01 443.39L464.04 444.71L464.07 445.94L464.11 447.09L464.15 448.15L464.2 449.14L464.26 450.06L464.33 450.9L464.4 451.69L464.48 452.41L464.58 453.07L464.68 453.68L464.79 454.24L464.91 454.75L465.05 455.23L465.19 455.67L465.35 456.07L465.52 456.45L465.7 456.8L465.9 457.13L466.11 457.44L466.33 457.74L466.58 458.04L466.83 458.32L467.1 458.61L467.39 458.9L467.7 459.2L468.02 459.51L468.22 459.72L468.43 459.93L468.64 460.13L468.85 460.32L469.07 460.51L469.29 460.7L469.51 460.87L469.74 461.05L469.97 461.22L470.2 461.38L470.44 461.54L470.67 461.69L470.91 461.83L471.16 461.98L471.4 462.11L471.65 462.24L471.9 462.36L472.15 462.48L472.4 462.6L472.65 462.7L472.91 462.8L473.16 462.9L473.42 462.99L473.68 463.07L473.93 463.15L474.19 463.22L474.45 463.29L474.71 463.35L474.97 463.4L475.23 463.45L475.48 463.49L475.74 463.52L476 463.55L476.26 463.57L476.51 463.59L476.76 463.6L477.02 463.6L477.27 463.6L477.52 463.59L477.78 463.57L478.04 463.55L478.29 463.52L478.55 463.49L478.81 463.45L479.07 463.4L479.33 463.35L479.59 463.29L479.84 463.22L480.1 463.15L480.36 463.07L480.62 462.99L480.87 462.9L481.13 462.8L481.38 462.7L481.64 462.6L481.89 462.48L482.14 462.36L482.39 462.24L482.64 462.11L482.88 461.98L483.12 461.83L483.36 461.69L483.6 461.54L483.84 461.38L484.07 461.22L484.3 461.05L484.53 460.87L484.75 460.7L484.97 460.51L485.19 460.32L485.4 460.13L485.61 459.93L485.82 459.72L486.02 459.51L486.34 459.2L486.64 458.9L486.93 458.61L487.2 458.32L487.46 458.03L487.7 457.74L487.93 457.44L488.14 457.12L488.33 456.79L488.52 456.44L488.69 456.07L488.84 455.66L488.99 455.22L489.12 454.75L489.25 454.23L489.36 453.67L489.46 453.06L489.55 452.4L489.63 451.68L489.71 450.9L489.77 450.05L489.83 449.14L489.88 448.15L489.93 447.08L489.97 445.94L490 444.7L490.02 443.38L490.05 441.97L490.06 440.45L490.08 438.84L490.09 437.12L490.1 435.29L490.1 433.34L490.1 431.28L490.1 429.1L490.11 426.79L490.11 424.35L490.11 421.91L490.1 419.6L490.1 417.41L490.1 415.35L490.1 413.4L490.09 411.57L490.08 409.85L490.06 408.24L490.05 406.72L490.02 405.31L490 403.99L489.97 402.75L489.93 401.61L489.88 400.54L489.83 399.55L489.77 398.64L489.71 397.79L489.63 397.01L489.55 396.29L489.46 395.63L489.36 395.02L489.25 394.46L489.12 393.94L488.99 393.47L488.84 393.03L488.69 392.62L488.52 392.25L488.33 391.89L488.14 391.56L487.93 391.25L487.7 390.95L487.46 390.66L487.2 390.37L486.93 390.08L486.64 389.79L486.34 389.49L486.02 389.18L485.81 388.97L485.61 388.76L485.4 388.57L485.19 388.37L484.97 388.18L484.75 388L484.53 387.82L484.3 387.65L484.07 387.48L483.84 387.32L483.6 387.16L483.36 387.01L483.12 386.86L482.88 386.72L482.63 386.59L482.39 386.46L482.14 386.33L481.89 386.21L481.64 386.1L481.38 385.99L481.13 385.89L480.87 385.8L480.62 385.71L480.36 385.62L480.1 385.55L479.84 385.47L479.58 385.41L479.33 385.35L479.07 385.29L478.81 385.25L478.55 385.21L478.29 385.17L478.04 385.14L477.78 385.12L477.52 385.1L477.27 385.09L477.02 385.09L476.76 385.09L476.51 385.1ZM132.06 437.43L129.88 437.43L127.81 437.43L125.87 437.44L124.04 437.44L122.32 437.45L120.7 437.47L119.19 437.49L117.77 437.51L116.45 437.53L115.22 437.57L114.07 437.6L113 437.65L112.02 437.7L111.1 437.76L110.25 437.82L109.47 437.9L108.75 437.98L108.09 438.07L107.48 438.17L106.92 438.29L106.41 438.41L105.93 438.54L105.49 438.69L105.09 438.85L104.71 439.02L104.36 439.2L104.03 439.4L103.72 439.61L103.42 439.83L103.12 440.07L102.83 440.33L102.55 440.6L102.25 440.89L101.96 441.19L101.64 441.52L101.44 441.72L101.23 441.92L101.03 442.13L100.84 442.35L100.65 442.56L100.46 442.78L100.28 443.01L100.11 443.23L99.94 443.47L99.78 443.7L99.62 443.93L99.47 444.17L99.32 444.41L99.18 444.66L99.05 444.9L98.92 445.15L98.79 445.4L98.68 445.65L98.56 445.9L98.46 446.15L98.35 446.41L98.26 446.66L98.17 446.92L98.09 447.18L98.01 447.43L97.94 447.69L97.87 447.95L97.81 448.21L97.76 448.47L97.71 448.73L97.67 448.98L97.64 449.24L97.61 449.5L97.58 449.75L97.57 450.01L97.56 450.26L97.56 450.52L97.56 450.77L97.57 451.02L97.58 451.28L97.61 451.53L97.64 451.79L97.67 452.05L97.71 452.31L97.76 452.57L97.81 452.82L97.87 453.08L97.94 453.34L98.01 453.6L98.09 453.86L98.17 454.12L98.26 454.37L98.35 454.63L98.46 454.88L98.56 455.14L98.68 455.39L98.79 455.64L98.92 455.89L99.05 456.13L99.18 456.38L99.32 456.62L99.47 456.86L99.62 457.1L99.78 457.34L99.94 457.57L100.11 457.8L100.28 458.03L100.46 458.25L100.65 458.47L100.84 458.69L101.03 458.9L101.23 459.11L101.44 459.31L101.64 459.51L101.96 459.84L102.26 460.14L102.55 460.43L102.84 460.7L103.12 460.96L103.42 461.2L103.72 461.42L104.03 461.63L104.36 461.83L104.72 462.01L105.09 462.18L105.5 462.34L105.94 462.49L106.41 462.62L106.93 462.74L107.49 462.86L108.1 462.96L108.76 463.05L109.48 463.13L110.26 463.21L111.1 463.27L112.02 463.33L113.01 463.38L114.07 463.43L115.22 463.46L116.45 463.5L117.78 463.52L119.19 463.54L120.71 463.56L122.32 463.58L124.04 463.59L125.87 463.59L127.82 463.6L129.88 463.6L132.06 463.6L134.37 463.6L136.81 463.6L139.25 463.6L141.56 463.6L143.75 463.6L145.81 463.6L147.75 463.59L149.58 463.59L151.31 463.58L152.92 463.56L154.43 463.54L155.85 463.52L157.17 463.5L158.41 463.46L159.55 463.43L160.62 463.38L161.61 463.33L162.52 463.27L163.37 463.21L164.15 463.13L164.87 463.05L165.53 462.96L166.14 462.86L166.7 462.74L167.22 462.62L167.69 462.49L168.13 462.34L168.54 462.18L168.91 462.01L169.26 461.83L169.59 461.63L169.91 461.42L170.21 461.2L170.5 460.96L170.79 460.7L171.08 460.43L171.37 460.14L171.67 459.84L171.98 459.51L172.19 459.31L172.4 459.11L172.59 458.9L172.79 458.68L172.98 458.47L173.16 458.25L173.34 458.02L173.51 457.8L173.68 457.57L173.85 457.33L174 457.1L174.16 456.86L174.3 456.62L174.44 456.38L174.58 456.13L174.71 455.88L174.83 455.64L174.95 455.38L175.06 455.13L175.17 454.88L175.27 454.63L175.37 454.37L175.46 454.11L175.54 453.86L175.62 453.6L175.69 453.34L175.75 453.08L175.81 452.82L175.87 452.56L175.91 452.31L175.96 452.05L175.99 451.79L176.02 451.53L176.04 451.28L176.06 451.02L176.07 450.77L176.07 450.52L176.07 450.26L176.06 450.01L176.04 449.75L176.02 449.5L175.99 449.24L175.96 448.98L175.91 448.72L175.87 448.47L175.81 448.21L175.75 447.95L175.69 447.69L175.62 447.43L175.54 447.17L175.46 446.92L175.37 446.66L175.27 446.4L175.17 446.15L175.06 445.9L174.95 445.64L174.83 445.39L174.71 445.14L174.58 444.9L174.44 444.65L174.3 444.41L174.16 444.17L174 443.93L173.85 443.69L173.68 443.46L173.51 443.23L173.34 443L173.16 442.78L172.98 442.56L172.79 442.34L172.59 442.13L172.4 441.92L172.19 441.72L171.98 441.52L171.67 441.19L171.37 440.89L171.08 440.6L170.79 440.33L170.5 440.08L170.21 439.84L169.91 439.61L169.59 439.4L169.26 439.2L168.91 439.02L168.53 438.85L168.13 438.69L167.69 438.55L167.22 438.41L166.7 438.29L166.14 438.18L165.53 438.08L164.87 437.99L164.15 437.9L163.37 437.83L162.52 437.76L161.61 437.7L160.62 437.65L159.55 437.61L158.4 437.57L157.17 437.54L155.85 437.51L154.43 437.49L152.92 437.47L151.3 437.46L149.58 437.45L147.75 437.44L145.81 437.43L143.75 437.43L141.56 437.43L139.25 437.43L136.81 437.43L134.37 437.43L132.06 437.43ZM132.06 385.09L129.88 385.09L127.81 385.09L125.87 385.1L124.04 385.11L122.32 385.12L120.7 385.13L119.19 385.15L117.77 385.17L116.45 385.2L115.22 385.23L114.07 385.27L113 385.31L112.02 385.36L111.1 385.42L110.25 385.48L109.47 385.56L108.75 385.64L108.09 385.73L107.48 385.84L106.92 385.95L106.41 386.07L105.93 386.2L105.49 386.35L105.09 386.51L104.71 386.68L104.36 386.86L104.03 387.06L103.72 387.27L103.42 387.49L103.12 387.73L102.83 387.99L102.55 388.26L102.25 388.55L101.96 388.85L101.64 389.18L101.44 389.38L101.23 389.58L101.03 389.79L100.84 390.01L100.65 390.22L100.46 390.44L100.28 390.67L100.11 390.9L99.94 391.13L99.78 391.36L99.62 391.59L99.47 391.83L99.32 392.07L99.18 392.32L99.05 392.56L98.92 392.81L98.79 393.06L98.68 393.31L98.56 393.56L98.46 393.81L98.35 394.07L98.26 394.32L98.17 394.58L98.09 394.84L98.01 395.1L97.94 395.35L97.87 395.61L97.81 395.87L97.76 396.13L97.71 396.39L97.67 396.65L97.64 396.9L97.61 397.16L97.58 397.42L97.57 397.67L97.56 397.92L97.56 398.18L97.56 398.43L97.57 398.68L97.58 398.94L97.61 399.19L97.64 399.45L97.67 399.71L97.71 399.97L97.76 400.23L97.81 400.48L97.87 400.74L97.94 401L98.01 401.26L98.09 401.52L98.17 401.78L98.26 402.03L98.35 402.29L98.46 402.54L98.56 402.8L98.68 403.05L98.79 403.3L98.92 403.55L99.05 403.79L99.18 404.04L99.32 404.28L99.47 404.52L99.62 404.76L99.78 405L99.94 405.23L100.11 405.46L100.28 405.69L100.46 405.91L100.65 406.13L100.84 406.35L101.03 406.56L101.23 406.77L101.44 406.97L101.64 407.17L101.96 407.5L102.26 407.8L102.55 408.09L102.84 408.36L103.12 408.62L103.42 408.86L103.72 409.08L104.03 409.29L104.36 409.49L104.72 409.67L105.09 409.84L105.5 410L105.94 410.15L106.41 410.28L106.93 410.4L107.49 410.52L108.1 410.62L108.76 410.71L109.48 410.79L110.26 410.87L111.1 410.93L112.02 410.99L113.01 411.04L114.07 411.09L115.22 411.12L116.45 411.16L117.78 411.18L119.19 411.21L120.71 411.22L122.32 411.24L124.04 411.25L125.87 411.25L127.82 411.26L129.88 411.26L132.06 411.26L134.37 411.26L136.81 411.26L139.25 411.26L141.56 411.26L143.75 411.26L145.81 411.26L147.75 411.25L149.58 411.25L151.31 411.24L152.92 411.22L154.43 411.21L155.85 411.18L157.17 411.16L158.41 411.12L159.55 411.09L160.62 411.04L161.61 410.99L162.52 410.93L163.37 410.87L164.15 410.79L164.87 410.71L165.53 410.62L166.14 410.52L166.7 410.4L167.22 410.28L167.69 410.15L168.13 410L168.54 409.84L168.91 409.67L169.26 409.49L169.59 409.29L169.91 409.08L170.21 408.86L170.5 408.62L170.79 408.36L171.08 408.09L171.37 407.8L171.67 407.5L171.98 407.17L172.19 406.97L172.4 406.77L172.59 406.56L172.79 406.34L172.98 406.13L173.16 405.91L173.34 405.68L173.51 405.46L173.68 405.23L173.85 404.99L174 404.76L174.16 404.52L174.3 404.28L174.44 404.04L174.58 403.79L174.71 403.54L174.83 403.3L174.95 403.05L175.06 402.79L175.17 402.54L175.27 402.29L175.37 402.03L175.46 401.77L175.54 401.52L175.62 401.26L175.69 401L175.75 400.74L175.81 400.48L175.87 400.23L175.91 399.97L175.96 399.71L175.99 399.45L176.02 399.19L176.04 398.94L176.06 398.68L176.07 398.43L176.07 398.18L176.07 397.92L176.06 397.67L176.04 397.41L176.02 397.16L175.99 396.9L175.96 396.64L175.91 396.38L175.87 396.13L175.81 395.87L175.75 395.61L175.69 395.35L175.62 395.09L175.54 394.83L175.46 394.58L175.37 394.32L175.27 394.06L175.17 393.81L175.06 393.56L174.95 393.3L174.83 393.05L174.71 392.8L174.58 392.56L174.44 392.31L174.3 392.07L174.16 391.83L174 391.59L173.85 391.36L173.68 391.12L173.51 390.89L173.34 390.67L173.16 390.44L172.98 390.22L172.79 390.01L172.59 389.79L172.4 389.58L172.19 389.38L171.98 389.18L171.67 388.86L171.37 388.55L171.08 388.26L170.79 387.99L170.5 387.74L170.21 387.5L169.91 387.27L169.59 387.06L169.26 386.86L168.91 386.68L168.53 386.51L168.13 386.35L167.69 386.21L167.22 386.07L166.7 385.95L166.14 385.84L165.53 385.74L164.87 385.65L164.15 385.56L163.37 385.49L162.52 385.42L161.61 385.37L160.62 385.31L159.55 385.27L158.4 385.23L157.17 385.2L155.85 385.17L154.43 385.15L152.92 385.13L151.3 385.12L149.58 385.11L147.75 385.1L145.81 385.1L143.75 385.09L141.56 385.09L139.25 385.09L136.81 385.09L134.37 385.09L132.06 385.09ZM528.84 280.42L528.59 280.44L528.33 280.46L528.07 280.49L527.82 280.52L527.56 280.57L527.3 280.61L527.04 280.67L526.78 280.73L526.52 280.79L526.27 280.86L526.01 280.94L525.75 281.02L525.49 281.11L525.24 281.21L524.98 281.31L524.73 281.42L524.48 281.53L524.23 281.65L523.98 281.77L523.73 281.9L523.49 282.04L523.24 282.18L523 282.32L522.77 282.48L522.53 282.63L522.3 282.8L522.07 282.97L521.84 283.14L521.62 283.32L521.4 283.5L521.18 283.69L520.97 283.89L520.76 284.08L520.55 284.29L520.35 284.5L520.03 284.81L519.72 285.11L519.44 285.4L519.16 285.69L518.91 285.98L518.67 286.27L518.44 286.57L518.23 286.89L518.03 287.22L517.85 287.57L517.68 287.95L517.52 288.35L517.38 288.79L517.24 289.26L517.12 289.78L517.01 290.34L516.91 290.95L516.82 291.61L516.73 292.33L516.66 293.11L516.59 293.96L516.53 294.87L516.48 295.86L516.44 296.93L516.4 298.08L516.37 299.31L516.34 300.63L516.32 302.05L516.3 303.56L516.29 305.18L516.28 306.9L516.27 308.73L516.27 310.67L516.26 312.73L516.26 314.92L516.26 317.23L516.26 319.67L516.26 322.11L516.26 324.42L516.26 326.6L516.27 328.67L516.27 330.61L516.28 332.44L516.29 334.16L516.3 335.78L516.32 337.29L516.34 338.71L516.37 340.03L516.4 341.26L516.44 342.41L516.48 343.48L516.53 344.46L516.59 345.38L516.66 346.23L516.73 347.01L516.82 347.73L516.91 348.39L517.01 349L517.12 349.56L517.24 350.07L517.38 350.55L517.52 350.99L517.68 351.39L517.85 351.77L518.03 352.12L518.23 352.45L518.44 352.76L518.67 353.06L518.91 353.36L519.16 353.65L519.44 353.93L519.72 354.23L520.03 354.52L520.35 354.84L520.55 355.04L520.76 355.25L520.97 355.45L521.18 355.64L521.4 355.83L521.62 356.02L521.84 356.2L522.07 356.37L522.3 356.54L522.53 356.7L522.77 356.86L523.01 357.01L523.25 357.16L523.49 357.3L523.73 357.43L523.98 357.56L524.23 357.69L524.48 357.8L524.73 357.92L524.99 358.02L525.24 358.13L525.5 358.22L525.75 358.31L526.01 358.39L526.27 358.47L526.53 358.54L526.78 358.61L527.04 358.67L527.3 358.72L527.56 358.77L527.82 358.81L528.08 358.84L528.33 358.87L528.59 358.9L528.84 358.91L529.1 358.92L529.35 358.92L529.6 358.92L529.86 358.91L530.11 358.9L530.37 358.87L530.63 358.84L530.88 358.81L531.14 358.77L531.4 358.72L531.66 358.67L531.92 358.61L532.18 358.54L532.43 358.47L532.69 358.39L532.95 358.31L533.21 358.22L533.46 358.13L533.72 358.02L533.97 357.92L534.22 357.8L534.47 357.69L534.72 357.56L534.97 357.43L535.21 357.3L535.46 357.16L535.7 357.01L535.94 356.86L536.17 356.7L536.4 356.54L536.63 356.37L536.86 356.2L537.08 356.02L537.3 355.83L537.52 355.64L537.73 355.45L537.94 355.25L538.15 355.04L538.35 354.84L538.67 354.52L538.98 354.22L539.27 353.93L539.54 353.64L539.79 353.36L540.03 353.06L540.26 352.76L540.47 352.45L540.67 352.12L540.85 351.76L541.02 351.39L541.18 350.98L541.32 350.54L541.46 350.07L541.58 349.55L541.69 348.99L541.79 348.38L541.88 347.72L541.97 347L542.04 346.22L542.11 345.38L542.17 344.46L542.22 343.47L542.26 342.41L542.3 341.26L542.33 340.03L542.36 338.7L542.38 337.29L542.4 335.77L542.41 334.16L542.42 332.44L542.43 330.61L542.43 328.66L542.44 326.6L542.44 324.42L542.44 322.11L542.44 319.67L542.44 317.23L542.44 314.92L542.44 312.73L542.43 310.67L542.43 308.72L542.42 306.89L542.41 305.17L542.4 303.56L542.38 302.04L542.36 300.63L542.33 299.3L542.3 298.07L542.26 296.92L542.22 295.86L542.17 294.87L542.11 293.95L542.04 293.11L541.97 292.33L541.88 291.61L541.79 290.95L541.69 290.34L541.58 289.78L541.46 289.26L541.32 288.79L541.18 288.35L541.02 287.94L540.85 287.57L540.67 287.22L540.47 286.89L540.26 286.57L540.03 286.27L539.79 285.98L539.54 285.69L539.27 285.4L538.98 285.11L538.67 284.81L538.35 284.5L538.15 284.29L537.94 284.09L537.73 283.89L537.52 283.69L537.3 283.5L537.08 283.32L536.86 283.14L536.63 282.97L536.4 282.8L536.17 282.64L535.94 282.48L535.7 282.33L535.46 282.18L535.21 282.04L534.97 281.9L534.72 281.78L534.47 281.65L534.22 281.53L533.97 281.42L533.72 281.31L533.46 281.21L533.21 281.12L532.95 281.03L532.69 280.94L532.43 280.86L532.18 280.79L531.92 280.73L531.66 280.67L531.4 280.61L531.14 280.57L530.88 280.52L530.63 280.49L530.37 280.46L530.11 280.44L529.86 280.42L529.6 280.41L529.35 280.41L529.1 280.41L528.84 280.42ZM424.17 280.42L423.92 280.44L423.66 280.46L423.4 280.49L423.15 280.52L422.89 280.57L422.63 280.61L422.37 280.67L422.11 280.73L421.85 280.79L421.59 280.86L421.34 280.94L421.08 281.02L420.82 281.11L420.57 281.21L420.31 281.31L420.06 281.42L419.81 281.53L419.56 281.65L419.31 281.77L419.06 281.9L418.81 282.04L418.57 282.18L418.33 282.32L418.09 282.48L417.86 282.63L417.62 282.8L417.39 282.97L417.17 283.14L416.94 283.32L416.72 283.5L416.51 283.69L416.29 283.89L416.09 284.08L415.88 284.29L415.68 284.5L415.36 284.81L415.05 285.11L414.76 285.4L414.49 285.69L414.24 285.98L414 286.27L413.77 286.57L413.56 286.89L413.36 287.22L413.18 287.57L413.01 287.95L412.85 288.35L412.71 288.79L412.57 289.26L412.45 289.78L412.34 290.34L412.24 290.95L412.14 291.61L412.06 292.33L411.99 293.11L411.92 293.96L411.86 294.87L411.81 295.86L411.77 296.93L411.73 298.08L411.7 299.31L411.67 300.63L411.65 302.05L411.63 303.56L411.62 305.18L411.61 306.9L411.6 308.73L411.6 310.67L411.59 312.73L411.59 314.92L411.59 317.23L411.59 319.67L411.59 322.11L411.59 324.42L411.59 326.6L411.6 328.67L411.6 330.61L411.61 332.44L411.62 334.16L411.63 335.78L411.65 337.29L411.67 338.71L411.7 340.03L411.73 341.26L411.77 342.41L411.81 343.48L411.86 344.46L411.92 345.38L411.99 346.23L412.06 347.01L412.14 347.73L412.24 348.39L412.34 349L412.45 349.56L412.57 350.07L412.71 350.55L412.85 350.99L413.01 351.39L413.18 351.77L413.36 352.12L413.56 352.45L413.77 352.76L414 353.06L414.24 353.36L414.49 353.65L414.76 353.93L415.05 354.23L415.36 354.52L415.68 354.84L415.88 355.04L416.09 355.25L416.3 355.45L416.51 355.64L416.73 355.83L416.95 356.02L417.17 356.2L417.4 356.37L417.63 356.54L417.86 356.7L418.1 356.86L418.33 357.01L418.57 357.16L418.82 357.3L419.06 357.43L419.31 357.56L419.56 357.69L419.81 357.8L420.06 357.92L420.31 358.02L420.57 358.13L420.82 358.22L421.08 358.31L421.34 358.39L421.6 358.47L421.85 358.54L422.11 358.61L422.37 358.67L422.63 358.72L422.89 358.77L423.15 358.81L423.4 358.84L423.66 358.87L423.92 358.9L424.17 358.91L424.43 358.92L424.68 358.92L424.93 358.92L425.19 358.91L425.44 358.9L425.7 358.87L425.95 358.84L426.21 358.81L426.47 358.77L426.73 358.72L426.99 358.67L427.25 358.61L427.5 358.54L427.76 358.47L428.02 358.39L428.28 358.31L428.53 358.22L428.79 358.13L429.05 358.02L429.3 357.92L429.55 357.8L429.8 357.69L430.05 357.56L430.3 357.43L430.54 357.3L430.78 357.16L431.03 357.01L431.26 356.86L431.5 356.7L431.73 356.54L431.96 356.37L432.19 356.2L432.41 356.02L432.63 355.83L432.85 355.64L433.06 355.45L433.27 355.25L433.48 355.04L433.68 354.84L434 354.52L434.3 354.22L434.59 353.93L434.86 353.64L435.12 353.36L435.36 353.06L435.59 352.76L435.8 352.45L435.99 352.12L436.18 351.76L436.35 351.39L436.5 350.98L436.65 350.54L436.78 350.07L436.91 349.55L437.02 348.99L437.12 348.38L437.21 347.72L437.3 347L437.37 346.22L437.44 345.38L437.49 344.46L437.54 343.47L437.59 342.41L437.63 341.26L437.66 340.03L437.69 338.7L437.71 337.29L437.73 335.77L437.74 334.16L437.75 332.44L437.76 330.61L437.76 328.66L437.76 326.6L437.77 324.42L437.77 322.11L437.77 319.67L437.77 317.23L437.77 314.92L437.76 312.73L437.76 310.67L437.76 308.72L437.75 306.89L437.74 305.17L437.73 303.56L437.71 302.04L437.69 300.63L437.66 299.3L437.63 298.07L437.59 296.92L437.54 295.86L437.49 294.87L437.44 293.95L437.37 293.11L437.3 292.33L437.21 291.61L437.12 290.95L437.02 290.34L436.91 289.78L436.78 289.26L436.65 288.79L436.5 288.35L436.35 287.94L436.18 287.57L435.99 287.22L435.8 286.89L435.59 286.57L435.36 286.27L435.12 285.98L434.86 285.69L434.59 285.4L434.3 285.11L434 284.81L433.68 284.5L433.48 284.29L433.27 284.09L433.06 283.89L432.85 283.69L432.63 283.5L432.41 283.32L432.19 283.14L431.96 282.97L431.73 282.8L431.5 282.64L431.26 282.48L431.02 282.33L430.78 282.18L430.54 282.04L430.29 281.9L430.05 281.78L429.8 281.65L429.55 281.53L429.3 281.42L429.04 281.31L428.79 281.21L428.53 281.12L428.28 281.03L428.02 280.94L427.76 280.86L427.5 280.79L427.24 280.73L426.99 280.67L426.73 280.61L426.47 280.57L426.21 280.52L425.95 280.49L425.7 280.46L425.44 280.44L425.19 280.42L424.93 280.41L424.68 280.41L424.43 280.41L424.17 280.42ZM476.51 280.42L476.26 280.44L476 280.46L475.74 280.49L475.48 280.52L475.23 280.57L474.97 280.61L474.71 280.67L474.45 280.73L474.19 280.79L473.93 280.86L473.68 280.94L473.42 281.02L473.16 281.11L472.91 281.21L472.65 281.31L472.4 281.42L472.15 281.53L471.89 281.65L471.65 281.77L471.4 281.9L471.15 282.04L470.91 282.18L470.67 282.32L470.43 282.48L470.2 282.63L469.96 282.8L469.73 282.97L469.51 283.14L469.28 283.32L469.06 283.5L468.85 283.69L468.63 283.89L468.43 284.08L468.22 284.29L468.02 284.5L467.7 284.81L467.39 285.11L467.1 285.4L466.83 285.69L466.58 285.98L466.33 286.27L466.11 286.57L465.9 286.89L465.7 287.22L465.52 287.57L465.35 287.95L465.19 288.35L465.05 288.79L464.91 289.26L464.79 289.78L464.68 290.34L464.58 290.95L464.48 291.61L464.4 292.33L464.33 293.11L464.26 293.96L464.2 294.87L464.15 295.86L464.11 296.93L464.07 298.08L464.04 299.31L464.01 300.63L463.99 302.05L463.97 303.56L463.96 305.18L463.95 306.9L463.94 308.73L463.93 310.67L463.93 312.73L463.93 314.92L463.93 317.23L463.93 319.67L463.93 322.11L463.93 324.42L463.93 326.6L463.93 328.67L463.94 330.61L463.95 332.44L463.96 334.16L463.97 335.78L463.99 337.29L464.01 338.71L464.04 340.03L464.07 341.26L464.11 342.41L464.15 343.48L464.2 344.46L464.26 345.38L464.33 346.23L464.4 347.01L464.48 347.73L464.58 348.39L464.68 349L464.79 349.56L464.91 350.07L465.05 350.55L465.19 350.99L465.35 351.39L465.52 351.77L465.7 352.12L465.9 352.45L466.11 352.76L466.33 353.06L466.58 353.36L466.83 353.65L467.1 353.93L467.39 354.23L467.7 354.52L468.02 354.84L468.22 355.04L468.43 355.25L468.64 355.45L468.85 355.64L469.07 355.83L469.29 356.02L469.51 356.2L469.74 356.37L469.97 356.54L470.2 356.7L470.44 356.86L470.67 357.01L470.91 357.16L471.16 357.3L471.4 357.43L471.65 357.56L471.9 357.69L472.15 357.8L472.4 357.92L472.65 358.02L472.91 358.13L473.16 358.22L473.42 358.31L473.68 358.39L473.93 358.47L474.19 358.54L474.45 358.61L474.71 358.67L474.97 358.72L475.23 358.77L475.48 358.81L475.74 358.84L476 358.87L476.26 358.9L476.51 358.91L476.76 358.92L477.02 358.92L477.27 358.92L477.52 358.91L477.78 358.9L478.04 358.87L478.29 358.84L478.55 358.81L478.81 358.77L479.07 358.72L479.33 358.67L479.59 358.61L479.84 358.54L480.1 358.47L480.36 358.39L480.62 358.31L480.87 358.22L481.13 358.13L481.38 358.02L481.64 357.92L481.89 357.8L482.14 357.69L482.39 357.56L482.64 357.43L482.88 357.3L483.12 357.16L483.36 357.01L483.6 356.86L483.84 356.7L484.07 356.54L484.3 356.37L484.53 356.2L484.75 356.02L484.97 355.83L485.19 355.64L485.4 355.45L485.61 355.25L485.82 355.04L486.02 354.84L486.34 354.52L486.64 354.22L486.93 353.93L487.2 353.64L487.46 353.36L487.7 353.06L487.93 352.76L488.14 352.45L488.33 352.12L488.52 351.76L488.69 351.39L488.84 350.98L488.99 350.54L489.12 350.07L489.25 349.55L489.36 348.99L489.46 348.38L489.55 347.72L489.63 347L489.71 346.22L489.77 345.38L489.83 344.46L489.88 343.47L489.93 342.41L489.97 341.26L490 340.03L490.02 338.7L490.05 337.29L490.06 335.77L490.08 334.16L490.09 332.44L490.1 330.61L490.1 328.66L490.1 326.6L490.1 324.42L490.11 322.11L490.11 319.67L490.11 317.23L490.1 314.92L490.1 312.73L490.1 310.67L490.1 308.72L490.09 306.89L490.08 305.17L490.06 303.56L490.05 302.04L490.02 300.63L490 299.3L489.97 298.07L489.93 296.92L489.88 295.86L489.83 294.87L489.77 293.95L489.71 293.11L489.63 292.33L489.55 291.61L489.46 290.95L489.36 290.34L489.25 289.78L489.12 289.26L488.99 288.79L488.84 288.35L488.69 287.94L488.52 287.57L488.33 287.22L488.14 286.89L487.93 286.57L487.7 286.27L487.46 285.98L487.2 285.69L486.93 285.4L486.64 285.11L486.34 284.81L486.02 284.5L485.81 284.29L485.61 284.09L485.4 283.89L485.19 283.69L484.97 283.5L484.75 283.32L484.53 283.14L484.3 282.97L484.07 282.8L483.84 282.64L483.6 282.48L483.36 282.33L483.12 282.18L482.88 282.04L482.63 281.91L482.39 281.78L482.14 281.65L481.89 281.53L481.64 281.42L481.38 281.31L481.13 281.21L480.87 281.12L480.62 281.03L480.36 280.94L480.1 280.87L479.84 280.8L479.58 280.73L479.33 280.67L479.07 280.62L478.81 280.57L478.55 280.53L478.29 280.49L478.04 280.46L477.78 280.44L477.52 280.42L477.27 280.41L477.02 280.41L476.76 280.41L476.51 280.42ZM101.66 336.84L101.46 337.03L101.27 337.22L101.09 337.41L100.91 337.61L100.73 337.81L100.56 338.01L100.39 338.22L100.23 338.42L100.07 338.63L99.91 338.85L99.76 339.06L99.62 339.28L99.48 339.5L99.34 339.72L99.21 339.95L99.09 340.17L98.97 340.4L98.85 340.63L98.74 340.86L98.63 341.1L98.53 341.33L98.43 341.56L98.34 341.8L98.25 342.04L98.17 342.27L98.09 342.51L98.02 342.75L97.96 342.99L97.9 343.23L97.84 343.47L97.79 343.71L97.74 343.95L97.7 344.18L97.67 344.42L97.64 344.66L97.61 344.9L97.59 345.13L97.58 345.37L97.57 345.6L97.57 345.84L97.57 346.07L97.58 346.31L97.59 346.54L97.61 346.78L97.64 347.02L97.67 347.25L97.7 347.49L97.74 347.73L97.79 347.97L97.84 348.21L97.9 348.45L97.96 348.69L98.02 348.93L98.09 349.17L98.17 349.4L98.25 349.64L98.34 349.88L98.43 350.11L98.53 350.35L98.63 350.58L98.74 350.82L98.85 351.05L98.97 351.28L99.09 351.5L99.21 351.73L99.34 351.96L99.48 352.18L99.62 352.4L99.76 352.62L99.91 352.83L100.07 353.05L100.23 353.26L100.39 353.46L100.56 353.67L100.73 353.87L100.91 354.07L101.09 354.27L101.27 354.46L101.46 354.65L101.66 354.84L105.58 358.92L220.4 358.92L224.32 354.84L224.51 354.65L224.7 354.46L224.89 354.27L225.07 354.07L225.25 353.87L225.42 353.67L225.59 353.46L225.75 353.25L225.91 353.04L226.06 352.83L226.21 352.61L226.36 352.4L226.5 352.18L226.63 351.95L226.76 351.73L226.89 351.5L227.01 351.27L227.13 351.04L227.24 350.81L227.35 350.58L227.45 350.35L227.55 350.11L227.64 349.88L227.72 349.64L227.81 349.4L227.88 349.16L227.95 348.93L228.02 348.69L228.08 348.45L228.14 348.21L228.19 347.97L228.24 347.73L228.28 347.49L228.31 347.25L228.34 347.02L228.37 346.78L228.38 346.54L228.4 346.31L228.41 346.07L228.41 345.84L228.41 345.68L228.4 345.52L228.39 345.36L228.37 345.19L228.35 345.02L228.32 344.84L228.28 344.67L228.25 344.48L228.2 344.3L228.15 344.11L228.1 343.92L228.04 343.72L227.98 343.53L227.91 343.32L227.83 343.12L227.76 342.91L227.67 342.7L227.58 342.48L227.49 342.26L227.39 342.04L227.28 341.81L227.17 341.58L227.06 341.35L226.94 341.11L226.81 340.87L226.68 340.63L226.55 340.38L226.41 340.13L226.26 339.87L226.11 339.61L225.95 339.35L225.79 339.09L225.63 338.82L225.45 338.55L225.28 338.27L225.1 337.99L224.91 337.71L224.72 337.43L224.52 337.14L224.32 336.84L220.4 332.76L105.58 332.76L101.66 336.84ZM101.66 284.5L101.46 284.69L101.27 284.87L101.09 285.07L100.91 285.26L100.73 285.46L100.56 285.67L100.39 285.87L100.23 286.08L100.07 286.29L99.91 286.5L99.76 286.72L99.62 286.94L99.48 287.16L99.34 287.38L99.21 287.61L99.09 287.83L98.97 288.06L98.85 288.29L98.74 288.52L98.63 288.75L98.53 288.99L98.43 289.22L98.34 289.46L98.25 289.69L98.17 289.93L98.09 290.17L98.02 290.41L97.96 290.65L97.9 290.89L97.84 291.13L97.79 291.36L97.74 291.6L97.7 291.84L97.67 292.08L97.64 292.32L97.61 292.56L97.59 292.79L97.58 293.03L97.57 293.26L97.57 293.5L97.57 293.73L97.58 293.97L97.59 294.2L97.61 294.44L97.64 294.68L97.67 294.91L97.7 295.15L97.74 295.39L97.79 295.63L97.84 295.87L97.9 296.11L97.96 296.35L98.02 296.59L98.09 296.83L98.17 297.07L98.25 297.3L98.34 297.54L98.43 297.78L98.53 298.01L98.63 298.24L98.74 298.48L98.85 298.71L98.97 298.94L99.09 299.17L99.21 299.39L99.34 299.62L99.48 299.84L99.62 300.06L99.76 300.28L99.91 300.49L100.07 300.71L100.23 300.92L100.39 301.13L100.56 301.33L100.73 301.53L100.91 301.73L101.09 301.93L101.27 302.12L101.46 302.31L101.66 302.5L105.58 306.59L220.4 306.59L224.32 302.5L224.51 302.31L224.7 302.12L224.89 301.93L225.07 301.73L225.25 301.53L225.42 301.33L225.59 301.12L225.75 300.92L225.91 300.7L226.06 300.49L226.21 300.27L226.36 300.06L226.5 299.84L226.63 299.61L226.76 299.39L226.89 299.16L227.01 298.93L227.13 298.71L227.24 298.47L227.35 298.24L227.45 298.01L227.55 297.77L227.64 297.54L227.72 297.3L227.81 297.06L227.88 296.83L227.95 296.59L228.02 296.35L228.08 296.11L228.14 295.87L228.19 295.63L228.24 295.39L228.28 295.15L228.31 294.91L228.34 294.68L228.37 294.44L228.38 294.2L228.4 293.97L228.41 293.73L228.41 293.5L228.41 293.34L228.4 293.18L228.39 293.02L228.37 292.85L228.35 292.68L228.32 292.5L228.28 292.32L228.25 292.14L228.2 291.96L228.15 291.77L228.1 291.58L228.04 291.38L227.98 291.18L227.91 290.98L227.83 290.77L227.76 290.56L227.67 290.35L227.58 290.14L227.49 289.92L227.39 289.69L227.28 289.47L227.17 289.24L227.06 289L226.94 288.77L226.81 288.52L226.68 288.28L226.55 288.03L226.41 287.78L226.26 287.53L226.11 287.27L225.95 287.01L225.79 286.74L225.63 286.47L225.45 286.2L225.28 285.93L225.1 285.65L224.91 285.37L224.72 285.08L224.52 284.79L224.32 284.5L220.4 280.41L105.58 280.41L101.66 284.5ZM476.51 175.75L476.26 175.77L476 175.79L475.74 175.82L475.48 175.85L475.23 175.89L474.97 175.94L474.71 175.99L474.45 176.05L474.19 176.12L473.93 176.19L473.68 176.27L473.42 176.35L473.16 176.44L472.91 176.54L472.65 176.64L472.4 176.75L472.15 176.86L471.89 176.98L471.65 177.1L471.4 177.23L471.15 177.37L470.91 177.51L470.67 177.65L470.43 177.8L470.2 177.96L469.96 178.13L469.73 178.29L469.51 178.47L469.28 178.65L469.06 178.83L468.85 179.02L468.63 179.21L468.43 179.41L468.22 179.62L468.02 179.83L467.7 180.14L467.39 180.44L467.1 180.73L466.83 181.02L466.58 181.31L466.33 181.6L466.11 181.9L465.9 182.22L465.7 182.55L465.52 182.9L465.35 183.27L465.19 183.68L465.05 184.12L464.91 184.59L464.79 185.11L464.68 185.67L464.58 186.28L464.48 186.94L464.4 187.66L464.33 188.44L464.26 189.29L464.2 190.2L464.15 191.19L464.11 192.26L464.07 193.4L464.04 194.64L464.01 195.96L463.99 197.37L463.97 198.89L463.96 200.5L463.95 202.22L463.94 204.05L463.93 206L463.93 208.06L463.93 210.25L463.93 212.56L463.93 215L463.93 217.44L463.93 219.75L463.93 221.93L463.93 223.99L463.94 225.94L463.95 227.77L463.96 229.49L463.97 231.1L463.99 232.62L464.01 234.03L464.04 235.35L464.07 236.59L464.11 237.74L464.15 238.8L464.2 239.79L464.26 240.71L464.33 241.55L464.4 242.33L464.48 243.05L464.58 243.72L464.68 244.32L464.79 244.89L464.91 245.4L465.05 245.88L465.19 246.31L465.35 246.72L465.52 247.09L465.7 247.45L465.9 247.78L466.11 248.09L466.33 248.39L466.58 248.69L466.83 248.97L467.1 249.26L467.39 249.55L467.7 249.85L468.02 250.16L468.22 250.37L468.43 250.58L468.64 250.78L468.85 250.97L469.07 251.16L469.29 251.34L469.51 251.52L469.74 251.7L469.97 251.87L470.2 252.03L470.44 252.19L470.67 252.34L470.91 252.48L471.16 252.62L471.4 252.76L471.65 252.89L471.9 253.01L472.15 253.13L472.4 253.25L472.65 253.35L472.91 253.45L473.16 253.55L473.42 253.64L473.68 253.72L473.93 253.8L474.19 253.87L474.45 253.94L474.71 254L474.97 254.05L475.23 254.1L475.48 254.14L475.74 254.17L476 254.2L476.26 254.22L476.51 254.24L476.76 254.25L477.02 254.25L477.27 254.25L477.52 254.24L477.78 254.22L478.04 254.2L478.29 254.17L478.55 254.14L478.81 254.1L479.07 254.05L479.33 254L479.59 253.94L479.84 253.87L480.1 253.8L480.36 253.72L480.62 253.64L480.87 253.55L481.13 253.45L481.38 253.35L481.64 253.25L481.89 253.13L482.14 253.01L482.39 252.89L482.64 252.76L482.88 252.62L483.12 252.48L483.36 252.34L483.6 252.19L483.84 252.03L484.07 251.87L484.3 251.7L484.53 251.52L484.75 251.34L484.97 251.16L485.19 250.97L485.4 250.78L485.61 250.58L485.82 250.37L486.02 250.16L486.34 249.85L486.64 249.55L486.93 249.26L487.2 248.97L487.46 248.68L487.7 248.39L487.93 248.09L488.14 247.77L488.33 247.44L488.52 247.09L488.69 246.72L488.84 246.31L488.99 245.87L489.12 245.4L489.25 244.88L489.36 244.32L489.46 243.71L489.55 243.05L489.63 242.33L489.71 241.55L489.77 240.7L489.83 239.79L489.88 238.8L489.93 237.73L489.97 236.59L490 235.35L490.02 234.03L490.05 232.62L490.06 231.1L490.08 229.49L490.09 227.77L490.1 225.94L490.1 223.99L490.1 221.93L490.1 219.75L490.11 217.44L490.11 215L490.11 212.55L490.1 210.24L490.1 208.06L490.1 206L490.1 204.05L490.09 202.22L490.08 200.5L490.06 198.88L490.05 197.37L490.02 195.96L490 194.63L489.97 193.4L489.93 192.25L489.88 191.19L489.83 190.2L489.77 189.28L489.71 188.44L489.63 187.66L489.55 186.94L489.46 186.27L489.36 185.66L489.25 185.1L489.12 184.59L488.99 184.11L488.84 183.68L488.69 183.27L488.52 182.89L488.33 182.54L488.14 182.21L487.93 181.9L487.7 181.6L487.46 181.31L487.2 181.02L486.93 180.73L486.64 180.44L486.34 180.14L486.02 179.83L485.81 179.62L485.61 179.41L485.4 179.21L485.19 179.02L484.97 178.83L484.75 178.65L484.53 178.47L484.3 178.29L484.07 178.13L483.84 177.96L483.6 177.8L483.36 177.65L483.12 177.51L482.88 177.37L482.63 177.23L482.39 177.1L482.14 176.98L481.89 176.86L481.64 176.75L481.38 176.64L481.13 176.54L480.87 176.44L480.62 176.35L480.36 176.27L480.1 176.19L479.84 176.12L479.58 176.05L479.33 175.99L479.07 175.94L478.81 175.89L478.55 175.85L478.29 175.82L478.04 175.79L477.78 175.77L477.52 175.75L477.27 175.74L477.02 175.74L476.76 175.74L476.51 175.75ZM424.17 175.75L423.92 175.77L423.66 175.79L423.4 175.82L423.15 175.85L422.89 175.89L422.63 175.94L422.37 175.99L422.11 176.05L421.85 176.12L421.59 176.19L421.34 176.27L421.08 176.35L420.82 176.44L420.57 176.54L420.31 176.64L420.06 176.75L419.81 176.86L419.56 176.98L419.31 177.1L419.06 177.23L418.81 177.37L418.57 177.51L418.33 177.65L418.09 177.8L417.86 177.96L417.62 178.13L417.39 178.29L417.17 178.47L416.94 178.65L416.72 178.83L416.51 179.02L416.29 179.21L416.09 179.41L415.88 179.62L415.68 179.83L415.36 180.14L415.05 180.44L414.76 180.73L414.49 181.02L414.24 181.31L414 181.6L413.77 181.9L413.56 182.22L413.36 182.55L413.18 182.9L413.01 183.27L412.85 183.68L412.71 184.12L412.57 184.59L412.45 185.11L412.34 185.67L412.24 186.28L412.14 186.94L412.06 187.66L411.99 188.44L411.92 189.29L411.86 190.2L411.81 191.19L411.77 192.26L411.73 193.4L411.7 194.64L411.67 195.96L411.65 197.37L411.63 198.89L411.62 200.5L411.61 202.22L411.6 204.05L411.6 206L411.59 208.06L411.59 210.25L411.59 212.56L411.59 215L411.59 217.44L411.59 219.75L411.59 221.93L411.6 223.99L411.6 225.94L411.61 227.77L411.62 229.49L411.63 231.1L411.65 232.62L411.67 234.03L411.7 235.35L411.73 236.59L411.77 237.74L411.81 238.8L411.86 239.79L411.92 240.71L411.99 241.55L412.06 242.33L412.14 243.05L412.24 243.72L412.34 244.32L412.45 244.89L412.57 245.4L412.71 245.88L412.85 246.31L413.01 246.72L413.18 247.09L413.36 247.45L413.56 247.78L413.77 248.09L414 248.39L414.24 248.69L414.49 248.97L414.76 249.26L415.05 249.55L415.36 249.85L415.68 250.16L415.88 250.37L416.09 250.58L416.3 250.78L416.51 250.97L416.73 251.16L416.95 251.34L417.17 251.52L417.4 251.7L417.63 251.87L417.86 252.03L418.1 252.19L418.33 252.34L418.57 252.48L418.82 252.62L419.06 252.76L419.31 252.89L419.56 253.01L419.81 253.13L420.06 253.25L420.31 253.35L420.57 253.45L420.82 253.55L421.08 253.64L421.34 253.72L421.6 253.8L421.85 253.87L422.11 253.94L422.37 254L422.63 254.05L422.89 254.1L423.15 254.14L423.4 254.17L423.66 254.2L423.92 254.22L424.17 254.24L424.43 254.25L424.68 254.25L424.93 254.25L425.19 254.24L425.44 254.22L425.7 254.2L425.95 254.17L426.21 254.14L426.47 254.1L426.73 254.05L426.99 254L427.25 253.94L427.5 253.87L427.76 253.8L428.02 253.72L428.28 253.64L428.53 253.55L428.79 253.45L429.05 253.35L429.3 253.25L429.55 253.13L429.8 253.01L430.05 252.89L430.3 252.76L430.54 252.62L430.78 252.48L431.03 252.34L431.26 252.19L431.5 252.03L431.73 251.87L431.96 251.7L432.19 251.52L432.41 251.34L432.63 251.16L432.85 250.97L433.06 250.78L433.27 250.58L433.48 250.37L433.68 250.16L434 249.85L434.3 249.55L434.59 249.26L434.86 248.97L435.12 248.68L435.36 248.39L435.59 248.09L435.8 247.77L435.99 247.44L436.18 247.09L436.35 246.72L436.5 246.31L436.65 245.87L436.78 245.4L436.91 244.88L437.02 244.32L437.12 243.71L437.21 243.05L437.3 242.33L437.37 241.55L437.44 240.7L437.49 239.79L437.54 238.8L437.59 237.73L437.63 236.59L437.66 235.35L437.69 234.03L437.71 232.62L437.73 231.1L437.74 229.49L437.75 227.77L437.76 225.94L437.76 223.99L437.76 221.93L437.77 219.75L437.77 217.44L437.77 215L437.77 212.55L437.77 210.24L437.76 208.06L437.76 206L437.76 204.05L437.75 202.22L437.74 200.5L437.73 198.88L437.71 197.37L437.69 195.96L437.66 194.63L437.63 193.4L437.59 192.25L437.54 191.19L437.49 190.2L437.44 189.28L437.37 188.44L437.3 187.66L437.21 186.94L437.12 186.27L437.02 185.66L436.91 185.1L436.78 184.59L436.65 184.11L436.5 183.68L436.35 183.27L436.18 182.89L435.99 182.54L435.8 182.21L435.59 181.9L435.36 181.6L435.12 181.31L434.86 181.02L434.59 180.73L434.3 180.44L434 180.14L433.68 179.83L433.48 179.62L433.27 179.41L433.06 179.21L432.85 179.02L432.63 178.83L432.41 178.65L432.19 178.47L431.96 178.29L431.73 178.13L431.5 177.96L431.26 177.8L431.02 177.65L430.78 177.51L430.54 177.37L430.29 177.23L430.05 177.1L429.8 176.98L429.55 176.86L429.3 176.75L429.04 176.64L428.79 176.54L428.53 176.44L428.28 176.35L428.02 176.27L427.76 176.19L427.5 176.12L427.24 176.05L426.99 175.99L426.73 175.94L426.47 175.89L426.21 175.85L425.95 175.82L425.7 175.79L425.44 175.77L425.19 175.75L424.93 175.74L424.68 175.74L424.43 175.74L424.17 175.75ZM528.84 175.75L528.59 175.77L528.33 175.79L528.07 175.82L527.82 175.85L527.56 175.89L527.3 175.94L527.04 175.99L526.78 176.05L526.52 176.12L526.27 176.19L526.01 176.27L525.75 176.35L525.49 176.44L525.24 176.54L524.98 176.64L524.73 176.75L524.48 176.86L524.23 176.98L523.98 177.1L523.73 177.23L523.49 177.37L523.24 177.51L523 177.65L522.77 177.8L522.53 177.96L522.3 178.13L522.07 178.29L521.84 178.47L521.62 178.65L521.4 178.83L521.18 179.02L520.97 179.21L520.76 179.41L520.55 179.62L520.35 179.83L520.03 180.14L519.72 180.44L519.44 180.73L519.16 181.02L518.91 181.31L518.67 181.6L518.44 181.9L518.23 182.22L518.03 182.55L517.85 182.9L517.68 183.27L517.52 183.68L517.38 184.12L517.24 184.59L517.12 185.11L517.01 185.67L516.91 186.28L516.82 186.94L516.73 187.66L516.66 188.44L516.59 189.29L516.53 190.2L516.48 191.19L516.44 192.26L516.4 193.4L516.37 194.64L516.34 195.96L516.32 197.37L516.3 198.89L516.29 200.5L516.28 202.22L516.27 204.05L516.27 206L516.26 208.06L516.26 210.25L516.26 212.56L516.26 215L516.26 217.44L516.26 219.75L516.26 221.93L516.27 223.99L516.27 225.94L516.28 227.77L516.29 229.49L516.3 231.1L516.32 232.62L516.34 234.03L516.37 235.35L516.4 236.59L516.44 237.74L516.48 238.8L516.53 239.79L516.59 240.71L516.66 241.55L516.73 242.33L516.82 243.05L516.91 243.72L517.01 244.32L517.12 244.89L517.24 245.4L517.38 245.88L517.52 246.31L517.68 246.72L517.85 247.09L518.03 247.45L518.23 247.78L518.44 248.09L518.67 248.39L518.91 248.69L519.16 248.97L519.44 249.26L519.72 249.55L520.03 249.85L520.35 250.16L520.55 250.37L520.76 250.58L520.97 250.78L521.18 250.97L521.4 251.16L521.62 251.34L521.84 251.52L522.07 251.7L522.3 251.87L522.53 252.03L522.77 252.19L523.01 252.34L523.25 252.48L523.49 252.62L523.73 252.76L523.98 252.89L524.23 253.01L524.48 253.13L524.73 253.25L524.99 253.35L525.24 253.45L525.5 253.55L525.75 253.64L526.01 253.72L526.27 253.8L526.53 253.87L526.78 253.94L527.04 254L527.3 254.05L527.56 254.1L527.82 254.14L528.08 254.17L528.33 254.2L528.59 254.22L528.84 254.24L529.1 254.25L529.35 254.25L529.6 254.25L529.86 254.24L530.11 254.22L530.37 254.2L530.63 254.17L530.88 254.14L531.14 254.1L531.4 254.05L531.66 254L531.92 253.94L532.18 253.87L532.43 253.8L532.69 253.72L532.95 253.64L533.21 253.55L533.46 253.45L533.72 253.35L533.97 253.25L534.22 253.13L534.47 253.01L534.72 252.89L534.97 252.76L535.21 252.62L535.46 252.48L535.7 252.34L535.94 252.19L536.17 252.03L536.4 251.87L536.63 251.7L536.86 251.52L537.08 251.34L537.3 251.16L537.52 250.97L537.73 250.78L537.94 250.58L538.15 250.37L538.35 250.16L538.67 249.85L538.98 249.55L539.27 249.26L539.54 248.97L539.79 248.68L540.03 248.39L540.26 248.09L540.47 247.77L540.67 247.44L540.85 247.09L541.02 246.72L541.18 246.31L541.32 245.87L541.46 245.4L541.58 244.88L541.69 244.32L541.79 243.71L541.88 243.05L541.97 242.33L542.04 241.55L542.11 240.7L542.17 239.79L542.22 238.8L542.26 237.73L542.3 236.59L542.33 235.35L542.36 234.03L542.38 232.62L542.4 231.1L542.41 229.49L542.42 227.77L542.43 225.94L542.43 223.99L542.44 221.93L542.44 219.75L542.44 217.44L542.44 215L542.44 212.55L542.44 210.24L542.44 208.06L542.43 206L542.43 204.05L542.42 202.22L542.41 200.5L542.4 198.88L542.38 197.37L542.36 195.96L542.33 194.63L542.3 193.4L542.26 192.25L542.22 191.19L542.17 190.2L542.11 189.28L542.04 188.44L541.97 187.66L541.88 186.94L541.79 186.27L541.69 185.66L541.58 185.1L541.46 184.59L541.32 184.11L541.18 183.68L541.02 183.27L540.85 182.89L540.67 182.54L540.47 182.21L540.26 181.9L540.03 181.6L539.79 181.31L539.54 181.02L539.27 180.73L538.98 180.44L538.67 180.14L538.35 179.83L538.15 179.62L537.94 179.41L537.73 179.21L537.52 179.02L537.3 178.83L537.08 178.65L536.86 178.47L536.63 178.29L536.4 178.13L536.17 177.96L535.94 177.8L535.7 177.65L535.46 177.51L535.21 177.37L534.97 177.23L534.72 177.1L534.47 176.98L534.22 176.86L533.97 176.75L533.72 176.64L533.46 176.54L533.21 176.44L532.95 176.35L532.69 176.27L532.43 176.19L532.18 176.12L531.92 176.05L531.66 175.99L531.4 175.94L531.14 175.89L530.88 175.85L530.63 175.82L530.37 175.79L530.11 175.77L529.86 175.75L529.6 175.74L529.35 175.74L529.1 175.74L528.84 175.75ZM101.66 232.16L101.46 232.35L101.27 232.54L101.09 232.73L100.91 232.93L100.73 233.12L100.56 233.33L100.39 233.53L100.23 233.74L100.07 233.95L99.91 234.17L99.76 234.38L99.62 234.6L99.48 234.82L99.34 235.04L99.21 235.27L99.09 235.5L98.97 235.72L98.85 235.95L98.74 236.18L98.63 236.42L98.53 236.65L98.43 236.89L98.34 237.12L98.25 237.36L98.17 237.6L98.09 237.83L98.02 238.07L97.96 238.31L97.9 238.55L97.84 238.79L97.79 239.03L97.74 239.27L97.7 239.51L97.67 239.74L97.64 239.98L97.61 240.22L97.59 240.45L97.58 240.69L97.57 240.92L97.57 241.16L97.57 241.39L97.58 241.63L97.59 241.86L97.61 242.1L97.64 242.34L97.67 242.58L97.7 242.81L97.74 243.05L97.79 243.29L97.84 243.53L97.9 243.77L97.96 244.01L98.02 244.25L98.09 244.49L98.17 244.73L98.25 244.96L98.34 245.2L98.43 245.44L98.53 245.67L98.63 245.9L98.74 246.14L98.85 246.37L98.97 246.6L99.09 246.83L99.21 247.05L99.34 247.28L99.48 247.5L99.62 247.72L99.76 247.94L99.91 248.15L100.07 248.37L100.23 248.58L100.39 248.79L100.56 248.99L100.73 249.19L100.91 249.39L101.09 249.59L101.27 249.78L101.46 249.97L101.66 250.16L105.58 254.25L220.4 254.25L224.32 250.16L224.51 249.97L224.7 249.78L224.89 249.59L225.07 249.39L225.25 249.19L225.42 248.99L225.59 248.78L225.75 248.58L225.91 248.36L226.06 248.15L226.21 247.94L226.36 247.72L226.5 247.5L226.63 247.27L226.76 247.05L226.89 246.82L227.01 246.6L227.13 246.37L227.24 246.13L227.35 245.9L227.45 245.67L227.55 245.43L227.64 245.2L227.72 244.96L227.81 244.72L227.88 244.49L227.95 244.25L228.02 244.01L228.08 243.77L228.14 243.53L228.19 243.29L228.24 243.05L228.28 242.81L228.31 242.58L228.34 242.34L228.37 242.1L228.38 241.86L228.4 241.63L228.41 241.39L228.41 241.16L228.41 241L228.4 240.84L228.39 240.68L228.37 240.51L228.35 240.34L228.32 240.16L228.28 239.98L228.25 239.8L228.2 239.62L228.15 239.43L228.1 239.24L228.04 239.04L227.98 238.84L227.91 238.64L227.83 238.44L227.76 238.23L227.67 238.01L227.58 237.8L227.49 237.58L227.39 237.35L227.28 237.13L227.17 236.9L227.06 236.66L226.94 236.43L226.81 236.19L226.68 235.94L226.55 235.69L226.41 235.44L226.26 235.19L226.11 234.93L225.95 234.67L225.79 234.4L225.63 234.14L225.45 233.86L225.28 233.59L225.1 233.31L224.91 233.03L224.72 232.74L224.52 232.45L224.32 232.16L220.4 228.07L105.58 228.07L101.66 232.16ZM101.66 179.83L101.46 180.01L101.27 180.2L101.09 180.4L100.91 180.59L100.73 180.79L100.56 180.99L100.39 181.2L100.23 181.41L100.07 181.62L99.91 181.83L99.76 182.05L99.62 182.27L99.48 182.49L99.34 182.71L99.21 182.93L99.09 183.16L98.97 183.39L98.85 183.62L98.74 183.85L98.63 184.08L98.53 184.32L98.43 184.55L98.34 184.79L98.25 185.02L98.17 185.26L98.09 185.5L98.02 185.74L97.96 185.97L97.9 186.21L97.84 186.45L97.79 186.69L97.74 186.93L97.7 187.17L97.67 187.41L97.64 187.65L97.61 187.88L97.59 188.12L97.58 188.36L97.57 188.59L97.57 188.83L97.57 189.06L97.58 189.29L97.59 189.53L97.61 189.77L97.64 190L97.67 190.24L97.7 190.48L97.74 190.72L97.79 190.96L97.84 191.2L97.9 191.44L97.96 191.68L98.02 191.92L98.09 192.16L98.17 192.39L98.25 192.63L98.34 192.87L98.43 193.1L98.53 193.34L98.63 193.57L98.74 193.8L98.85 194.04L98.97 194.27L99.09 194.49L99.21 194.72L99.34 194.94L99.48 195.17L99.62 195.39L99.76 195.61L99.91 195.82L100.07 196.03L100.23 196.25L100.39 196.45L100.56 196.66L100.73 196.86L100.91 197.06L101.09 197.26L101.27 197.45L101.46 197.64L101.66 197.82L105.58 201.91L220.4 201.91L224.32 197.82L224.51 197.64L224.7 197.45L224.89 197.26L225.07 197.06L225.25 196.86L225.42 196.66L225.59 196.45L225.75 196.24L225.91 196.03L226.06 195.82L226.21 195.6L226.36 195.38L226.5 195.16L226.63 194.94L226.76 194.72L226.89 194.49L227.01 194.26L227.13 194.03L227.24 193.8L227.35 193.57L227.45 193.34L227.55 193.1L227.64 192.87L227.72 192.63L227.81 192.39L227.88 192.15L227.95 191.92L228.02 191.68L228.08 191.44L228.14 191.2L228.19 190.96L228.24 190.72L228.28 190.48L228.31 190.24L228.34 190L228.37 189.77L228.38 189.53L228.4 189.29L228.41 189.06L228.41 188.83L228.41 188.67L228.4 188.51L228.39 188.34L228.37 188.18L228.35 188L228.32 187.83L228.28 187.65L228.25 187.47L228.2 187.29L228.15 187.1L228.1 186.9L228.04 186.71L227.98 186.51L227.91 186.31L227.83 186.1L227.76 185.89L227.67 185.68L227.58 185.46L227.49 185.24L227.39 185.02L227.28 184.79L227.17 184.56L227.06 184.33L226.94 184.09L226.81 183.85L226.68 183.61L226.55 183.36L226.41 183.11L226.26 182.86L226.11 182.6L225.95 182.34L225.79 182.07L225.63 181.8L225.45 181.53L225.28 181.26L225.1 180.98L224.91 180.69L224.72 180.41L224.52 180.12L224.32 179.83L220.4 175.74L105.58 175.74L101.66 179.83ZM476.51 71.07L476.26 71.09L476 71.11L475.74 71.14L475.48 71.17L475.23 71.22L474.97 71.26L474.71 71.32L474.45 71.38L474.19 71.44L473.93 71.51L473.68 71.59L473.42 71.67L473.16 71.76L472.91 71.86L472.65 71.96L472.4 72.07L472.15 72.18L471.89 72.3L471.65 72.42L471.4 72.55L471.15 72.69L470.91 72.83L470.67 72.97L470.43 73.13L470.2 73.28L469.96 73.45L469.73 73.61L469.51 73.79L469.28 73.97L469.06 74.15L468.85 74.34L468.63 74.53L468.43 74.73L468.22 74.94L468.02 75.15L467.7 75.46L467.39 75.76L467.1 76.05L466.83 76.34L466.58 76.63L466.33 76.92L466.11 77.22L465.9 77.54L465.7 77.87L465.52 78.22L465.35 78.6L465.19 79L465.05 79.44L464.91 79.91L464.79 80.43L464.68 80.99L464.58 81.6L464.48 82.26L464.4 82.98L464.33 83.76L464.26 84.61L464.2 85.52L464.15 86.51L464.11 87.58L464.07 88.73L464.04 89.96L464.01 91.28L463.99 92.7L463.97 94.21L463.96 95.82L463.95 97.55L463.94 99.38L463.93 101.32L463.93 103.38L463.93 105.57L463.93 107.88L463.93 110.32L463.93 112.76L463.93 115.07L463.93 117.25L463.93 119.31L463.94 121.26L463.95 123.09L463.96 124.81L463.97 126.42L463.99 127.94L464.01 129.35L464.04 130.68L464.07 131.91L464.11 133.06L464.15 134.12L464.2 135.11L464.26 136.03L464.33 136.87L464.4 137.65L464.48 138.37L464.58 139.04L464.68 139.65L464.79 140.21L464.91 140.72L465.05 141.2L465.19 141.63L465.35 142.04L465.52 142.42L465.7 142.77L465.9 143.1L466.11 143.41L466.33 143.71L466.58 144.01L466.83 144.3L467.1 144.58L467.39 144.87L467.7 145.17L468.02 145.48L468.22 145.69L468.43 145.9L468.64 146.1L468.85 146.29L469.07 146.48L469.29 146.67L469.51 146.85L469.74 147.02L469.97 147.19L470.2 147.35L470.44 147.51L470.67 147.66L470.91 147.81L471.16 147.95L471.4 148.08L471.65 148.21L471.9 148.34L472.15 148.45L472.4 148.57L472.65 148.67L472.91 148.78L473.16 148.87L473.42 148.96L473.68 149.04L473.93 149.12L474.19 149.19L474.45 149.26L474.71 149.32L474.97 149.37L475.23 149.42L475.48 149.46L475.74 149.49L476 149.52L476.26 149.55L476.51 149.56L476.76 149.57L477.02 149.57L477.27 149.57L477.52 149.56L477.78 149.55L478.04 149.52L478.29 149.49L478.55 149.46L478.81 149.42L479.07 149.37L479.33 149.32L479.59 149.26L479.84 149.19L480.1 149.12L480.36 149.04L480.62 148.96L480.87 148.87L481.13 148.78L481.38 148.67L481.64 148.57L481.89 148.45L482.14 148.34L482.39 148.21L482.64 148.08L482.88 147.95L483.12 147.81L483.36 147.66L483.6 147.51L483.84 147.35L484.07 147.19L484.3 147.02L484.53 146.85L484.75 146.67L484.97 146.48L485.19 146.29L485.4 146.1L485.61 145.9L485.82 145.69L486.02 145.48L486.34 145.17L486.64 144.87L486.93 144.58L487.2 144.29L487.46 144L487.7 143.71L487.93 143.41L488.14 143.1L488.33 142.76L488.52 142.41L488.69 142.04L488.84 141.63L488.99 141.19L489.12 140.72L489.25 140.2L489.36 139.64L489.46 139.03L489.55 138.37L489.63 137.65L489.71 136.87L489.77 136.03L489.83 135.11L489.88 134.12L489.93 133.06L489.97 131.91L490 130.68L490.02 129.35L490.05 127.94L490.06 126.42L490.08 124.81L490.09 123.09L490.1 121.26L490.1 119.31L490.1 117.25L490.1 115.07L490.11 112.76L490.11 110.32L490.11 107.88L490.1 105.57L490.1 103.38L490.1 101.32L490.1 99.37L490.09 97.54L490.08 95.82L490.06 94.21L490.05 92.69L490.02 91.28L490 89.95L489.97 88.72L489.93 87.57L489.88 86.51L489.83 85.52L489.77 84.6L489.71 83.76L489.63 82.98L489.55 82.26L489.46 81.59L489.36 80.99L489.25 80.42L489.12 79.91L488.99 79.43L488.84 79L488.69 78.59L488.52 78.22L488.33 77.87L488.14 77.53L487.93 77.22L487.7 76.92L487.46 76.63L487.2 76.34L486.93 76.05L486.64 75.76L486.34 75.46L486.02 75.15L485.81 74.94L485.61 74.73L485.4 74.53L485.19 74.34L484.97 74.15L484.75 73.97L484.53 73.79L484.3 73.61L484.07 73.45L483.84 73.28L483.6 73.13L483.36 72.97L483.12 72.83L482.88 72.69L482.63 72.55L482.39 72.42L482.14 72.3L481.89 72.18L481.64 72.07L481.38 71.96L481.13 71.86L480.87 71.76L480.62 71.67L480.36 71.59L480.1 71.51L479.84 71.44L479.58 71.38L479.33 71.32L479.07 71.26L478.81 71.22L478.55 71.17L478.29 71.14L478.04 71.11L477.78 71.09L477.52 71.07L477.27 71.06L477.02 71.06L476.76 71.06L476.51 71.07ZM424.17 71.07L423.92 71.09L423.66 71.11L423.4 71.14L423.15 71.17L422.89 71.22L422.63 71.26L422.37 71.32L422.11 71.38L421.85 71.44L421.59 71.51L421.34 71.59L421.08 71.67L420.82 71.76L420.57 71.86L420.31 71.96L420.06 72.07L419.81 72.18L419.56 72.3L419.31 72.42L419.06 72.55L418.81 72.69L418.57 72.83L418.33 72.97L418.09 73.13L417.86 73.28L417.62 73.45L417.39 73.61L417.17 73.79L416.94 73.97L416.72 74.15L416.51 74.34L416.29 74.53L416.09 74.73L415.88 74.94L415.68 75.15L415.36 75.46L415.05 75.76L414.76 76.05L414.49 76.34L414.24 76.63L414 76.92L413.77 77.22L413.56 77.54L413.36 77.87L413.18 78.22L413.01 78.6L412.85 79L412.71 79.44L412.57 79.91L412.45 80.43L412.34 80.99L412.24 81.6L412.14 82.26L412.06 82.98L411.99 83.76L411.92 84.61L411.86 85.52L411.81 86.51L411.77 87.58L411.73 88.73L411.7 89.96L411.67 91.28L411.65 92.7L411.63 94.21L411.62 95.82L411.61 97.55L411.6 99.38L411.6 101.32L411.59 103.38L411.59 105.57L411.59 107.88L411.59 110.32L411.59 112.76L411.59 115.07L411.59 117.25L411.6 119.31L411.6 121.26L411.61 123.09L411.62 124.81L411.63 126.42L411.65 127.94L411.67 129.35L411.7 130.68L411.73 131.91L411.77 133.06L411.81 134.12L411.86 135.11L411.92 136.03L411.99 136.87L412.06 137.65L412.14 138.37L412.24 139.04L412.34 139.65L412.45 140.21L412.57 140.72L412.71 141.2L412.85 141.63L413.01 142.04L413.18 142.42L413.36 142.77L413.56 143.1L413.77 143.41L414 143.71L414.24 144.01L414.49 144.3L414.76 144.58L415.05 144.87L415.36 145.17L415.68 145.48L415.88 145.69L416.09 145.9L416.3 146.1L416.51 146.29L416.73 146.48L416.95 146.67L417.17 146.85L417.4 147.02L417.63 147.19L417.86 147.35L418.1 147.51L418.33 147.66L418.57 147.81L418.82 147.95L419.06 148.08L419.31 148.21L419.56 148.34L419.81 148.45L420.06 148.57L420.31 148.67L420.57 148.78L420.82 148.87L421.08 148.96L421.34 149.04L421.6 149.12L421.85 149.19L422.11 149.26L422.37 149.32L422.63 149.37L422.89 149.42L423.15 149.46L423.4 149.49L423.66 149.52L423.92 149.55L424.17 149.56L424.43 149.57L424.68 149.57L424.93 149.57L425.19 149.56L425.44 149.55L425.7 149.52L425.95 149.49L426.21 149.46L426.47 149.42L426.73 149.37L426.99 149.32L427.25 149.26L427.5 149.19L427.76 149.12L428.02 149.04L428.28 148.96L428.53 148.87L428.79 148.78L429.05 148.67L429.3 148.57L429.55 148.45L429.8 148.34L430.05 148.21L430.3 148.08L430.54 147.95L430.78 147.81L431.03 147.66L431.26 147.51L431.5 147.35L431.73 147.19L431.96 147.02L432.19 146.85L432.41 146.67L432.63 146.48L432.85 146.29L433.06 146.1L433.27 145.9L433.48 145.69L433.68 145.48L434 145.17L434.3 144.87L434.59 144.58L434.86 144.29L435.12 144L435.36 143.71L435.59 143.41L435.8 143.1L435.99 142.76L436.18 142.41L436.35 142.04L436.5 141.63L436.65 141.19L436.78 140.72L436.91 140.2L437.02 139.64L437.12 139.03L437.21 138.37L437.3 137.65L437.37 136.87L437.44 136.03L437.49 135.11L437.54 134.12L437.59 133.06L437.63 131.91L437.66 130.68L437.69 129.35L437.71 127.94L437.73 126.42L437.74 124.81L437.75 123.09L437.76 121.26L437.76 119.31L437.76 117.25L437.77 115.07L437.77 112.76L437.77 110.32L437.77 107.88L437.77 105.57L437.76 103.38L437.76 101.32L437.76 99.37L437.75 97.54L437.74 95.82L437.73 94.21L437.71 92.69L437.69 91.28L437.66 89.95L437.63 88.72L437.59 87.57L437.54 86.51L437.49 85.52L437.44 84.6L437.37 83.76L437.3 82.98L437.21 82.26L437.12 81.59L437.02 80.99L436.91 80.42L436.78 79.91L436.65 79.43L436.5 79L436.35 78.59L436.18 78.22L435.99 77.87L435.8 77.53L435.59 77.22L435.36 76.92L435.12 76.63L434.86 76.34L434.59 76.05L434.3 75.76L434 75.46L433.68 75.15L433.48 74.94L433.27 74.73L433.06 74.53L432.85 74.34L432.63 74.15L432.41 73.97L432.19 73.79L431.96 73.61L431.73 73.45L431.5 73.28L431.26 73.13L431.02 72.97L430.78 72.83L430.54 72.69L430.29 72.55L430.05 72.42L429.8 72.3L429.55 72.18L429.3 72.07L429.04 71.96L428.79 71.86L428.53 71.76L428.28 71.67L428.02 71.59L427.76 71.51L427.5 71.44L427.24 71.38L426.99 71.32L426.73 71.26L426.47 71.22L426.21 71.17L425.95 71.14L425.7 71.11L425.44 71.09L425.19 71.07L424.93 71.06L424.68 71.06L424.43 71.06L424.17 71.07ZM528.84 71.07L528.59 71.09L528.33 71.11L528.07 71.14L527.82 71.17L527.56 71.22L527.3 71.26L527.04 71.32L526.78 71.38L526.52 71.44L526.27 71.51L526.01 71.59L525.75 71.67L525.49 71.76L525.24 71.86L524.98 71.96L524.73 72.07L524.48 72.18L524.23 72.3L523.98 72.42L523.73 72.55L523.49 72.69L523.24 72.83L523 72.97L522.77 73.13L522.53 73.28L522.3 73.45L522.07 73.61L521.84 73.79L521.62 73.97L521.4 74.15L521.18 74.34L520.97 74.53L520.76 74.73L520.55 74.94L520.35 75.15L520.03 75.46L519.72 75.76L519.44 76.05L519.16 76.34L518.91 76.63L518.67 76.92L518.44 77.22L518.23 77.54L518.03 77.87L517.85 78.22L517.68 78.6L517.52 79L517.38 79.44L517.24 79.91L517.12 80.43L517.01 80.99L516.91 81.6L516.82 82.26L516.73 82.98L516.66 83.76L516.59 84.61L516.53 85.52L516.48 86.51L516.44 87.58L516.4 88.73L516.37 89.96L516.34 91.28L516.32 92.7L516.3 94.21L516.29 95.82L516.28 97.55L516.27 99.38L516.27 101.32L516.26 103.38L516.26 105.57L516.26 107.88L516.26 110.32L516.26 112.76L516.26 115.07L516.26 117.25L516.27 119.31L516.27 121.26L516.28 123.09L516.29 124.81L516.3 126.42L516.32 127.94L516.34 129.35L516.37 130.68L516.4 131.91L516.44 133.06L516.48 134.12L516.53 135.11L516.59 136.03L516.66 136.87L516.73 137.65L516.82 138.37L516.91 139.04L517.01 139.65L517.12 140.21L517.24 140.72L517.38 141.2L517.52 141.63L517.68 142.04L517.85 142.42L518.03 142.77L518.23 143.1L518.44 143.41L518.67 143.71L518.91 144.01L519.16 144.3L519.44 144.58L519.72 144.87L520.03 145.17L520.35 145.48L520.55 145.69L520.76 145.9L520.97 146.1L521.18 146.29L521.4 146.48L521.62 146.67L521.84 146.85L522.07 147.02L522.3 147.19L522.53 147.35L522.77 147.51L523.01 147.66L523.25 147.81L523.49 147.95L523.73 148.08L523.98 148.21L524.23 148.34L524.48 148.45L524.73 148.57L524.99 148.67L525.24 148.78L525.5 148.87L525.75 148.96L526.01 149.04L526.27 149.12L526.53 149.19L526.78 149.26L527.04 149.32L527.3 149.37L527.56 149.42L527.82 149.46L528.08 149.49L528.33 149.52L528.59 149.55L528.84 149.56L529.1 149.57L529.35 149.57L529.6 149.57L529.86 149.56L530.11 149.55L530.37 149.52L530.63 149.49L530.88 149.46L531.14 149.42L531.4 149.37L531.66 149.32L531.92 149.26L532.18 149.19L532.43 149.12L532.69 149.04L532.95 148.96L533.21 148.87L533.46 148.78L533.72 148.67L533.97 148.57L534.22 148.45L534.47 148.34L534.72 148.21L534.97 148.08L535.21 147.95L535.46 147.81L535.7 147.66L535.94 147.51L536.17 147.35L536.4 147.19L536.63 147.02L536.86 146.85L537.08 146.67L537.3 146.48L537.52 146.29L537.73 146.1L537.94 145.9L538.15 145.69L538.35 145.48L538.67 145.17L538.98 144.87L539.27 144.58L539.54 144.29L539.79 144L540.03 143.71L540.26 143.41L540.47 143.1L540.67 142.76L540.85 142.41L541.02 142.04L541.18 141.63L541.32 141.19L541.46 140.72L541.58 140.2L541.69 139.64L541.79 139.03L541.88 138.37L541.97 137.65L542.04 136.87L542.11 136.03L542.17 135.11L542.22 134.12L542.26 133.06L542.3 131.91L542.33 130.68L542.36 129.35L542.38 127.94L542.4 126.42L542.41 124.81L542.42 123.09L542.43 121.26L542.43 119.31L542.44 117.25L542.44 115.07L542.44 112.76L542.44 110.32L542.44 107.88L542.44 105.57L542.44 103.38L542.43 101.32L542.43 99.37L542.42 97.54L542.41 95.82L542.4 94.21L542.38 92.69L542.36 91.28L542.33 89.95L542.3 88.72L542.26 87.57L542.22 86.51L542.17 85.52L542.11 84.6L542.04 83.76L541.97 82.98L541.88 82.26L541.79 81.59L541.69 80.99L541.58 80.42L541.46 79.91L541.32 79.43L541.18 79L541.02 78.59L540.85 78.22L540.67 77.87L540.47 77.53L540.26 77.22L540.03 76.92L539.79 76.63L539.54 76.34L539.27 76.05L538.98 75.76L538.67 75.46L538.35 75.15L538.15 74.94L537.94 74.73L537.73 74.53L537.52 74.34L537.3 74.15L537.08 73.97L536.86 73.79L536.63 73.61L536.4 73.45L536.17 73.28L535.94 73.13L535.7 72.97L535.46 72.83L535.21 72.69L534.97 72.55L534.72 72.42L534.47 72.3L534.22 72.18L533.97 72.07L533.72 71.96L533.46 71.86L533.21 71.76L532.95 71.67L532.69 71.59L532.43 71.51L532.18 71.44L531.92 71.38L531.66 71.32L531.4 71.26L531.14 71.22L530.88 71.17L530.63 71.14L530.37 71.11L530.11 71.09L529.86 71.07L529.6 71.06L529.35 71.06L529.1 71.06L528.84 71.07Z" id="b1y3riDRhP"></path></defs><g><g><g><use xlink:href="#b1y3riDRhP" opacity="1" fill="#fffcfc" fill-opacity="1"></use><g><use xlink:href="#b1y3riDRhP" opacity="1" fill-opacity="0" stroke="#000000" stroke-width="1" stroke-opacity="0"></use></g></g></g></g></svg>