<?xml version="1.0" encoding="UTF-8"?>
<svg width="30px" height="30px" viewBox="0 0 30 30" version="1.1" xmlns="http://www.w3.org/2000/svg" xmlns:xlink="http://www.w3.org/1999/xlink">
    <!-- Generator: Sketch 52.4 (67378) - http://www.bohemiancoding.com/sketch -->
    <title>ic / videocam</title>
    <desc>Created with Sketch.</desc>
    <defs>
        <filter x="-65.0%" y="-65.0%" width="230.0%" height="230.0%" filterUnits="objectBoundingBox" id="filter-1">
            <feOffset dx="0" dy="2" in="SourceAlpha" result="shadowOffsetOuter1"></feOffset>
            <feGaussianBlur stdDeviation="2" in="shadowOffsetOuter1" result="shadowBlurOuter1"></feGaussianBlur>
            <feColorMatrix values="0 0 0 0 0   0 0 0 0 0   0 0 0 0 0  0 0 0 0.5 0" type="matrix" in="shadowBlurOuter1" result="shadowMatrixOuter1"></feColorMatrix>
            <feMerge>
                <feMergeNode in="shadowMatrixOuter1"></feMergeNode>
                <feMergeNode in="SourceGraphic"></feMergeNode>
            </feMerge>
        </filter>
    </defs>
    <g id="Symbols" stroke="none" stroke-width="1" fill="none" fill-rule="evenodd">
        <g id="ic-/-videocam" transform="translate(3.000000, 1.000000)">
            <g filter="url(#filter-1)" transform="translate(2.000000, 2.000000)">
                <circle id="Oval-7" stroke="#2C3A3D" fill="#FFFFFF" cx="10" cy="10" r="10.5"></circle>
                <polygon id="Shape" points="2.66666667 2.66666667 16.9259259 2.66666667 16.9259259 16.9259259 2.66666667 16.9259259"></polygon>
                <path d="M12.7669753,8.90509259 L12.7669753,6.82561728 C12.7669753,6.49884259 12.4996142,6.23148148 12.1728395,6.23148148 L5.04320988,6.23148148 C4.71643519,6.23148148 4.44907407,6.49884259 4.44907407,6.82561728 L4.44907407,12.7669753 C4.44907407,13.09375 4.71643519,13.3611111 5.04320988,13.3611111 L12.1728395,13.3611111 C12.4996142,13.3611111 12.7669753,13.09375 12.7669753,12.7669753 L12.7669753,10.6875 L15.1435185,13.0640432 L15.1435185,6.52854938 L12.7669753,8.90509259 Z" id="Shape" fill="#2C3A3D" fill-rule="nonzero"></path>
            </g>
        </g>
    </g>
</svg>