<?xml version="1.0" encoding="UTF-8"?>
<svg width="24px" height="24px" viewBox="0 0 24 24" version="1.1" xmlns="http://www.w3.org/2000/svg" xmlns:xlink="http://www.w3.org/1999/xlink">
    <!-- Generator: Sketch 52.5 (67469) - http://www.bohemiancoding.com/sketch -->
    <title>ic_actions_sms@3x</title>
    <desc>Created with Sketch.</desc>
    <g id="ic_actions_sms" stroke="none" stroke-width="1" fill="none" fill-rule="evenodd">
        <g id="ic-/-actions-/-sms">
            <rect id="Rectangle-12" stroke="#FFFFFF" x="0.5" y="0.5" width="23" height="23" rx="2"></rect>
            <g id="baseline-chat-24px" transform="translate(3.000000, 3.000000)">
                <path d="M15,1.5 L3,1.5 C2.175,1.5 1.5075,2.175 1.5075,3 L1.5,16.5 L4.5,13.5 L15,13.5 C15.825,13.5 16.5,12.825 16.5,12 L16.5,3 C16.5,2.175 15.825,1.5 15,1.5 Z M4.5,6.75 L13.5,6.75 L13.5,8.25 L4.5,8.25 L4.5,6.75 Z M10.5,10.5 L4.5,10.5 L4.5,9 L10.5,9 L10.5,10.5 Z M13.5,6 L4.5,6 L4.5,4.5 L13.5,4.5 L13.5,6 Z" id="Shape" fill="#FFFFFF" fill-rule="nonzero"></path>
                <polygon id="Shape" points="0 0 18 0 18 18 0 18"></polygon>
            </g>
        </g>
    </g>
</svg>