<?xml version="1.0" encoding="UTF-8"?>
<svg width="22px" height="17px" viewBox="0 0 22 17" version="1.1" xmlns="http://www.w3.org/2000/svg" xmlns:xlink="http://www.w3.org/1999/xlink">
    <g id="Symbols" stroke="none" stroke-width="1" fill="none" fill-rule="evenodd">
        <g id="ic-/-speed-copy" transform="translate(-1.000000, -4.000000)" fill="#FFFFFF" fill-rule="nonzero">
            <g id="bell-curve" transform="translate(1.000000, 5.000000)">
                <path d="M8.3424,3.78847363 C9.174,2.02843886 9.8824,0.49940865 11,0.49940865 C12.1,0.49940865 12.826,2.02403877 13.6576,3.78847363 C15.004,6.64853014 16.6782,10.1972003 21.0232,10.1972003 L21.0232,9.75719156 C16.9576,9.75719156 15.3494,6.34492414 14.0558,3.59706985 C13.1604,1.70283243 12.386,0.0616 11,0.0616 C9.614,0.0616 8.8396,1.70283243 7.9442,3.60146994 C6.6506,6.34492414 5.0424,9.76159165 0.9768,9.76159165 L0.9768,10.2016003 C5.3196,10.1972003 6.996,6.64413006 8.3424,3.78847363 Z" id="Shape" stroke="#FFFFFF"></path>
                <rect id="Rectangle-path" x="0" y="12.5984" width="22" height="2.5"></rect>
            </g>
        </g>
    </g>
</svg>