<?xml version="1.0" encoding="UTF-8" standalone="no"?>
<!DOCTYPE svg PUBLIC "-//W3C//DTD SVG 1.1//EN" "http://www.w3.org/Graphics/SVG/1.1/DTD/svg11.dtd">
<svg version="1.1" xmlns="http://www.w3.org/2000/svg" xmlns:xlink="http://www.w3.org/1999/xlink" preserveAspectRatio="xMidYMid meet" viewBox="0 0 640 640" width="640" height="640"><defs><path d="M275.49 138.09L275.74 138.47L276.08 138.98L276.52 139.64L277.04 140.44L277.65 141.36L278.35 142.42L279.13 143.61L279.99 144.92L280.93 146.35L281.95 147.9L283.04 149.56L284.21 151.34L285.45 153.23L286.76 155.22L288.13 157.32L289.58 159.52L291.08 161.81L292.65 164.21L294.28 166.69L295.97 169.26L297.71 171.92L299.51 174.67L301.36 177.49L303.27 180.39L305.22 183.37L307.21 186.41L309.25 189.53L311.34 192.71L313.47 195.96L315.63 199.26L317.83 202.62L320.07 206.04L322.34 209.51L324.64 213.02L326.97 216.58L329.33 220.18L331.71 223.83L334.12 227.51L336.53 231.18L338.92 234.83L341.29 238.44L343.64 242.02L345.97 245.57L348.26 249.08L350.54 252.54L352.78 255.95L354.98 259.32L357.16 262.63L359.29 265.89L361.39 269.09L363.45 272.23L365.46 275.3L367.43 278.31L369.35 281.24L371.23 284.1L373.05 286.88L374.82 289.58L376.54 292.2L378.19 294.73L379.79 297.17L381.33 299.52L382.81 301.77L384.22 303.92L385.56 305.97L386.83 307.91L388.03 309.75L389.16 311.47L390.22 313.08L391.19 314.57L392.09 315.94L392.9 317.18L393.63 318.3L394.28 319.28L394.84 320.13L395.3 320.85L395.68 321.42L395.96 321.86L396.15 322.14L399.7 327.17L363.9 381.59L362.2 384.19L360.53 386.73L358.89 389.21L357.3 391.64L355.75 394.02L354.23 396.34L352.75 398.61L351.32 400.82L349.92 402.97L348.57 405.07L347.25 407.11L345.98 409.09L344.74 411.02L343.55 412.88L342.4 414.69L341.29 416.44L340.22 418.13L339.19 419.76L338.2 421.33L337.26 422.84L336.36 424.29L335.5 425.68L334.69 427.01L333.92 428.27L333.19 429.48L332.5 430.62L331.86 431.7L331.27 432.71L330.71 433.66L330.21 434.55L329.74 435.37L329.32 436.13L328.95 436.82L328.62 437.45L328.34 438.01L328.11 438.51L327.92 438.94L327.77 439.3L327.67 439.59L327.62 439.82L327.57 440.4L327.56 440.98L327.59 441.54L327.65 442.09L327.75 442.63L327.89 443.16L328.06 443.67L328.26 444.17L328.5 444.65L328.76 445.12L329.05 445.57L329.37 446L329.71 446.41L330.08 446.8L330.47 447.18L330.88 447.53L331.3 447.86L331.75 448.17L332.21 448.46L332.69 448.72L333.18 448.96L333.69 449.17L334.2 449.36L334.72 449.52L335.26 449.65L335.79 449.76L336.34 449.83L336.88 449.87L337.43 449.89L337.98 449.87L338.53 449.82L339.07 449.74L339.62 449.62L340.15 449.47L340.68 449.28L341.21 449.06L341.72 448.8L342.22 448.5L342.71 448.16L343.19 447.79L343.34 447.63L343.59 447.34L343.92 446.92L344.34 446.36L344.84 445.67L345.43 444.85L346.09 443.91L346.84 442.85L347.66 441.67L348.55 440.37L349.52 438.96L350.56 437.45L351.66 435.82L352.84 434.09L354.08 432.26L355.38 430.33L356.75 428.3L358.17 426.18L359.65 423.97L361.19 421.68L362.78 419.29L364.43 416.83L366.12 414.29L367.86 411.67L369.65 408.98L371.49 406.22L373.36 403.39L375.28 400.49L377.24 397.54L379.23 394.52L381.26 391.45L383.32 388.32L385.42 385.15L387.54 381.92L389.69 378.65L391.87 375.34L394.07 371.99L396.29 368.6L398.54 365.18L400.8 361.73L403.06 358.29L405.3 354.88L407.52 351.51L409.71 348.18L411.88 344.89L414.01 341.64L416.12 338.45L418.19 335.3L420.24 332.2L422.24 329.16L424.21 326.18L426.14 323.26L428.02 320.4L429.87 317.61L431.67 314.89L433.42 312.25L435.13 309.67L436.78 307.18L438.39 304.76L439.93 302.43L441.43 300.18L442.86 298.03L444.24 295.96L445.56 293.99L446.81 292.12L448 290.34L449.12 288.67L450.17 287.1L451.15 285.64L452.07 284.29L452.9 283.06L453.66 281.94L454.35 280.94L454.95 280.07L455.48 279.31L455.92 278.69L456.28 278.19L456.55 277.83L456.73 277.6L456.82 277.52L457.23 277.97L458.24 279.33L459.81 281.56L461.93 284.6L464.54 288.41L467.63 292.95L471.16 298.16L475.1 303.99L479.42 310.41L484.08 317.36L489.06 324.79L494.33 332.67L499.85 340.93L505.6 349.54L511.53 358.45L517.63 367.6L523.85 376.96L530.17 386.48L536.56 396.1L542.98 405.78L549.41 415.48L555.8 425.14L562.14 434.72L568.39 444.17L574.52 453.45L580.49 462.51L586.28 471.29L591.85 479.76L597.18 487.87L602.23 495.56L606.97 502.79L611.36 509.52L615.39 515.7L619.01 521.27L622.2 526.2L624.92 530.43L627.15 533.92L628.84 536.63L629.98 538.49L630.52 539.47L630.77 540.04L631.02 540.62L631.25 541.2L631.47 541.78L631.68 542.36L631.87 542.95L632.06 543.53L632.24 544.12L632.41 544.71L632.56 545.3L632.71 545.9L632.84 546.49L632.97 547.08L633.08 547.67L633.18 548.26L633.27 548.85L633.35 549.44L633.42 550.03L633.48 550.61L633.52 551.19L633.56 551.77L633.59 552.35L633.6 552.93L633.6 553.5L633.59 554.06L633.57 554.63L633.54 555.18L633.5 555.74L633.45 556.29L633.38 556.83L633.31 557.37L633.22 557.9L633.12 558.43L633.01 558.95L632.89 559.46L632.76 559.96L632.62 560.46L632.46 560.95L632.29 561.43L632.12 561.91L631.93 562.4L631.74 562.87L631.55 563.34L631.35 563.79L631.15 564.23L630.95 564.66L630.74 565.08L630.52 565.49L630.3 565.88L630.08 566.27L629.84 566.65L629.6 567.02L629.35 567.38L629.1 567.73L628.83 568.07L628.56 568.41L628.28 568.74L627.99 569.06L627.69 569.38L627.38 569.69L627.06 570L626.73 570.3L626.39 570.59L626.04 570.88L625.67 571.17L625.29 571.45L624.9 571.73L624.5 572.01L624.08 572.29L623.65 572.56L623.21 572.83L622.75 573.1L622.28 573.37L621.79 573.64L621.28 573.91L620.76 574.18L620.22 574.45L619.67 574.72L619.1 574.99L618.51 575.27L612.38 578.09L27.65 578.09L21.52 575.27L20.95 575L20.4 574.74L19.87 574.49L19.35 574.23L18.85 573.98L18.37 573.73L17.91 573.49L17.46 573.24L17.03 573L16.61 572.75L16.21 572.51L15.82 572.27L15.44 572.02L15.08 571.78L14.73 571.53L14.39 571.28L14.06 571.02L13.74 570.77L13.43 570.51L13.14 570.24L12.85 569.97L12.57 569.7L12.3 569.42L12.04 569.13L11.79 568.84L11.54 568.54L11.3 568.24L11.06 567.92L10.83 567.6L10.61 567.27L10.39 566.93L10.17 566.58L9.96 566.22L9.75 565.85L9.54 565.47L9.34 565.07L9.13 564.67L8.93 564.25L8.73 563.82L8.53 563.38L8.32 562.92L8.12 562.45L7.94 561.99L7.76 561.52L7.6 561.05L7.45 560.58L7.31 560.1L7.17 559.62L7.05 559.14L6.94 558.66L6.84 558.17L6.75 557.68L6.67 557.19L6.6 556.69L6.54 556.19L6.49 555.69L6.45 555.18L6.42 554.67L6.41 554.16L6.4 553.65L6.4 553.13L6.41 552.61L6.44 552.08L6.47 551.55L6.52 551.02L6.57 550.48L6.63 549.94L6.71 549.4L6.79 548.85L6.89 548.29L7 547.74L7.11 547.18L7.24 546.61L7.37 546.04L7.52 545.47L7.68 544.89L7.84 544.31L8.02 543.73L8.21 543.13L8.4 542.54L8.6 542.11L8.98 541.41L9.55 540.42L10.3 539.16L11.24 537.63L12.35 535.83L13.65 533.76L15.11 531.44L16.75 528.85L18.57 526L20.55 522.91L22.7 519.56L25.02 515.97L27.5 512.13L30.14 508.05L32.94 503.74L35.9 499.19L39.01 494.41L42.28 489.4L45.7 484.16L49.26 478.71L52.98 473.03L56.84 467.14L60.84 461.03L64.99 454.72L69.27 448.2L73.7 441.48L78.25 434.55L82.94 427.43L87.76 420.12L92.72 412.61L97.79 404.92L103 397.04L108.32 388.98L113.77 380.74L119.34 372.32L125.02 363.74L130.82 354.98L136.73 346.06L142.75 336.97L148.19 328.78L153.57 320.67L158.89 312.65L164.15 304.73L169.35 296.9L174.47 289.18L179.52 281.58L184.48 274.1L189.36 266.75L194.16 259.53L198.86 252.45L203.46 245.51L207.96 238.73L212.36 232.12L216.65 225.66L220.82 219.39L224.87 213.29L228.8 207.38L232.6 201.66L236.27 196.14L239.8 190.82L243.19 185.72L246.44 180.84L249.54 176.19L252.49 171.76L255.27 167.58L257.9 163.64L260.35 159.95L262.64 156.53L264.75 153.36L266.69 150.47L268.43 147.86L269.99 145.53L271.36 143.5L272.53 141.76L273.5 140.33L274.26 139.21L274.82 138.4L275.16 137.92L275.28 137.77L275.34 137.86L275.49 138.09ZM457.25 325.92L457.07 326.08L456.85 326.33L456.58 326.66L456.25 327.07L455.88 327.54L455.46 328.1L455 328.72L454.49 329.41L453.93 330.18L453.34 331.01L452.7 331.9L452.02 332.86L451.3 333.88L450.55 334.96L449.75 336.1L448.92 337.3L448.06 338.55L447.16 339.86L446.23 341.22L445.27 342.63L444.27 344.08L443.25 345.59L442.2 347.14L441.12 348.74L440.02 350.38L438.89 352.06L437.74 353.78L436.57 355.54L435.37 357.33L434.16 359.16L432.92 361.03L431.67 362.92L430.4 364.84L429.12 366.79L427.82 368.77L426.5 370.78L425.18 372.8L423.84 374.85L422.5 376.9L421.17 378.93L419.85 380.94L418.55 382.93L417.27 384.89L416.01 386.83L414.77 388.73L413.55 390.61L412.35 392.46L411.17 394.27L410.02 396.05L408.89 397.8L407.79 399.5L406.71 401.17L405.67 402.79L404.65 404.38L403.66 405.92L402.7 407.41L401.78 408.85L400.89 410.25L400.03 411.59L399.21 412.88L398.43 414.12L397.68 415.3L396.98 416.43L396.31 417.49L395.68 418.49L395.1 419.43L394.55 420.31L394.06 421.12L393.6 421.86L393.2 422.54L392.84 423.14L392.52 423.67L392.26 424.12L392.05 424.5L391.89 424.81L391.78 425.03L391.73 425.17L391.73 425.23L391.76 425.25L391.83 425.25L391.92 425.23L392.05 425.21L392.21 425.17L392.4 425.13L392.62 425.07L392.86 425L393.13 424.92L393.43 424.83L393.76 424.73L394.11 424.62L394.49 424.5L394.89 424.37L395.31 424.23L395.76 424.08L396.23 423.92L396.72 423.75L397.23 423.58L397.76 423.39L398.32 423.2L398.89 423L399.48 422.79L400.08 422.57L400.71 422.35L401.35 422.12L402.01 421.88L402.68 421.64L403.37 421.39L404.07 421.13L404.78 420.86L405.51 420.59L406.25 420.32L407 420.04L407.76 419.75L408.53 419.46L409.31 419.16L410.1 418.86L410.9 418.56L411.71 418.24L412.5 417.94L413.3 417.64L414.08 417.34L414.86 417.05L415.63 416.76L416.39 416.47L417.14 416.19L417.89 415.91L418.62 415.64L419.34 415.37L420.05 415.1L420.74 414.84L421.43 414.59L422.1 414.34L422.75 414.1L423.39 413.86L424.01 413.63L424.62 413.41L425.2 413.19L425.77 412.98L426.33 412.78L426.86 412.59L427.37 412.41L427.86 412.23L428.33 412.06L428.77 411.9L429.2 411.75L429.6 411.61L429.97 411.48L430.32 411.36L430.65 411.25L430.95 411.15L431.22 411.06L431.46 410.99L431.68 410.92L431.86 410.86L432.02 410.82L432.14 410.79L432.24 410.77L432.3 410.76L432.35 410.79L432.4 410.86L432.46 410.97L432.53 411.13L432.6 411.33L432.67 411.57L432.75 411.86L432.83 412.19L432.92 412.55L433.01 412.96L433.11 413.4L433.21 413.88L433.31 414.39L433.42 414.94L433.53 415.53L433.64 416.15L433.76 416.8L433.88 417.48L434 418.19L434.12 418.93L434.25 419.7L434.38 420.5L434.51 421.32L434.65 422.18L434.78 423.05L434.92 423.95L435.06 424.88L435.2 425.82L435.35 426.79L435.49 427.78L435.63 428.79L435.78 429.81L435.93 430.86L436.07 431.92L436.22 433L436.37 434.09L436.52 435.19L436.67 436.31L436.81 437.45L436.96 438.59L437.11 439.74L437.25 440.89L437.4 442.02L437.55 443.15L437.69 444.26L437.84 445.36L437.98 446.44L438.12 447.51L438.27 448.56L438.41 449.6L438.55 450.62L438.68 451.62L438.82 452.6L438.95 453.56L439.09 454.5L439.22 455.41L439.35 456.31L439.47 457.17L439.59 458.02L439.72 458.83L439.83 459.62L439.95 460.38L440.06 461.11L440.17 461.81L440.27 462.48L440.38 463.12L440.48 463.72L440.57 464.29L440.66 464.83L440.75 465.33L440.83 465.79L440.91 466.21L440.98 466.6L441.05 466.95L441.12 467.25L441.18 467.51L441.24 467.73L441.29 467.91L441.33 468.05L441.37 468.13L441.42 468.2L441.48 468.24L441.57 468.25L441.68 468.23L441.8 468.18L441.95 468.11L442.12 468L442.31 467.87L442.51 467.71L442.74 467.52L442.98 467.3L443.25 467.06L443.53 466.78L443.84 466.48L444.16 466.15L444.51 465.79L444.87 465.4L445.25 464.99L445.65 464.54L446.07 464.07L446.51 463.57L446.97 463.05L447.45 462.49L447.94 461.91L448.46 461.3L448.99 460.66L449.55 460L450.12 459.31L450.71 458.59L451.32 457.84L451.94 457.07L452.59 456.27L453.25 455.44L453.93 454.58L454.63 453.7L455.35 452.79L456.09 451.86L456.84 450.89L457.62 449.9L458.41 448.89L459.07 448.03L459.72 447.18L460.37 446.33L461.02 445.5L461.65 444.68L462.28 443.87L462.91 443.07L463.52 442.28L464.13 441.51L464.72 440.75L465.31 440.01L465.88 439.28L466.45 438.57L467 437.87L467.54 437.19L468.07 436.53L468.58 435.89L469.08 435.27L469.57 434.67L470.04 434.09L470.49 433.53L470.93 432.99L471.35 432.48L471.75 431.99L472.14 431.52L472.5 431.08L472.85 430.67L473.18 430.28L473.48 429.92L473.77 429.58L474.03 429.28L474.27 429L474.49 428.76L474.68 428.54L474.85 428.36L475 428.2L475.12 428.08L475.21 428L475.28 427.95L475.32 427.93L475.38 427.94L475.5 427.99L475.67 428.07L475.91 428.17L476.2 428.31L476.54 428.47L476.94 428.66L477.39 428.88L477.9 429.12L478.45 429.39L479.05 429.68L479.7 430L480.39 430.35L481.14 430.71L481.92 431.1L482.75 431.51L483.62 431.94L484.53 432.4L485.47 432.87L486.46 433.37L487.48 433.88L488.54 434.41L489.63 434.96L490.76 435.53L491.91 436.11L493.1 436.71L494.32 437.32L495.56 437.95L496.83 438.59L498.13 439.25L499.45 439.92L500.79 440.6L502.16 441.3L503.54 442L504.95 442.72L506.37 443.45L507.81 444.18L509.26 444.92L510.73 445.68L512.22 446.44L513.7 447.2L515.17 447.95L516.62 448.69L518.06 449.42L519.48 450.14L520.88 450.85L522.26 451.55L523.62 452.24L524.96 452.91L526.27 453.58L527.56 454.22L528.82 454.86L530.06 455.48L531.26 456.08L532.44 456.67L533.59 457.24L534.7 457.8L535.78 458.33L536.83 458.85L537.84 459.35L538.81 459.83L539.75 460.29L540.65 460.73L541.5 461.14L542.32 461.54L543.09 461.91L543.82 462.26L544.5 462.59L545.14 462.89L545.73 463.17L546.27 463.42L546.76 463.65L547.2 463.85L547.59 464.02L547.92 464.17L548.2 464.28L548.43 464.37L548.59 464.43L548.7 464.46L548.75 464.45L548.73 464.38L548.63 464.19L548.46 463.89L548.22 463.48L547.91 462.96L547.53 462.34L547.07 461.62L546.56 460.79L545.97 459.87L545.32 458.86L544.62 457.75L543.85 456.55L543.02 455.26L542.13 453.89L541.19 452.43L540.19 450.89L539.14 449.28L538.04 447.58L536.88 445.81L535.68 443.97L534.43 442.06L533.14 440.08L531.8 438.03L530.42 435.92L529 433.75L527.54 431.52L526.04 429.24L524.5 426.9L522.93 424.51L521.33 422.07L519.69 419.58L518.02 417.05L516.33 414.47L514.6 411.86L512.85 409.2L511.08 406.51L509.28 403.79L507.46 401.03L505.62 398.25L503.76 395.44L501.9 392.62L500.05 389.83L498.21 387.06L496.4 384.33L494.61 381.63L492.85 378.96L491.11 376.34L489.39 373.75L487.7 371.2L486.04 368.7L484.42 366.25L482.82 363.85L481.26 361.49L479.73 359.19L478.24 356.95L476.79 354.76L475.38 352.64L474.01 350.58L472.68 348.58L471.4 346.65L470.17 344.8L468.98 343.01L467.84 341.3L466.75 339.66L465.71 338.11L464.73 336.63L463.8 335.24L462.93 333.94L462.11 332.72L461.36 331.59L460.66 330.56L460.03 329.62L459.47 328.78L458.97 328.04L458.53 327.4L458.17 326.87L457.87 326.44L457.65 326.12L457.5 325.92L457.43 325.82L457.36 325.83L457.25 325.92ZM275.16 188.22L274.98 188.34L274.77 188.53L274.5 188.79L274.19 189.14L273.83 189.59L273.4 190.13L272.9 190.79L272.33 191.58L271.68 192.49L270.94 193.54L270.11 194.74L269.17 196.1L268.14 197.63L266.99 199.33L265.72 201.22L264.33 203.3L262.81 205.59L261.16 208.09L259.36 210.81L257.41 213.75L255.31 216.94L253.05 220.38L250.62 224.07L248.02 228.03L245.24 232.27L242.27 236.79L239.12 241.6L235.76 246.72L232.2 252.15L228.43 257.9L224.45 263.98L220.24 270.39L215.81 277.16L210.47 285.3L205.39 293.03L200.58 300.36L196.02 307.3L191.72 313.86L187.65 320.06L183.82 325.9L180.22 331.39L176.84 336.54L173.67 341.37L170.72 345.89L167.96 350.1L165.4 354.01L163.02 357.64L160.83 361L158.81 364.1L156.96 366.94L155.27 369.54L153.73 371.91L152.34 374.06L151.09 375.99L149.97 377.73L148.98 379.28L148.11 380.65L147.35 381.85L146.7 382.89L146.15 383.78L145.69 384.54L145.32 385.17L145.03 385.69L144.81 386.09L144.65 386.41L144.55 386.64L144.51 386.79L144.51 386.88L144.55 386.92L144.62 386.91L144.72 386.87L144.83 386.82L144.95 386.74L145.05 386.68L145.22 386.57L145.45 386.41L145.75 386.21L146.11 385.95L146.54 385.66L147.02 385.32L147.57 384.93L148.17 384.51L148.83 384.04L149.55 383.53L150.32 382.98L151.14 382.4L152.02 381.78L152.94 381.12L153.91 380.43L154.93 379.71L155.99 378.95L157.1 378.16L158.25 377.33L159.45 376.48L160.68 375.6L161.95 374.69L163.26 373.76L164.6 372.8L165.98 371.81L167.39 370.8L168.84 369.77L170.31 368.72L171.81 367.64L173.34 366.55L174.89 365.43L176.47 364.3L178.08 363.16L179.7 361.99L181.35 360.81L183.01 359.62L184.69 358.42L186.39 357.2L188.1 355.97L189.81 354.74L191.5 353.51L193.17 352.3L194.83 351.1L196.46 349.92L198.08 348.75L199.68 347.6L201.25 346.47L202.8 345.35L204.32 344.26L205.82 343.18L207.29 342.13L208.73 341.1L210.13 340.09L211.51 339.11L212.84 338.15L214.15 337.22L215.41 336.32L216.64 335.44L217.83 334.6L218.98 333.78L220.08 333L221.14 332.25L222.16 331.53L223.12 330.85L224.04 330.2L224.91 329.6L225.73 329.02L226.49 328.49L227.2 328L227.86 327.54L228.45 327.13L228.99 326.76L229.47 326.43L229.89 326.15L230.24 325.92L230.54 325.73L230.76 325.59L230.92 325.49L231.01 325.45L231.08 325.43L231.16 325.43L231.26 325.45L231.37 325.49L231.49 325.54L231.62 325.61L231.77 325.7L231.92 325.8L232.09 325.92L232.27 326.06L232.46 326.21L232.66 326.38L232.86 326.56L233.08 326.75L233.31 326.96L233.54 327.18L233.79 327.42L234.04 327.66L234.3 327.92L234.56 328.2L234.84 328.48L235.12 328.78L235.41 329.08L235.71 329.4L236.01 329.73L236.31 330.06L236.63 330.41L236.95 330.77L237.27 331.13L237.6 331.5L237.93 331.89L238.26 332.28L238.6 332.67L238.95 333.08L239.29 333.49L239.64 333.9L239.99 334.33L240.35 334.75L240.71 335.19L241.06 335.63L242.17 337.03L243.32 338.49L244.53 340L245.79 341.57L247.08 343.18L248.42 344.83L249.79 346.52L251.19 348.24L252.62 349.99L254.07 351.76L255.54 353.55L257.03 355.36L258.54 357.17L260.05 358.99L261.56 360.82L263.08 362.64L264.6 364.45L266.11 366.25L267.6 368.03L269.09 369.8L270.56 371.54L272.01 373.24L273.43 374.92L274.83 376.55L276.19 378.15L277.51 379.69L278.8 381.18L280.04 382.62L281.24 384L282.39 385.31L283.48 386.55L284.51 387.72L285.48 388.8L286.38 389.81L287.22 390.73L287.98 391.56L288.67 392.29L289.27 392.92L289.79 393.44L290.22 393.85L295 398.51L299.78 359.17L300.11 356.51L300.42 353.98L300.71 351.57L301 349.27L301.27 347.08L301.53 345.01L301.78 343.03L302.02 341.17L302.25 339.4L302.46 337.73L302.67 336.15L302.88 334.67L303.07 333.27L303.25 331.96L303.43 330.74L303.61 329.59L303.77 328.52L303.93 327.53L304.09 326.61L304.24 325.76L304.39 324.97L304.53 324.25L304.67 323.59L304.81 322.99L304.95 322.44L305.08 321.94L305.22 321.49L305.35 321.09L305.49 320.73L305.62 320.41L305.76 320.13L305.9 319.89L306.04 319.67L306.19 319.49L306.33 319.33L306.48 319.19L306.64 319.08L306.8 318.98L306.97 318.9L307.14 318.83L307.26 318.8L307.41 318.76L307.6 318.71L307.83 318.67L308.09 318.62L308.38 318.57L308.71 318.52L309.07 318.47L309.46 318.42L309.87 318.36L310.32 318.31L310.8 318.25L311.3 318.19L311.83 318.13L312.38 318.07L312.97 318L313.57 317.94L314.2 317.88L314.85 317.81L315.52 317.74L316.21 317.68L316.93 317.61L317.66 317.54L318.41 317.47L319.18 317.4L319.96 317.34L320.76 317.27L321.58 317.2L322.41 317.13L323.26 317.06L324.11 316.99L324.98 316.92L325.86 316.85L326.75 316.78L327.65 316.71L328.56 316.65L329.48 316.58L330.4 316.51L331.33 316.45L332.27 316.38L333.2 316.32L334.13 316.25L335.05 316.19L335.96 316.12L336.87 316.05L337.76 315.98L338.64 315.91L339.51 315.85L340.37 315.78L341.21 315.71L342.04 315.64L342.86 315.57L343.66 315.5L344.44 315.43L345.21 315.36L345.96 315.3L346.69 315.23L347.4 315.16L348.09 315.1L348.75 315.03L349.4 314.97L350.02 314.91L350.62 314.84L351.2 314.78L351.75 314.72L352.27 314.67L352.77 314.61L353.24 314.55L353.68 314.5L354.09 314.45L354.47 314.4L354.82 314.35L355.14 314.31L355.43 314.26L355.68 314.22L355.9 314.18L356.08 314.15L356.23 314.11L356.34 314.08L356.42 314.05L356.47 313.98L356.48 313.83L356.43 313.6L356.33 313.3L356.17 312.92L355.97 312.46L355.71 311.93L355.4 311.33L355.03 310.64L354.62 309.88L354.15 309.05L353.63 308.14L353.05 307.15L352.42 306.08L351.74 304.94L351.01 303.72L350.22 302.43L349.38 301.06L348.49 299.61L347.54 298.08L346.54 296.48L345.49 294.8L344.39 293.05L343.23 291.22L342.02 289.31L340.75 287.32L339.43 285.26L338.06 283.12L336.64 280.9L335.16 278.61L333.63 276.24L332.04 273.79L330.41 271.26L328.71 268.66L326.97 265.98L325.17 263.22L323.32 260.38L321.41 257.47L319.45 254.48L317.43 251.41L315.77 248.86L314.12 246.34L312.48 243.85L310.87 241.38L309.27 238.94L307.69 236.54L306.14 234.16L304.6 231.83L303.1 229.53L301.62 227.27L300.16 225.06L298.74 222.89L297.34 220.76L295.98 218.69L294.64 216.66L293.35 214.69L292.08 212.77L290.86 210.91L289.67 209.11L288.52 207.37L287.41 205.69L286.35 204.08L285.32 202.53L284.35 201.06L283.41 199.65L282.53 198.32L281.69 197.06L280.91 195.88L280.17 194.78L279.49 193.76L278.86 192.83L278.29 191.98L277.78 191.22L277.32 190.55L276.92 189.97L276.58 189.49L276.31 189.1L276.1 188.81L275.95 188.62L275.87 188.53L275.79 188.43L275.7 188.33L275.62 188.25L275.53 188.18L275.43 188.15L275.31 188.16L275.16 188.22Z" id="e1KzoX0K8K"></path></defs><g><g><g><use xlink:href="#e1KzoX0K8K" opacity="1" fill="#ffffff" fill-opacity="1"></use><g><use xlink:href="#e1KzoX0K8K" opacity="1" fill-opacity="0" stroke="#ffffff" stroke-width="3" stroke-opacity="1"></use></g></g></g></g></svg>