<?xml version="1.0" encoding="UTF-8" standalone="no"?>
<!DOCTYPE svg PUBLIC "-//W3C//DTD SVG 1.1//EN" "http://www.w3.org/Graphics/SVG/1.1/DTD/svg11.dtd">
<svg version="1.1" xmlns="http://www.w3.org/2000/svg" xmlns:xlink="http://www.w3.org/1999/xlink" preserveAspectRatio="xMidYMid meet" viewBox="0 0 640 640" width="640" height="640"><defs><path d="M627.41 46.38L627.94 46.47L628.45 46.58L628.93 46.73L629.42 46.9L629.89 47.11L630.36 47.36L630.81 47.63L631.26 47.94L631.7 48.27L632.14 48.64L632.57 49.03L632.85 49.3L632.98 49.45L633.11 49.59L633.5 50.06L633.73 50.4L633.96 50.75L634.07 50.93L634.19 51.11L634.29 51.29L634.39 51.48L634.49 51.67L634.59 51.86L634.67 52.04L634.77 52.24L634.85 52.44L634.94 52.63L635.16 53.22L635.29 53.62L635.35 53.81L635.46 54.2L635.51 54.39L635.55 54.59L635.6 54.77L635.66 55.15L635.68 55.34L635.72 55.69L635.73 55.87L635.74 56.04L635.74 56.21L635.7 56.64L635.56 57.17L635.35 57.79L635.06 58.49L634.67 59.27L634.22 60.12L633.68 61.07L633.06 62.09L632.38 63.19L631.62 64.35L630.78 65.58L629.88 66.9L628.91 68.26L627.87 69.7L626.77 71.2L625.6 72.77L624.38 74.38L623.1 76.06L621.75 77.79L620.35 79.56L618.9 81.4L617.39 83.27L615.84 85.19L614.23 87.16L612.58 89.16L610.88 91.22L609.13 93.3L607.35 95.42L605.51 97.56L603.64 99.74L601.75 101.95L599.8 104.19L597.82 106.46L595.82 108.74L593.78 111.04L591.71 113.36L589.61 115.69L587.49 118.05L585.35 120.41L583.17 122.78L582.31 123.74L581.44 124.7L580.59 125.64L578.92 127.52L577.28 129.36L576.49 130.25L575.7 131.14L574.93 132.01L574.18 132.88L573.43 133.72L572.7 134.55L571.99 135.36L571.3 136.16L570.62 136.94L569.96 137.69L569.33 138.43L568.71 139.15L568.12 139.85L567.55 140.53L566.99 141.19L566.46 141.81L565.96 142.42L565.49 142.99L565.03 143.54L564.61 144.07L564.2 144.56L563.83 145.03L563.48 145.47L563.17 145.88L562.89 146.25L562.63 146.6L562.41 146.91L562.22 147.18L562.06 147.42L561.94 147.63L561.85 147.8L561.8 147.93L561.77 148.02L561.78 148.15L561.82 148.33L561.87 148.57L561.93 148.86L562.02 149.2L562.12 149.6L562.24 150.06L562.38 150.56L562.54 151.11L562.71 151.71L562.9 152.36L563.1 153.05L563.31 153.79L563.55 154.57L563.8 155.39L564.07 156.26L564.34 157.16L564.63 158.09L564.92 159.07L565.24 160.08L565.57 161.14L565.91 162.21L566.26 163.33L566.63 164.47L567 165.64L567.39 166.84L567.78 168.07L568.18 169.32L568.6 170.59L569.02 171.89L569.45 173.22L569.89 174.56L570.35 175.92L570.79 177.3L571.26 178.7L571.72 180.11L572.2 181.54L572.69 182.98L573.18 184.42L573.67 185.88L574.82 189.42L575.99 193.01L577.17 196.68L578.35 200.42L579.54 204.22L580.74 208.06L581.94 211.96L583.15 215.9L584.36 219.87L585.56 223.89L586.77 227.93L587.97 232L589.16 236.08L590.36 240.19L592.72 248.4L593.89 252.52L595.04 256.63L596.18 260.73L597.31 264.8L598.41 268.86L599.52 272.89L600.59 276.89L601.64 280.85L602.68 284.78L603.69 288.66L604.67 292.49L605.63 296.26L606.56 299.97L607.47 303.62L608.34 307.19L609.18 310.7L610 314.11L610.77 317.44L611.51 320.68L612.21 323.83L612.87 326.87L613.49 329.81L614.07 332.65L614.61 335.36L615.09 337.77L615.55 340.1L615.97 342.36L616.36 344.55L616.73 346.67L617.07 348.72L617.38 350.71L617.67 352.64L617.91 354.5L618.14 356.31L618.33 358.06L618.49 359.76L618.61 361.41L618.71 363L618.78 364.56L618.81 366.07L618.82 367.53L618.79 368.95L618.73 370.35L618.63 371.71L618.52 373.03L618.36 374.33L618.17 375.59L617.93 376.84L617.68 378.06L617.39 379.26L617.06 380.44L616.7 381.61L616.3 382.77L615.88 383.91L615.41 385.04L614.91 386.17L614.37 387.29L613.8 388.41L613.19 389.54L612.54 390.67L611.86 391.79L611.14 392.94L610.38 394.09L609.6 395.25L608.6 396.67L607.44 398.23L606.13 399.93L604.65 401.76L603.03 403.71L601.27 405.78L599.37 407.96L597.33 410.25L595.17 412.64L592.89 415.13L590.48 417.73L587.96 420.4L585.32 423.17L582.6 426L579.77 428.92L576.84 431.91L573.83 434.97L570.72 438.07L567.55 441.24L564.29 444.46L560.97 447.74L557.57 451.04L554.14 454.38L550.64 457.75L547.08 461.15L543.49 464.58L539.85 468.02L536.18 471.47L532.49 474.93L528.76 478.39L525.02 481.84L521.25 485.3L513.72 492.16L509.94 495.56L506.18 498.93L502.41 502.27L498.67 505.58L494.94 508.84L491.25 512.06L488.13 514.78L485.16 517.38L482.32 519.86L479.62 522.22L477.07 524.47L474.63 526.61L472.33 528.65L470.14 530.58L468.08 532.43L466.14 534.17L464.31 535.82L462.59 537.38L460.99 538.86L459.48 540.26L458.07 541.58L456.76 542.82L455.56 544L454.43 545.1L453.4 546.16L452.45 547.14L451.59 548.06L450.79 548.94L450.08 549.76L449.44 550.54L448.87 551.28L448.36 551.97L447.92 552.64L447.54 553.26L447.21 553.87L446.93 554.44L446.71 555L446.52 555.54L446.38 556.05L446.28 556.56L446.22 557.06L446.19 557.56L446.19 558.06L446.22 558.55L446.27 559.06L446.34 559.57L446.38 559.89L446.43 560.26L446.5 560.69L446.56 561.15L446.63 561.66L446.72 562.21L446.8 562.8L446.9 563.44L446.99 564.12L447.1 564.82L447.22 565.58L447.33 566.37L447.45 567.18L447.58 568.04L447.72 568.92L447.85 569.84L448 570.78L448.14 571.75L448.3 572.75L448.46 573.77L448.62 574.82L448.78 575.88L448.95 576.98L449.12 578.08L449.3 579.21L449.47 580.36L449.65 581.51L449.83 582.69L450.02 583.88L450.21 585.08L450.39 586.29L450.58 587.51L450.78 588.74L450.97 589.97L451.16 591.21L451.36 592.45L451.56 593.7L451.76 594.95L451.96 596.19L452.15 597.43L452.53 599.96L452.89 602.4L453.22 604.74L453.53 606.99L453.8 609.14L454.06 611.2L454.28 613.18L454.47 615.07L454.64 616.88L454.78 618.6L454.89 620.24L454.97 621.8L455.02 623.28L455.05 624.69L455.05 626.02L455.01 627.28L454.94 628.46L454.84 629.59L454.72 630.63L454.56 631.62L454.38 632.54L454.15 633.39L453.9 634.18L453.61 634.92L453.3 635.6L452.96 636.23L452.56 636.79L452.15 637.31L451.7 637.77L451.23 638.19L450.71 638.55L450.16 638.87L449.57 639.16L448.96 639.39L448.3 639.58L447.61 639.74L446.89 639.85L446.12 639.94L445.33 639.99L444.49 640L443.83 639.99L443.19 639.96L442.56 639.9L441.96 639.81L441.36 639.7L440.78 639.55L440.21 639.37L439.65 639.16L439.1 638.88L438.55 638.58L438.01 638.24L437.47 637.83L436.93 637.38L436.4 636.88L435.85 636.32L435.3 635.71L434.75 635.02L434.19 634.28L433.62 633.45L433.03 632.58L432.44 631.62L431.82 630.59L431.2 629.48L430.55 628.29L429.88 627.02L429.19 625.67L428.48 624.22L427.74 622.69L426.98 621.05L426.18 619.33L425.35 617.51L424.49 615.58L423.59 613.54L422.67 611.41L421.69 609.17L420.69 606.8L419.65 604.33L418.54 601.75L417.41 599.04L416.23 596.2L415.42 594.3L414.65 592.47L413.9 590.71L413.17 589.01L412.45 587.37L411.76 585.8L411.09 584.29L410.44 582.84L409.81 581.44L409.2 580.11L408.6 578.83L408.03 577.61L407.47 576.45L406.93 575.33L406.4 574.28L405.89 573.27L405.39 572.32L404.9 571.41L404.43 570.56L403.98 569.74L403.53 568.98L403.1 568.27L402.67 567.6L402.27 566.97L401.87 566.39L401.47 565.85L401.09 565.35L400.72 564.89L400.35 564.46L399.99 564.07L399.64 563.73L399.29 563.41L398.95 563.14L398.62 562.89L398.29 562.67L397.96 562.49L397.63 562.33L397.32 562.21L397 562.11L396.68 562.04L393.03 561.38L389.17 560.64L385.09 559.84L380.81 558.99L376.34 558.06L371.7 557.09L366.89 556.06L361.94 554.97L356.85 553.85L351.63 552.68L346.3 551.47L340.87 550.22L335.34 548.94L329.74 547.63L324.08 546.29L318.37 544.93L312.61 543.54L306.83 542.13L301.04 540.71L289.45 537.84L283.68 536.39L277.95 534.94L272.27 533.48L266.65 532.03L261.1 530.59L255.62 529.15L250.25 527.74L244.98 526.33L239.84 524.94L234.83 523.59L229.96 522.24L225.26 520.93L220.72 519.65L216.36 518.41L212.2 517.2L208.26 516.03L204.52 514.91L201.02 513.83L197.77 512.8L178.48 506.61L159.46 522.2L157.39 523.87L155.31 525.55L153.22 527.23L151.12 528.89L146.9 532.23L144.8 533.88L142.69 535.52L140.58 537.16L138.49 538.79L136.4 540.39L134.32 541.98L132.26 543.55L130.21 545.1L128.19 546.64L126.19 548.14L124.21 549.62L122.26 551.07L120.34 552.49L118.45 553.88L116.59 555.23L114.78 556.56L113 557.84L111.27 559.08L109.58 560.29L107.94 561.45L106.34 562.57L104.8 563.64L103.31 564.66L101.88 565.64L100.51 566.55L99.21 567.42L97.97 568.23L96.79 568.98L95.69 569.68L94.66 570.31L93.7 570.88L92.82 571.38L92.03 571.82L91.31 572.19L90.58 572.51L89.85 572.8L89.14 573.06L88.43 573.3L87.72 573.5L87.03 573.67L86.34 573.82L85.66 573.93L84.99 574.03L84.33 574.09L83.7 574.13L83.06 574.14L82.45 574.13L81.84 574.09L81.25 574.02L80.67 573.92L80.11 573.81L79.57 573.66L79.04 573.5L78.53 573.31L78.04 573.09L77.57 572.85L77.11 572.59L76.69 572.3L76.27 571.99L75.88 571.65L75.52 571.3L75.17 570.92L74.85 570.53L74.55 570.11L74.29 569.66L74.04 569.2L73.82 568.71L73.63 568.21L73.46 567.68L73.33 567.14L73.22 566.58L73.14 565.99L73.1 565.39L73.08 564.77L73.12 564.24L73.24 563.64L73.44 562.96L73.71 562.2L74.06 561.36L74.47 560.46L74.96 559.48L75.52 558.43L76.15 557.32L76.85 556.14L77.6 554.9L78.43 553.61L79.31 552.24L80.25 550.83L81.26 549.36L82.32 547.83L83.44 546.26L84.61 544.64L85.84 542.98L87.11 541.26L88.44 539.51L89.82 537.7L91.24 535.87L92.71 533.99L94.22 532.08L95.78 530.15L97.37 528.18L99.01 526.18L100.68 524.15L102.39 522.1L104.14 520.02L105.91 517.94L107.73 515.82L109.56 513.7L111.44 511.55L113.33 509.39L115.26 507.22L117.2 505.04L119.17 502.86L121.16 500.68L121.86 499.95L122.55 499.23L123.22 498.5L123.91 497.78L124.59 497.06L125.93 495.62L126.6 494.91L128.54 492.82L129.16 492.13L129.79 491.45L130.41 490.79L131 490.13L131.59 489.48L132.18 488.84L132.74 488.21L133.3 487.6L133.84 487L134.36 486.42L134.88 485.84L135.38 485.28L135.86 484.74L136.32 484.22L136.78 483.72L137.21 483.23L137.62 482.76L138.02 482.31L138.39 481.88L138.75 481.48L139.09 481.09L139.4 480.73L139.7 480.39L139.96 480.07L140.22 479.79L140.44 479.52L140.64 479.29L140.82 479.08L140.97 478.89L141.16 478.66L141.34 478.42L141.5 478.16L141.64 477.88L141.77 477.59L141.88 477.28L141.98 476.94L142.05 476.59L142.12 476.2L142.16 475.8L142.19 475.37L142.19 474.91L142.18 474.42L142.15 473.9L142.11 473.35L142.03 472.76L141.95 472.15L141.84 471.49L141.71 470.8L141.57 470.07L141.4 469.31L141.2 468.5L140.99 467.66L140.76 466.76L140.5 465.82L140.23 464.84L139.93 463.81L139.6 462.72L139.26 461.6L138.89 460.41L138.5 459.18L138.08 457.89L137.64 456.55L137.17 455.15L136.69 453.69L136.17 452.18L135.62 450.59L135.05 448.96L134.46 447.26L133.84 445.48L132.8 442.47L131.76 439.39L130.7 436.26L129.65 433.07L128.58 429.83L127.51 426.54L126.43 423.22L125.35 419.84L124.26 416.42L123.17 412.97L122.08 409.48L121 405.97L119.9 402.41L118.81 398.84L117.72 395.23L116.63 391.6L115.54 387.97L113.38 380.63L112.31 376.94L110.19 369.54L109.13 365.83L107.05 358.41L105.01 351L104.01 347.31L103.02 343.63L102.04 339.97L101.07 336.32L100.13 332.69L99.2 329.08L98.27 325.51L97.37 321.95L96.49 318.42L95.63 314.93L94.78 311.48L93.97 308.05L93.16 304.67L84.44 267.8L54.85 257.16L51.14 255.84L47.58 254.55L44.15 253.31L40.87 252.09L37.73 250.92L34.73 249.77L31.87 248.64L29.14 247.56L26.54 246.5L24.08 245.46L21.75 244.45L19.54 243.46L17.46 242.5L15.51 241.57L13.68 240.65L11.98 239.75L10.4 238.88L8.93 238.01L7.58 237.17L6.35 236.34L5.23 235.52L4.23 234.73L3.33 233.94L2.56 233.15L1.88 232.39L1.3 231.63L0.84 230.88L0.48 230.13L0.22 229.39L0.06 228.65L0 227.92L0.03 227.19L0.17 226.46L0.39 225.73L0.71 225L1.11 224.26L1.61 223.52L2.19 222.78L2.85 222.03L3.61 221.27L9.42 215.83L51.95 221.52L94.74 227.21L113.5 207.91L116.1 205.24L118.7 202.57L121.33 199.9L123.96 197.25L126.59 194.58L131.89 189.26L137.24 183.94L139.93 181.3L142.63 178.64L145.33 175.99L150.78 170.7L153.53 168.04L159.05 162.74L161.83 160.1L164.62 157.45L167.42 154.8L170.24 152.14L173.06 149.49L175.9 146.85L178.76 144.19L181.62 141.54L184.5 138.88L187.39 136.22L190.3 133.57L193.22 130.91L196.15 128.25L199.1 125.59L202.06 122.92L205.03 120.26L208.03 117.59L211.04 114.91L214.06 112.23L217.1 109.55L220.15 106.87L223.22 104.18L226.29 101.49L229.59 98.62L232.74 95.86L235.77 93.25L238.65 90.76L241.42 88.39L244.06 86.14L246.6 84.01L249.03 82.01L251.35 80.11L253.57 78.33L255.71 76.65L257.76 75.08L259.72 73.61L261.62 72.23L263.44 70.96L265.2 69.77L266.91 68.68L268.57 67.68L270.17 66.76L271.73 65.93L273.25 65.17L274.76 64.48L276.24 63.87L277.69 63.33L279.13 62.86L280.56 62.45L282 62.1L283.43 61.82L284.87 61.58L286.32 61.4L287.8 61.28L289.3 61.2L290.84 61.16L292.41 61.16L294.01 61.21L295.68 61.29L297.39 61.39L299.16 61.54L300.99 61.71L302.9 61.9L304.89 62.11L307.17 62.42L309.76 62.8L312.63 63.27L315.78 63.82L319.19 64.46L322.85 65.16L326.75 65.93L330.87 66.77L335.22 67.69L339.76 68.66L344.49 69.69L349.4 70.79L354.48 71.93L359.72 73.12L365.1 74.37L370.62 75.66L376.25 77L381.99 78.37L387.83 79.78L393.75 81.23L399.76 82.7L405.81 84.21L411.92 85.74L418.07 87.3L424.24 88.87L430.44 90.47L436.62 92.07L442.8 93.69L448.97 95.31L455.1 96.94L461.18 98.57L467.2 100.21L473.16 101.84L479.04 103.46L484.83 105.08L490.52 106.68L496.09 108.27L501.53 109.84L506.83 111.4L527.17 117.34L553.06 96.3L554.15 95.42L555.25 94.52L556.37 93.61L557.52 92.69L558.69 91.76L559.88 90.81L561.07 89.85L562.28 88.89L563.51 87.91L564.74 86.94L566 85.95L567.25 84.97L569.77 82.99L573.59 80.02L574.86 79.04L576.13 78.06L577.4 77.09L578.65 76.12L579.91 75.16L581.16 74.21L582.39 73.28L583.62 72.35L584.83 71.44L586.01 70.54L587.2 69.66L588.36 68.78L589.5 67.94L590.63 67.11L591.72 66.29L592.8 65.5L593.85 64.74L594.88 63.99L595.88 63.27L596.84 62.58L597.78 61.91L598.68 61.27L599.55 60.66L601.11 59.57L602.62 58.53L604.06 57.54L605.46 56.58L606.81 55.68L608.1 54.82L609.34 54L610.54 53.23L611.7 52.5L612.81 51.81L613.88 51.18L614.91 50.57L615.9 50.01L616.84 49.5L617.75 49.02L618.63 48.58L619.47 48.19L620.29 47.83L621.06 47.52L621.81 47.24L622.53 47L623.22 46.79L623.88 46.62L624.52 46.5L625.15 46.4L625.74 46.35L626.31 46.32L626.88 46.34L627.41 46.38ZM133.74 274.74L132.93 274.85L132.19 274.97L131.49 275.14L130.85 275.34L130.25 275.57L129.67 275.83L129.13 276.12L128.62 276.44L128.12 276.79L127.64 277.16L127.15 277.56L126.67 277.99L126.18 278.45L125.94 278.66L125.71 278.9L125.48 279.13L125.25 279.38L125.03 279.63L124.82 279.88L124.59 280.14L124.38 280.4L123.78 281.22L123.58 281.5L123.39 281.77L123.21 282.06L122.85 282.63L122.68 282.92L122.36 283.5L122.07 284.08L121.93 284.38L121.55 285.25L121.44 285.54L121.33 285.84L121.23 286.12L121.13 286.41L121.05 286.69L120.98 286.97L120.9 287.24L120.84 287.52L120.78 287.8L120.74 288.06L120.7 288.33L120.67 288.58L120.65 288.84L120.64 289.09L120.64 289.33L120.7 290.71L120.9 292.5L121.22 294.64L121.66 297.13L122.23 299.96L122.88 303.09L123.66 306.52L124.52 310.22L125.48 314.16L126.52 318.35L127.65 322.74L128.84 327.32L130.11 332.09L131.43 337.01L132.82 342.06L134.26 347.23L135.74 352.49L137.27 357.83L138.82 363.24L140.41 368.67L142.02 374.13L143.64 379.6L145.29 385.03L146.93 390.43L148.58 395.77L150.22 401.03L151.86 406.2L153.47 411.24L155.06 416.15L156.63 420.92L158.16 425.49L159.65 429.88L161.09 434.05L162.5 437.99L163.83 441.68L165.12 445.09L166.32 448.22L167.47 451.02L168.52 453.5L169.5 455.64L170.12 456.93L170.77 458.2L171.43 459.43L172.11 460.64L172.82 461.82L173.55 462.96L174.31 464.08L175.1 465.16L175.91 466.24L176.77 467.28L177.65 468.29L178.58 469.29L179.53 470.26L180.53 471.22L181.57 472.15L182.65 473.07L183.78 473.96L184.94 474.85L186.16 475.72L187.43 476.58L188.75 477.42L190.12 478.25L191.55 479.07L193.03 479.88L194.56 480.68L196.17 481.49L197.83 482.27L199.55 483.06L201.34 483.84L203.2 484.63L205.12 485.4L207.11 486.18L209.17 486.95L211.31 487.73L213.52 488.51L215.81 489.31L218.18 490.1L220.63 490.89L223.15 491.69L225.76 492.51L229.98 493.79L234.29 495.08L238.66 496.37L243.1 497.67L247.57 498.96L252.1 500.25L256.67 501.54L261.27 502.82L265.89 504.1L270.52 505.36L275.15 506.61L279.78 507.84L284.4 509.06L289 510.26L293.57 511.45L298.11 512.6L302.6 513.74L307.03 514.84L311.4 515.93L315.71 516.98L319.94 517.99L324.09 518.98L328.14 519.93L332.09 520.84L335.93 521.71L339.64 522.54L343.24 523.32L346.69 524.06L350.01 524.76L353.19 525.39L356.19 525.99L359.03 526.52L361.69 527L364.18 527.42L366.47 527.79L368.56 528.08L370.44 528.32L372.1 528.5L373.54 528.6L374.75 528.63L375.56 528.62L376.34 528.59L377.13 528.53L377.89 528.46L378.64 528.35L379.37 528.23L380.08 528.08L380.78 527.91L381.47 527.73L382.13 527.52L382.77 527.29L383.41 527.04L384.02 526.77L384.62 526.48L385.19 526.17L385.75 525.84L386.29 525.5L386.81 525.13L387.31 524.75L387.8 524.34L388.26 523.91L388.69 523.47L389.12 523.02L389.51 522.55L389.89 522.06L390.24 521.55L390.57 521.01L390.89 520.47L391.17 519.92L391.43 519.35L391.67 518.75L391.89 518.15L392.08 517.53L392.25 516.9L392.38 516.25L392.5 515.58L392.6 514.91L392.66 514.22L392.7 513.52L392.71 512.8L392.64 511.48L392.43 509.73L392.08 507.57L391.59 505.01L390.98 502.1L390.26 498.83L389.42 495.26L388.49 491.38L387.46 487.22L386.34 482.81L385.13 478.17L383.84 473.34L382.49 468.3L381.06 463.1L379.59 457.77L378.06 452.31L376.49 446.77L374.89 441.15L373.25 435.47L371.58 429.78L369.91 424.06L368.21 418.37L366.51 412.72L364.81 407.14L363.13 401.63L361.45 396.23L359.81 390.97L358.18 385.85L356.59 380.91L355.04 376.17L353.55 371.64L352.1 367.36L350.73 363.35L349.41 359.61L348.17 356.2L347.01 353.1L345.94 350.37L344.97 348.01L344.09 346.05L343.32 344.52L342.65 343.28L341.98 342.08L341.32 340.94L340.65 339.83L339.98 338.77L339.29 337.73L338.6 336.74L337.89 335.8L337.16 334.87L336.4 333.97L335.62 333.11L334.81 332.26L333.98 331.45L333.09 330.66L332.17 329.88L331.21 329.13L330.19 328.38L329.13 327.66L328.01 326.94L326.84 326.24L325.61 325.54L324.31 324.84L322.94 324.16L321.5 323.48L319.99 322.79L318.4 322.1L316.73 321.41L314.97 320.71L313.12 320L311.19 319.29L309.15 318.56L307.02 317.82L304.78 317.05L302.45 316.27L300 315.48L297.44 314.66L294.76 313.81L291.96 312.94L289.04 312.04L285.99 311.1L284.32 310.58L282.58 310.04L280.79 309.5L278.94 308.93L277.04 308.36L275.09 307.78L273.1 307.19L271.06 306.6L268.98 305.99L266.86 305.38L264.7 304.76L262.52 304.15L260.3 303.52L258.06 302.9L255.8 302.26L253.51 301.64L251.21 301L248.9 300.37L246.56 299.74L244.22 299.1L241.88 298.48L239.53 297.84L237.18 297.23L234.83 296.6L232.49 295.99L230.15 295.38L227.83 294.78L225.52 294.17L223.23 293.59L220.95 293.01L218.7 292.44L216.47 291.88L214.26 291.33L212.1 290.79L209.96 290.27L207.86 289.75L205.8 289.25L203.78 288.76L201.81 288.3L199.88 287.85L195.2 286.72L190.73 285.66L186.49 284.65L182.46 283.69L178.63 282.78L174.99 281.93L171.55 281.13L168.3 280.38L165.22 279.69L162.33 279.03L159.59 278.43L157.02 277.88L154.6 277.37L152.33 276.91L150.21 276.5L148.23 276.12L146.37 275.8L144.64 275.52L143.03 275.27L141.53 275.07L140.14 274.91L138.86 274.79L137.66 274.7L136.56 274.66L135.54 274.65L134.61 274.68L133.74 274.74ZM530.03 174.98L529.45 175.02L528.87 175.08L528.27 175.17L527.67 175.27L527.06 175.39L526.46 175.53L525.84 175.7L525.23 175.88L524.6 176.09L523.99 176.3L523.36 176.54L522.73 176.8L522.1 177.1L521.46 177.4L520.84 177.72L519.41 178.56L517.67 179.72L515.64 181.19L513.33 182.95L510.76 185.01L507.95 187.31L504.91 189.85L501.67 192.64L498.23 195.63L494.61 198.82L490.85 202.19L486.93 205.72L482.89 209.4L478.74 213.21L474.51 217.14L470.19 221.17L465.83 225.28L461.42 229.45L456.99 233.69L452.55 237.95L448.12 242.22L443.72 246.51L439.36 250.78L435.06 255.01L430.84 259.2L426.7 263.33L422.69 267.38L418.8 271.34L415.05 275.17L411.47 278.88L408.06 282.46L404.86 285.87L401.86 289.1L399.09 292.13L396.56 294.97L394.3 297.57L392.32 299.94L390.64 302.04L389.26 303.87L388.23 305.41L387.76 306.14L387.32 306.85L386.9 307.53L386.5 308.18L386.12 308.83L385.76 309.46L385.44 310.06L385.12 310.66L384.82 311.25L384.54 311.83L384.28 312.42L384.04 312.99L383.81 313.56L383.61 314.15L383.42 314.73L383.25 315.31L383.09 315.92L382.95 316.52L382.83 317.15L382.71 317.78L382.61 318.45L382.53 319.13L382.47 319.83L382.4 320.56L382.36 321.32L382.33 322.1L382.31 322.92L382.31 324.67L382.32 325.6L382.34 326.57L382.38 327.59L382.42 328.66L382.47 329.76L382.53 330.93L382.6 332.15L382.68 333.42L382.75 334.74L382.85 336.13L382.94 337.59L383.07 339.34L383.27 341.27L383.53 343.4L383.84 345.69L384.22 348.14L384.65 350.75L385.13 353.53L385.67 356.45L386.25 359.49L386.89 362.68L387.57 365.98L388.3 369.4L389.06 372.93L389.88 376.55L390.73 380.27L391.61 384.08L392.53 387.96L393.49 391.92L394.47 395.94L395.49 400.02L396.53 404.13L397.6 408.3L398.7 412.5L399.81 416.74L400.94 420.99L402.1 425.24L403.28 429.52L404.46 433.78L405.65 438.03L406.86 442.27L408.08 446.48L409.3 450.66L410.53 454.81L411.78 458.91L413.01 462.95L414.24 466.94L415.47 470.85L416.7 474.69L417.92 478.44L419.13 482.11L419.75 483.97L420.37 485.74L420.95 487.44L421.53 489.07L422.1 490.62L422.65 492.09L423.19 493.51L423.72 494.84L424.25 496.11L424.77 497.32L425.29 498.47L425.8 499.55L426.31 500.57L426.82 501.54L427.34 502.45L427.85 503.29L428.37 504.1L428.89 504.84L429.43 505.53L429.96 506.18L430.51 506.78L431.07 507.33L431.64 507.84L432.24 508.31L432.84 508.73L433.46 509.12L434.11 509.46L434.76 509.78L435.44 510.06L436.14 510.3L436.87 510.52L437.63 510.71L438.41 510.86L439.22 510.99L440.06 511.09L440.93 511.17L441.83 511.24L442.77 511.28L443.75 511.31L444.76 511.31L445.22 511.3L445.71 511.24L446.22 511.14L446.77 511L447.34 510.81L447.95 510.57L448.6 510.29L449.29 509.94L450.02 509.55L450.79 509.09L451.62 508.58L452.5 507.99L453.43 507.36L454.42 506.64L455.48 505.86L456.59 505L457.78 504.07L459.03 503.06L460.36 501.97L461.76 500.79L463.25 499.54L464.81 498.19L466.45 496.76L468.19 495.23L470.01 493.6L471.93 491.88L473.95 490.06L476.06 488.13L478.28 486.09L480.6 483.96L483.03 481.72L485.58 479.35L488.23 476.88L491.01 474.28L493.89 471.57L496.92 468.74L500.06 465.78L503.32 462.69L506.73 459.47L510.27 456.13L515.09 451.6L517.49 449.34L519.87 447.09L522.25 444.85L524.6 442.62L526.94 440.41L529.25 438.2L531.54 436.02L533.81 433.85L536.06 431.71L538.27 429.6L540.44 427.5L542.59 425.44L544.7 423.42L546.76 421.42L548.8 419.46L550.78 417.53L552.73 415.65L554.61 413.81L556.46 412.01L558.24 410.26L559.98 408.56L563.28 405.32L564.84 403.78L566.33 402.3L567.76 400.87L569.12 399.52L570.41 398.22L571.63 396.99L572.77 395.83L573.84 394.74L574.82 393.73L575.72 392.79L576.55 391.93L577.28 391.15L577.93 390.45L578.48 389.83L578.95 389.31L579.96 388.09L580.91 386.88L581.82 385.67L582.69 384.46L583.51 383.27L584.28 382.06L585.01 380.85L585.68 379.63L586.32 378.4L586.9 377.16L587.45 375.89L587.94 374.61L588.4 373.31L588.8 371.98L589.16 370.62L589.48 369.24L589.76 367.82L589.98 366.36L590.17 364.86L590.31 363.33L590.41 361.74L590.46 360.11L590.47 358.44L590.44 356.71L590.36 354.91L590.25 353.07L590.09 351.16L589.89 349.19L589.63 347.15L589.36 345.04L589.03 342.86L588.66 340.6L588.24 338.28L587.8 335.86L587.3 333.36L586.77 330.77L586.19 328.1L585.58 325.34L584.92 322.47L584.23 319.52L583.22 315.26L582.18 310.95L581.11 306.58L580.02 302.18L578.9 297.75L577.75 293.3L576.58 288.82L575.4 284.33L574.2 279.85L572.98 275.37L571.76 270.91L570.52 266.46L569.27 262.04L568.03 257.66L566.78 253.31L565.53 249.03L564.29 244.79L563.05 240.62L561.82 236.52L560.59 232.51L559.38 228.57L558.18 224.73L557 221L555.83 217.37L554.7 213.86L553.57 210.47L552.48 207.22L551.42 204.1L550.39 201.12L549.38 198.31L548.42 195.65L547.5 193.16L546.6 190.84L545.76 188.72L544.96 186.78L544.21 185.04L543.5 183.5L542.85 182.17L542.24 181.07L541.7 180.19L541.37 179.75L541.04 179.34L540.69 178.94L540.31 178.57L539.94 178.2L539.55 177.86L539.14 177.53L538.72 177.23L538.29 176.94L537.84 176.68L537.4 176.43L536.93 176.2L536.45 175.99L535.96 175.79L535.47 175.63L534.97 175.47L534.45 175.34L533.93 175.23L533.4 175.14L532.86 175.06L532.3 175L531.74 174.97L531.18 174.95L530.62 174.96L530.03 174.98ZM298.05 88.57L296.92 88.62L295.83 88.68L294.77 88.77L293.74 88.87L292.74 89L291.77 89.14L290.81 89.31L289.89 89.5L288.98 89.7L288.1 89.92L287.23 90.17L286.37 90.43L285.53 90.73L284.7 91.03L283.88 91.35L282.35 92.1L280.44 93.22L278.19 94.69L275.61 96.48L272.72 98.6L269.55 101L266.12 103.68L262.43 106.62L258.53 109.79L254.43 113.19L250.14 116.78L245.68 120.56L241.09 124.5L236.38 128.57L231.56 132.79L226.67 137.1L221.72 141.5L216.72 145.97L211.72 150.49L206.71 155.04L201.73 159.61L196.79 164.17L191.92 168.71L187.13 173.19L182.45 177.62L177.89 181.96L173.47 186.21L169.23 190.33L165.18 194.33L161.33 198.15L157.71 201.81L154.35 205.27L151.25 208.52L148.44 211.55L145.95 214.32L143.78 216.81L141.97 219.03L140.54 220.93L139.49 222.51L138.86 223.75L138.52 224.61L138.23 225.44L138 226.25L137.81 227.05L137.67 227.83L137.58 228.58L137.56 229.31L137.58 230.03L137.66 230.74L137.8 231.42L138 232.1L138.28 232.76L138.61 233.42L139.01 234.06L139.48 234.7L140.01 235.32L140.62 235.95L141.3 236.56L142.05 237.18L142.89 237.79L143.79 238.41L144.79 239.02L145.86 239.63L147.02 240.25L148.26 240.87L149.59 241.49L151.01 242.13L152.51 242.77L154.1 243.41L155.8 244.07L157.58 244.75L159.47 245.42L161.44 246.12L163.53 246.83L165.71 247.56L168 248.3L170.4 249.06L172.89 249.84L175.5 250.65L178.22 251.47L181.49 252.42L184.87 253.39L188.32 254.36L191.85 255.34L195.44 256.33L199.11 257.33L202.84 258.33L206.62 259.33L210.45 260.34L214.32 261.34L218.22 262.34L222.14 263.34L226.1 264.33L230.07 265.32L234.04 266.3L238.01 267.28L241.99 268.24L245.96 269.19L249.91 270.13L253.83 271.04L257.73 271.95L261.6 272.84L265.42 273.71L269.19 274.56L272.9 275.38L276.56 276.18L280.16 276.97L283.68 277.72L287.12 278.43L290.48 279.13L293.74 279.8L296.91 280.43L299.97 281.02L302.93 281.58L305.76 282.11L308.47 282.59L311.05 283.04L313.5 283.45L315.8 283.81L317.96 284.14L319.55 284.35L321.05 284.55L322.49 284.75L323.84 284.93L325.14 285.1L326.37 285.25L327.54 285.4L328.65 285.52L329.7 285.64L330.71 285.73L331.66 285.81L332.59 285.89L333.46 285.93L334.29 285.97L335.1 285.98L335.87 285.98L336.62 285.97L337.34 285.93L338.04 285.88L338.73 285.8L339.4 285.71L340.06 285.6L340.72 285.46L341.37 285.3L342.03 285.14L342.68 284.94L343.34 284.72L344.02 284.48L344.71 284.21L345.41 283.93L346.13 283.62L346.89 283.28L347.66 282.92L348.47 282.53L349.31 282.12L350.18 281.69L351.11 281.23L352.07 280.74L353.08 280.22L354.15 279.68L356.4 278.48L358.95 276.97L361.77 275.15L364.85 273.06L368.17 270.7L371.71 268.09L375.45 265.26L379.39 262.22L383.48 258.96L387.74 255.53L392.12 251.93L396.63 248.19L401.22 244.3L405.9 240.31L410.64 236.2L415.42 232.01L420.24 227.76L425.06 223.45L429.86 219.11L434.65 214.75L439.39 210.38L444.07 206.03L448.67 201.71L453.17 197.43L457.55 193.21L461.79 189.07L465.9 185.04L469.82 181.11L473.57 177.3L477.11 173.64L480.42 170.14L483.5 166.82L486.32 163.68L488.85 160.76L491.1 158.06L493.04 155.6L494.66 153.4L495.91 151.47L496.81 149.85L497.32 148.51L497.56 147.52L497.73 146.57L497.82 145.62L497.83 144.7L497.74 143.79L497.57 142.9L497.3 142.02L496.93 141.17L496.45 140.31L495.86 139.47L495.14 138.62L494.32 137.79L493.36 136.97L492.28 136.13L491.06 135.3L489.7 134.46L488.21 133.62L486.55 132.76L484.76 131.91L482.8 131.04L480.68 130.16L478.38 129.25L475.92 128.33L473.28 127.41L470.46 126.45L467.46 125.47L464.26 124.46L460.87 123.42L457.28 122.36L453.49 121.27L449.49 120.14L445.27 118.97L440.83 117.78L436.17 116.55L431.29 115.26L426.17 113.94L420.81 112.57L415.22 111.16L409.38 109.7L403.28 108.17L402.02 107.86L400.7 107.53L399.36 107.21L397.97 106.86L396.56 106.52L395.12 106.16L393.65 105.81L392.14 105.45L390.61 105.09L389.06 104.72L387.49 104.36L385.9 103.98L384.29 103.61L382.67 103.23L381.03 102.86L379.39 102.48L377.73 102.1L369.41 100.22L367.74 99.86L366.08 99.48L362.79 98.75L359.54 98.04L357.95 97.7L356.37 97.36L354.8 97.02L353.26 96.69L351.75 96.36L350.26 96.05L348.81 95.74L347.37 95.44L345.97 95.15L344.62 94.86L343.29 94.58L342 94.32L339.48 93.83L337.04 93.36L334.68 92.91L332.38 92.5L330.16 92.09L328.01 91.72L325.92 91.35L323.91 91.02L321.96 90.7L320.07 90.41L318.23 90.14L316.46 89.89L314.75 89.66L313.09 89.45L311.49 89.27L309.94 89.11L308.44 88.96L306.99 88.84L305.58 88.73L304.22 88.66L302.9 88.6L301.63 88.56L300.4 88.55L299.2 88.55L298.05 88.57Z" id="d6pZd153p"></path></defs><g><g><g><use xlink:href="#d6pZd153p" opacity="1" fill="#ffffff" fill-opacity="1"></use><g><use xlink:href="#d6pZd153p" opacity="1" fill-opacity="0" stroke="#000000" stroke-width="1" stroke-opacity="0"></use></g></g></g></g></svg>