<?xml version="1.0" encoding="UTF-8" standalone="no"?>
<!DOCTYPE svg PUBLIC "-//W3C//DTD SVG 1.1//EN" "http://www.w3.org/Graphics/SVG/1.1/DTD/svg11.dtd">
<svg version="1.1" xmlns="http://www.w3.org/2000/svg" xmlns:xlink="http://www.w3.org/1999/xlink" preserveAspectRatio="xMidYMid meet" viewBox="0 0 640 640" width="640" height="640"><defs><path d="M610.85 24.57L611.35 24.67L611.83 24.78L612.29 24.93L612.75 25.11L613.19 25.33L613.64 25.58L614.06 25.86L614.49 26.18L614.9 26.52L615.32 26.9L615.73 27.3L615.99 27.58L616.11 27.74L616.24 27.88L616.6 28.37L616.82 28.72L617.04 29.08L617.14 29.26L617.26 29.45L617.35 29.63L617.63 30.22L617.71 30.41L617.8 30.61L617.88 30.82L617.97 31.01L618.17 31.62L618.3 32.03L618.35 32.23L618.46 32.63L618.5 32.83L618.54 33.03L618.59 33.22L618.65 33.61L618.66 33.81L618.7 34.17L618.71 34.35L618.72 34.53L618.72 34.7L618.68 35.15L618.55 35.69L618.35 36.33L618.08 37.05L617.71 37.86L617.29 38.73L616.77 39.71L616.19 40.76L615.55 41.9L614.83 43.09L614.03 44.36L613.18 45.72L612.27 47.12L611.29 48.6L610.25 50.15L609.14 51.77L607.99 53.43L606.78 55.16L605.5 56.94L604.18 58.76L602.81 60.66L601.38 62.59L599.92 64.57L598.4 66.6L596.84 68.66L595.23 70.78L593.58 72.92L591.9 75.11L590.16 77.31L588.39 79.56L586.61 81.84L584.77 84.14L582.9 86.48L581.01 88.83L579.08 91.2L577.12 93.59L575.14 95.99L573.14 98.43L571.11 100.86L569.05 103.3L568.24 104.29L567.42 105.28L566.62 106.25L565.04 108.19L563.49 110.08L562 111.92L561.27 112.81L560.56 113.71L559.85 114.57L559.16 115.43L558.49 116.26L557.84 117.09L557.2 117.89L556.57 118.66L555.98 119.43L555.39 120.17L554.84 120.89L554.3 121.59L553.77 122.27L553.27 122.91L552.79 123.54L552.35 124.13L551.92 124.69L551.52 125.24L551.13 125.74L550.78 126.23L550.45 126.68L550.16 127.1L549.89 127.49L549.65 127.85L549.44 128.17L549.26 128.44L549.11 128.69L549 128.91L548.91 129.08L548.86 129.22L548.84 129.31L548.85 129.44L548.88 129.63L548.93 129.88L548.99 130.18L549.07 130.53L549.17 130.94L549.28 131.41L549.41 131.93L549.56 132.49L549.72 133.11L549.9 133.78L550.09 134.49L550.29 135.26L550.52 136.06L550.75 136.9L551.01 137.8L551.26 138.73L551.54 139.69L551.81 140.7L552.11 141.74L552.43 142.83L552.75 143.93L553.08 145.09L553.43 146.26L553.78 147.47L554.15 148.7L554.51 149.97L554.89 151.26L555.29 152.57L555.69 153.91L556.09 155.28L556.51 156.66L556.94 158.06L557.36 159.48L557.8 160.92L558.24 162.38L558.69 163.85L559.62 166.82L560.08 168.32L561.17 171.97L562.27 175.67L563.39 179.45L564.5 183.31L565.62 187.22L566.76 191.18L567.89 195.2L569.04 199.26L570.18 203.35L571.31 207.49L572.46 211.65L573.59 215.85L574.71 220.05L575.85 224.29L578.08 232.75L579.18 236.99L580.27 241.23L581.35 245.45L582.41 249.65L583.45 253.83L584.5 257.98L585.51 262.11L586.5 266.19L587.49 270.24L588.44 274.23L589.37 278.18L590.27 282.07L591.15 285.89L592.01 289.65L592.83 293.33L593.63 296.95L594.4 300.46L595.13 303.89L595.83 307.23L596.49 310.48L597.11 313.61L597.7 316.64L598.25 319.56L598.76 322.36L599.21 324.84L599.65 327.24L600.04 329.57L600.41 331.83L600.76 334.01L601.08 336.12L601.37 338.17L601.65 340.16L601.88 342.08L602.09 343.94L602.27 345.75L602.42 347.5L602.54 349.2L602.63 350.84L602.7 352.45L602.73 354L602.74 355.51L602.71 356.97L602.65 358.41L602.56 359.81L602.45 361.17L602.3 362.51L602.12 363.81L601.89 365.1L601.66 366.36L601.38 367.59L601.07 368.81L600.73 370.02L600.35 371.21L599.96 372.39L599.51 373.55L599.04 374.71L598.53 375.87L597.99 377.02L597.42 378.19L596.8 379.35L596.16 380.51L595.48 381.69L594.76 382.88L594.02 384.07L593.08 385.53L591.98 387.14L590.75 388.89L589.35 390.78L587.82 392.79L586.15 394.92L584.36 397.17L582.43 399.53L580.39 401.99L578.24 404.56L575.96 407.24L573.58 409.99L571.09 412.84L568.52 415.76L565.84 418.77L563.07 421.85L560.23 425L557.29 428.2L554.3 431.46L551.22 434.78L548.08 438.16L544.87 441.56L541.63 445L538.32 448.47L534.96 451.98L531.57 455.51L528.13 459.06L524.66 462.61L521.17 466.18L517.65 469.74L514.12 473.3L510.55 476.86L503.44 483.93L499.87 487.44L496.32 490.91L492.75 494.35L489.22 497.76L485.7 501.12L482.21 504.44L479.26 507.24L476.46 509.92L473.77 512.48L471.22 514.91L468.81 517.23L466.51 519.43L464.33 521.53L462.27 523.52L460.32 525.43L458.49 527.22L456.76 528.92L455.13 530.53L453.62 532.06L452.19 533.5L450.86 534.86L449.62 536.14L448.49 537.35L447.42 538.49L446.45 539.58L445.55 540.59L444.74 541.54L443.98 542.44L443.31 543.29L442.71 544.09L442.17 544.85L441.69 545.56L441.27 546.26L440.91 546.89L440.6 547.52L440.34 548.11L440.13 548.69L439.95 549.24L439.82 549.77L439.72 550.29L439.67 550.81L439.64 551.33L439.64 551.84L439.67 552.35L439.71 552.87L439.78 553.4L439.82 553.73L439.87 554.11L439.93 554.55L439.99 555.02L440.05 555.55L440.14 556.12L440.21 556.72L440.31 557.38L440.39 558.09L440.5 558.81L440.61 559.59L440.72 560.4L440.83 561.24L440.95 562.12L441.08 563.03L441.21 563.98L441.35 564.95L441.48 565.95L441.63 566.98L441.78 568.03L441.93 569.11L442.09 570.2L442.41 572.47L442.58 573.63L442.74 574.82L442.91 576L443.08 577.22L443.26 578.45L443.44 579.68L443.61 580.93L443.79 582.19L443.97 583.46L444.15 584.72L444.33 586L444.52 587.28L444.9 589.85L445.09 591.13L445.27 592.41L445.63 595.02L445.97 597.53L446.28 599.94L446.57 602.26L446.83 604.48L447.07 606.6L447.28 608.64L447.46 610.59L447.62 612.45L447.75 614.22L447.86 615.91L447.93 617.52L447.98 619.05L448.01 620.5L448.01 621.87L447.97 623.17L447.91 624.39L447.81 625.55L447.7 626.62L447.55 627.64L447.38 628.59L447.16 629.47L446.92 630.28L446.65 631.04L446.36 631.74L446.03 632.39L445.66 632.97L445.27 633.5L444.84 633.98L444.4 634.41L443.91 634.78L443.39 635.11L442.83 635.41L442.26 635.65L441.63 635.84L440.98 636.01L440.3 636.12L439.57 636.21L438.83 636.27L438.03 636.28L437.41 636.27L436.8 636.24L436.21 636.17L435.64 636.08L435.07 635.97L434.53 635.81L433.99 635.63L433.46 635.41L432.94 635.12L432.42 634.81L431.91 634.46L431.4 634.04L430.89 633.58L430.39 633.06L429.87 632.48L429.35 631.86L428.83 631.14L428.3 630.38L427.76 629.53L427.2 628.63L426.65 627.64L426.06 626.58L425.48 625.44L424.86 624.21L424.23 622.9L423.58 621.51L422.91 620.02L422.21 618.44L421.49 616.75L420.73 614.98L419.95 613.1L419.14 611.11L418.29 609.01L417.42 606.82L416.49 604.51L415.55 602.07L414.56 599.52L413.52 596.86L412.45 594.07L411.33 591.14L410.57 589.18L409.84 587.3L409.13 585.49L408.44 583.73L407.76 582.04L407.11 580.43L406.48 578.87L405.86 577.38L405.27 575.93L404.69 574.56L404.12 573.24L403.59 571.99L403.06 570.79L402.55 569.64L402.05 568.55L401.56 567.51L401.09 566.53L400.63 565.6L400.18 564.72L399.76 563.88L399.33 563.09L398.93 562.36L398.52 561.67L398.14 561.02L397.77 560.42L397.39 559.87L397.03 559.35L396.68 558.88L396.33 558.44L395.99 558.03L395.66 557.68L395.33 557.35L395.01 557.08L394.7 556.82L394.38 556.59L394.07 556.41L393.76 556.24L393.47 556.12L393.16 556.01L392.86 555.94L389.41 555.26L385.77 554.5L381.91 553.67L377.87 552.8L373.65 551.84L369.26 550.84L364.72 549.78L360.04 548.66L355.23 547.5L350.3 546.3L345.26 545.05L340.13 543.76L334.91 542.44L329.62 541.09L324.27 539.71L318.88 538.31L313.43 536.88L307.97 535.43L302.5 533.96L291.55 531L286.1 529.51L280.69 528.02L275.32 526.51L270.01 525.02L264.77 523.53L259.59 522.05L254.52 520.6L249.54 519.14L244.68 517.71L239.95 516.32L235.35 514.93L230.91 513.58L226.62 512.26L222.5 510.98L218.57 509.74L214.85 508.53L211.31 507.38L208.01 506.26L204.94 505.2L186.71 498.82L168.74 514.89L166.79 516.61L164.82 518.34L162.85 520.07L160.86 521.78L156.88 525.22L154.89 526.92L150.9 530.3L148.93 531.98L146.96 533.63L144.99 535.27L143.04 536.89L141.11 538.49L139.2 540.07L137.31 541.62L135.44 543.14L133.6 544.64L131.78 546.1L130 547.53L128.24 548.92L126.53 550.29L124.85 551.61L123.21 552.89L121.62 554.14L120.07 555.33L118.56 556.49L117.1 557.59L115.69 558.64L114.34 559.65L113.05 560.59L111.82 561.49L110.65 562.32L109.53 563.09L108.49 563.81L107.52 564.46L106.61 565.05L105.78 565.57L105.04 566.02L104.36 566.4L103.67 566.73L102.98 567.03L102.31 567.3L101.63 567.54L100.96 567.75L100.31 567.93L99.66 568.08L99.02 568.19L98.38 568.3L97.76 568.36L97.17 568.4L96.56 568.41L95.98 568.4L95.41 568.36L94.85 568.29L94.3 568.18L93.77 568.07L93.26 567.92L92.76 567.75L92.28 567.56L91.82 567.33L91.37 567.08L90.94 566.81L90.54 566.51L90.15 566.19L89.78 565.84L89.44 565.48L89.11 565.09L88.8 564.69L88.52 564.26L88.28 563.79L88.04 563.32L87.83 562.81L87.65 562.3L87.49 561.75L87.37 561.2L87.26 560.62L87.19 560.01L87.15 559.39L87.13 558.75L87.17 558.21L87.28 557.59L87.47 556.89L87.73 556.11L88.06 555.24L88.45 554.31L88.91 553.3L89.44 552.22L90.03 551.08L90.69 549.86L91.4 548.58L92.19 547.25L93.02 545.84L93.91 544.39L94.86 542.88L95.86 541.3L96.92 539.68L98.03 538.01L99.19 536.3L100.39 534.53L101.64 532.73L102.95 530.86L104.29 528.97L105.68 527.04L107.1 525.07L108.58 523.08L110.08 521.05L111.63 518.99L113.21 516.9L114.82 514.79L116.48 512.64L118.15 510.5L119.87 508.31L121.6 506.13L123.37 503.91L125.16 501.69L126.98 499.45L128.82 497.21L130.68 494.96L132.56 492.71L133.22 491.96L133.87 491.22L134.5 490.47L135.15 489.72L135.8 488.98L137.06 487.5L137.7 486.77L139.53 484.61L140.12 483.9L140.71 483.2L141.3 482.52L141.85 481.84L142.41 481.17L142.97 480.51L143.5 479.86L144.03 479.23L144.54 478.62L145.52 477.42L145.99 476.84L146.45 476.29L146.88 475.75L147.31 475.24L147.72 474.73L148.11 474.25L148.49 473.78L148.84 473.34L149.18 472.93L149.5 472.53L149.79 472.15L150.07 471.8L150.32 471.47L150.56 471.19L150.77 470.91L150.96 470.67L151.13 470.45L151.27 470.26L151.45 470.02L151.62 469.77L151.77 469.51L151.91 469.22L152.03 468.92L152.13 468.6L152.23 468.25L152.29 467.89L152.36 467.49L152.4 467.07L152.43 466.63L152.43 466.16L152.42 465.65L152.39 465.12L152.35 464.55L152.27 463.94L152.2 463.31L152.09 462.63L151.97 461.92L151.84 461.17L151.68 460.39L151.49 459.55L151.29 458.69L151.07 457.76L150.83 456.79L150.57 455.78L150.29 454.72L149.98 453.6L149.66 452.44L149.31 451.22L148.94 449.95L148.54 448.62L148.13 447.24L147.68 445.8L147.23 444.29L146.74 442.74L146.22 441.1L145.68 439.42L145.12 437.67L144.54 435.83L143.55 432.73L142.57 429.56L141.57 426.33L140.58 423.04L139.57 419.7L138.56 416.31L137.54 412.89L136.52 409.41L135.49 405.89L134.46 402.33L133.43 398.73L132.41 395.12L131.37 391.45L130.34 387.77L129.31 384.05L127.25 376.57L125.21 369.01L124.2 365.2L122.19 357.58L121.19 353.75L119.23 346.11L117.3 338.47L116.35 334.67L115.42 330.88L114.49 327.11L113.58 323.35L112.69 319.61L111.81 315.89L110.93 312.21L110.08 308.54L109.25 304.9L108.44 301.3L107.63 297.75L106.87 294.21L106.1 290.73L97.86 252.74L69.91 241.77L66.4 240.41L63.04 239.08L59.8 237.81L56.7 236.55L53.73 235.34L50.9 234.16L48.2 232.99L45.62 231.88L43.16 230.79L40.84 229.72L38.64 228.68L36.55 227.66L34.58 226.67L32.74 225.71L31.01 224.76L29.41 223.83L27.91 222.94L26.52 222.04L25.25 221.18L24.09 220.32L23.03 219.48L22.08 218.66L21.23 217.85L20.51 217.03L19.86 216.25L19.32 215.47L18.88 214.69L18.54 213.92L18.3 213.16L18.14 212.4L18.09 211.64L18.12 210.89L18.25 210.14L18.46 209.39L18.76 208.63L19.14 207.87L19.61 207.11L20.16 206.35L20.78 205.57L21.5 204.79L26.99 199.19L67.17 205.05L107.6 210.91L125.32 191.02L130.23 185.52L132.72 182.77L135.2 180.04L137.69 177.29L142.69 171.81L147.75 166.32L150.29 163.6L152.84 160.86L155.39 158.13L160.54 152.68L163.14 149.94L168.35 144.48L170.98 141.76L173.62 139.03L176.26 136.3L178.93 133.56L181.59 130.82L184.27 128.1L186.98 125.36L189.68 122.63L192.4 119.89L195.13 117.15L197.88 114.42L200.64 111.68L203.41 108.94L206.19 106.2L208.99 103.44L211.8 100.7L214.63 97.95L217.47 95.19L220.33 92.43L223.2 89.67L226.08 86.91L231.88 81.36L235 78.4L237.98 75.56L240.84 72.87L243.56 70.31L246.18 67.86L248.67 65.54L251.07 63.35L253.37 61.29L255.56 59.33L257.65 57.5L259.68 55.77L261.61 54.15L263.47 52.63L265.26 51.21L266.98 49.9L268.64 48.68L270.26 47.55L271.83 46.52L273.34 45.57L274.81 44.72L276.25 43.94L277.67 43.22L279.07 42.6L280.44 42.04L281.8 41.56L283.15 41.13L284.52 40.77L285.87 40.48L287.23 40.24L288.6 40.05L289.99 39.93L291.41 39.84L292.87 39.8L294.35 39.8L295.86 39.86L297.44 39.94L299.06 40.04L300.73 40.2L302.46 40.37L304.26 40.57L306.14 40.78L308.3 41.1L310.74 41.49L313.45 41.98L316.43 42.54L319.65 43.2L323.11 43.93L326.79 44.72L330.69 45.58L334.8 46.53L339.09 47.53L343.55 48.59L348.19 49.73L352.99 50.9L357.94 52.13L363.03 53.42L368.24 54.75L373.56 56.13L378.98 57.54L384.5 58.99L390.09 60.48L395.77 62L401.49 63.56L407.26 65.13L413.07 66.74L418.9 68.36L424.76 70.01L430.6 71.66L436.44 73.32L442.26 74.99L448.06 76.67L453.8 78.35L459.49 80.04L465.12 81.72L470.67 83.39L476.14 85.06L481.52 86.71L486.78 88.35L491.92 89.97L496.93 91.57L516.15 97.69L540.61 76.01L541.64 75.11L542.68 74.18L543.73 73.24L544.82 72.29L545.93 71.34L547.05 70.36L548.17 69.37L549.32 68.38L550.48 67.37L551.64 66.37L552.83 65.35L554.01 64.34L556.39 62.3L560 59.24L562.4 57.22L563.6 56.22L564.78 55.22L565.97 54.23L567.16 53.25L569.48 51.33L570.62 50.4L571.74 49.47L572.86 48.56L573.96 47.66L575.03 46.79L576.1 45.93L577.13 45.09L578.15 44.28L579.14 43.49L580.12 42.72L581.06 41.98L581.97 41.27L582.86 40.58L583.71 39.92L584.53 39.29L586 38.17L587.43 37.09L588.79 36.07L590.11 35.08L592.61 33.27L593.78 32.43L594.91 31.63L596.01 30.88L597.06 30.17L598.07 29.52L599.04 28.89L599.98 28.31L600.86 27.79L601.72 27.29L602.56 26.84L603.35 26.44L604.12 26.07L604.85 25.75L605.56 25.46L606.24 25.21L606.89 25L607.52 24.82L608.12 24.7L608.72 24.59L609.27 24.54L609.81 24.51L610.35 24.53L610.85 24.57ZM144.44 259.89L143.68 260L142.98 260.13L142.32 260.3L141.71 260.51L141.14 260.75L140.6 261.01L140.09 261.31L139.6 261.64L139.13 262L138.68 262.38L138.22 262.8L137.76 263.24L137.3 263.71L137.07 263.93L136.86 264.18L136.64 264.41L136.42 264.67L136.21 264.93L136.01 265.19L135.8 265.45L135.6 265.72L135.03 266.57L134.84 266.86L134.66 267.13L134.49 267.43L134.15 268.02L133.99 268.32L133.69 268.92L133.42 269.51L133.28 269.82L132.93 270.72L132.82 271.02L132.72 271.33L132.62 271.62L132.53 271.92L132.45 272.2L132.39 272.49L132.31 272.77L132.2 273.35L132.16 273.62L132.12 273.89L132.09 274.15L132.07 274.42L132.07 274.68L132.07 274.92L132.12 276.35L132.31 278.19L132.61 280.4L133.03 282.96L133.57 285.88L134.18 289.1L134.92 292.64L135.73 296.45L136.64 300.51L137.62 304.83L138.69 309.35L139.81 314.07L141.01 318.99L142.26 324.06L143.57 329.26L144.93 334.59L146.33 340.01L147.78 345.51L149.24 351.09L150.74 356.68L152.26 362.31L153.8 367.94L155.35 373.54L156.9 379.1L158.46 384.61L160.01 390.03L161.56 395.35L163.08 400.55L164.58 405.61L166.07 410.52L167.51 415.23L168.92 419.76L170.28 424.05L171.61 428.11L172.87 431.92L174.09 435.43L175.22 438.65L176.31 441.54L177.3 444.1L178.23 446.3L178.81 447.63L179.43 448.94L180.05 450.21L180.69 451.45L181.36 452.67L182.05 453.84L182.77 455L183.52 456.11L184.28 457.22L185.1 458.3L185.93 459.34L186.81 460.37L187.7 461.37L188.65 462.36L189.63 463.31L190.65 464.26L191.72 465.18L192.81 466.1L193.97 466.99L195.17 467.88L196.41 468.74L197.71 469.6L199.06 470.44L200.46 471.28L201.9 472.1L203.42 472.94L204.99 473.74L206.62 474.56L208.31 475.36L210.07 476.17L211.88 476.97L213.76 477.77L215.71 478.56L217.73 479.37L219.82 480.17L221.98 481L224.22 481.81L226.53 482.62L228.91 483.45L231.38 484.29L235.37 485.61L239.44 486.94L243.57 488.27L247.76 489.61L251.99 490.94L256.27 492.27L260.58 493.6L264.93 494.92L269.29 496.24L273.67 497.54L278.04 498.82L282.42 500.09L286.78 501.35L291.13 502.58L295.45 503.81L299.74 505L303.98 506.17L308.16 507.3L312.29 508.43L316.36 509.51L320.36 510.55L324.28 511.57L328.11 512.55L331.84 513.49L335.47 514.38L338.97 515.24L342.37 516.04L345.63 516.8L348.77 517.53L351.77 518.18L354.61 518.79L357.29 519.34L359.8 519.83L362.16 520.27L364.32 520.65L366.3 520.95L368.07 521.19L369.64 521.38L371 521.48L372.14 521.51L372.91 521.5L373.65 521.47L374.39 521.41L375.11 521.34L375.82 521.23L376.51 521.1L377.18 520.95L377.84 520.77L378.49 520.59L379.12 520.37L379.72 520.13L380.33 519.88L380.9 519.6L381.47 519.3L382.01 518.98L382.54 518.64L383.05 518.29L383.54 517.91L384.01 517.52L384.47 517.09L384.91 516.65L385.31 516.2L385.72 515.73L386.09 515.25L386.45 514.74L386.78 514.22L387.09 513.66L387.39 513.11L387.66 512.54L387.9 511.95L388.13 511.33L388.34 510.71L388.52 510.08L388.68 509.43L388.8 508.76L388.91 508.07L389.01 507.38L389.06 506.66L389.1 505.94L389.11 505.2L389.05 503.84L388.85 502.04L388.52 499.81L388.05 497.17L387.48 494.18L386.8 490.81L386 487.13L385.12 483.13L384.15 478.84L383.09 474.3L381.95 469.52L380.73 464.54L379.46 459.35L378.1 453.99L376.72 448.5L375.27 442.87L373.79 437.16L372.28 431.37L370.73 425.52L369.15 419.65L367.57 413.76L365.96 407.9L364.36 402.07L362.75 396.32L361.16 390.65L359.58 385.08L358.03 379.66L356.49 374.38L354.99 369.29L353.52 364.41L352.11 359.74L350.74 355.33L349.45 351.2L348.2 347.35L347.03 343.83L345.94 340.64L344.92 337.82L344.01 335.39L343.18 333.37L342.45 331.8L341.82 330.52L341.18 329.28L340.56 328.11L339.93 326.96L339.29 325.87L338.64 324.8L337.99 323.78L337.32 322.81L336.63 321.85L335.91 320.92L335.17 320.04L334.41 319.16L333.62 318.33L332.78 317.51L331.91 316.71L331.01 315.94L330.04 315.16L329.04 314.42L327.98 313.68L326.88 312.96L325.72 312.24L324.49 311.52L323.19 310.82L321.83 310.11L320.41 309.4L318.9 308.69L317.33 307.98L315.66 307.26L313.92 306.53L312.09 305.8L310.17 305.04L308.15 304.28L306.04 303.49L303.84 302.68L301.52 301.87L299.1 301.03L296.57 300.15L293.93 299.25L291.17 298.33L288.28 297.36L286.71 296.82L285.06 296.27L283.37 295.71L281.62 295.12L279.83 294.53L277.99 293.94L276.11 293.33L274.18 292.72L272.21 292.09L270.21 291.46L268.17 290.82L266.11 290.2L264.01 289.55L261.9 288.91L259.76 288.25L257.6 287.61L255.43 286.95L253.24 286.3L251.03 285.65L248.82 284.99L246.61 284.35L244.39 283.69L242.17 283.06L239.95 282.42L235.53 281.16L233.34 280.54L231.15 279.91L228.99 279.31L226.84 278.72L224.71 278.13L222.6 277.55L220.52 276.99L218.48 276.43L216.45 275.89L214.47 275.36L212.52 274.84L210.61 274.34L208.75 273.86L206.93 273.4L202.51 272.23L198.29 271.14L194.28 270.1L190.47 269.11L186.85 268.17L183.41 267.3L180.16 266.47L177.09 265.7L174.18 264.99L171.45 264.31L168.86 263.69L166.44 263.13L164.15 262.6L162.01 262.13L160 261.7L158.13 261.31L156.37 260.98L154.74 260.69L153.22 260.44L151.8 260.23L150.49 260.06L149.28 259.94L148.15 259.85L147.11 259.81L146.14 259.8L145.26 259.83L144.44 259.89ZM518.85 157.09L518.3 157.13L517.75 157.19L517.19 157.29L516.62 157.39L516.04 157.51L515.48 157.66L514.89 157.83L514.31 158.02L513.72 158.23L513.14 158.45L512.55 158.7L511.95 158.97L511.36 159.28L510.75 159.58L510.17 159.91L508.81 160.78L507.17 161.98L505.25 163.49L503.07 165.3L500.64 167.43L497.99 169.8L495.12 172.41L492.05 175.29L488.8 178.37L485.38 181.66L481.83 185.13L478.13 188.77L474.31 192.56L470.39 196.49L466.39 200.54L462.31 204.69L458.19 208.92L454.03 213.22L449.84 217.59L445.65 221.98L441.46 226.38L437.3 230.8L433.19 235.2L429.12 239.56L425.14 243.88L421.22 248.13L417.44 252.31L413.76 256.39L410.22 260.33L406.84 264.16L403.61 267.84L400.59 271.36L397.76 274.69L395.14 277.81L392.75 280.74L390.61 283.42L388.74 285.86L387.16 288.02L385.85 289.91L384.88 291.49L384.43 292.25L384.02 292.98L383.62 293.68L383.24 294.35L382.89 295.02L382.55 295.67L381.94 296.9L381.66 297.51L381.39 298.11L381.15 298.72L380.92 299.3L380.7 299.89L380.51 300.5L380.33 301.1L380.17 301.7L380.02 302.32L379.89 302.94L379.66 304.24L379.57 304.93L379.49 305.63L379.44 306.35L379.37 307.11L379.33 307.89L379.3 308.69L379.29 309.54L379.29 311.34L379.3 312.3L379.31 313.3L379.35 314.35L379.39 315.45L379.44 316.59L379.49 317.79L379.56 319.05L379.64 320.36L379.7 321.72L379.8 323.15L379.88 324.65L380 326.46L380.19 328.45L380.44 330.64L380.73 333L381.09 335.53L381.5 338.22L381.95 341.08L382.46 344.09L383.01 347.22L383.61 350.51L384.26 353.91L384.95 357.43L385.66 361.07L386.44 364.8L387.24 368.63L388.07 372.56L388.94 376.56L389.85 380.64L390.77 384.78L391.74 388.99L392.72 393.22L393.73 397.52L394.77 401.85L395.82 406.22L396.89 410.59L397.98 414.97L399.1 419.38L400.21 423.77L401.34 428.15L402.48 432.52L403.63 436.86L404.79 441.17L405.95 445.45L407.13 449.67L408.29 453.83L409.45 457.94L410.61 461.97L411.78 465.93L412.93 469.8L414.07 473.58L414.66 475.49L415.24 477.32L415.79 479.07L416.34 480.75L416.88 482.35L417.4 483.86L417.91 485.32L418.41 486.69L418.91 488L419.4 489.25L419.89 490.44L420.37 491.55L420.86 492.6L421.34 493.6L421.83 494.54L422.31 495.4L422.8 496.24L423.29 497L423.8 497.71L424.3 498.38L424.82 499L425.35 499.57L425.89 500.09L426.46 500.57L427.03 501.01L427.61 501.41L428.23 501.76L428.84 502.09L429.48 502.38L430.14 502.63L430.83 502.85L431.55 503.05L432.29 503.2L433.05 503.34L433.85 503.44L434.67 503.52L435.52 503.59L436.41 503.64L437.33 503.67L438.29 503.67L438.72 503.66L439.18 503.59L439.67 503.49L440.19 503.35L440.72 503.15L441.3 502.9L441.92 502.62L442.57 502.25L443.26 501.85L443.98 501.38L444.77 500.85L445.6 500.25L446.48 499.6L447.41 498.85L448.42 498.05L449.46 497.16L450.59 496.21L451.77 495.17L453.03 494.04L454.35 492.83L455.76 491.54L457.23 490.15L458.78 488.67L460.42 487.1L462.14 485.42L463.96 483.64L465.87 481.77L467.86 479.78L469.96 477.68L472.15 475.48L474.44 473.17L476.85 470.73L479.36 468.19L481.98 465.51L484.7 462.72L487.57 459.8L490.53 456.75L493.61 453.57L496.84 450.25L500.18 446.81L504.73 442.14L507 439.81L509.25 437.49L511.5 435.18L513.72 432.88L515.93 430.61L518.11 428.33L520.28 426.08L522.42 423.85L524.55 421.64L526.63 419.47L528.68 417.3L530.71 415.18L532.71 413.1L534.65 411.04L536.58 409.02L538.45 407.03L540.29 405.09L542.07 403.2L543.82 401.34L545.5 399.54L547.14 397.79L550.26 394.45L551.74 392.86L553.14 391.34L554.5 389.86L555.78 388.47L557 387.13L558.15 385.86L559.23 384.67L560.24 383.55L561.17 382.5L562.02 381.54L562.8 380.65L563.49 379.85L564.1 379.12L564.62 378.49L565.07 377.95L566.02 376.69L566.92 375.45L567.78 374.2L568.6 372.95L569.38 371.73L570.1 370.48L570.79 369.23L571.43 367.98L572.03 366.71L572.58 365.43L573.1 364.12L573.56 362.8L574 361.46L574.37 360.09L574.71 358.69L575.02 357.27L575.28 355.81L575.49 354.3L575.67 352.76L575.8 351.18L575.89 349.54L575.94 347.86L575.95 346.14L575.92 344.36L575.85 342.5L575.74 340.61L575.59 338.64L575.4 336.61L575.16 334.51L574.9 332.33L574.59 330.08L574.24 327.76L573.84 325.37L573.43 322.87L572.96 320.3L572.46 317.63L571.91 314.88L571.33 312.03L570.71 309.07L570.06 306.03L569.1 301.64L568.12 297.2L567.11 292.7L566.08 288.17L565.02 283.6L563.93 279.02L562.83 274.4L561.71 269.77L560.58 265.16L559.43 260.54L558.27 255.94L557.1 251.36L555.92 246.8L554.75 242.29L553.57 237.81L552.39 233.4L551.22 229.03L550.05 224.73L548.88 220.51L547.72 216.37L546.58 212.31L545.44 208.36L544.33 204.51L543.22 200.77L542.16 197.16L541.09 193.66L540.06 190.31L539.06 187.1L538.08 184.03L537.13 181.13L536.22 178.39L535.35 175.82L534.5 173.43L533.71 171.25L532.95 169.25L532.25 167.46L531.57 165.87L530.96 164.5L530.38 163.37L529.87 162.46L529.56 162.01L529.25 161.58L528.92 161.17L528.56 160.79L528.21 160.41L527.84 160.06L527.46 159.72L527.06 159.41L526.65 159.11L526.23 158.84L525.81 158.58L525.37 158.35L524.91 158.13L524.45 157.93L523.99 157.76L523.52 157.6L523.02 157.46L522.53 157.35L522.03 157.26L521.52 157.17L520.99 157.11L520.46 157.08L519.94 157.06L519.41 157.07L518.85 157.09ZM299.68 68.05L298.61 68.1L297.58 68.16L296.58 68.25L295.61 68.36L294.66 68.49L293.75 68.64L292.84 68.81L291.97 69.01L291.11 69.21L290.28 69.44L289.46 69.7L288.64 69.97L287.85 70.27L287.07 70.58L286.29 70.91L284.85 71.69L283.04 72.84L280.92 74.35L278.48 76.2L275.75 78.38L272.75 80.86L269.51 83.62L266.03 86.65L262.34 89.91L258.47 93.42L254.41 97.12L250.2 101.01L245.86 105.07L241.41 109.27L236.86 113.62L232.24 118.06L227.56 122.59L222.84 127.2L218.12 131.85L213.38 136.54L208.68 141.25L204.01 145.95L199.41 150.63L194.88 155.25L190.46 159.81L186.15 164.28L181.98 168.66L177.97 172.91L174.15 177.03L170.51 180.97L167.09 184.74L163.91 188.3L160.99 191.65L158.33 194.77L155.98 197.63L153.93 200.2L152.22 202.48L150.87 204.44L149.87 206.07L149.28 207.35L148.96 208.23L148.68 209.09L148.47 209.92L148.29 210.75L148.16 211.55L148.07 212.32L148.05 213.08L148.07 213.82L148.15 214.55L148.28 215.25L148.47 215.95L148.73 216.63L149.04 217.31L149.42 217.97L149.87 218.63L150.37 219.27L150.94 219.92L151.58 220.55L152.29 221.19L153.09 221.81L153.94 222.45L154.88 223.08L155.89 223.71L156.99 224.35L158.16 224.99L159.42 225.63L160.76 226.29L162.18 226.95L163.68 227.61L165.28 228.29L166.97 228.99L168.75 229.68L170.61 230.4L172.59 231.13L174.65 231.88L176.81 232.64L179.08 233.43L181.43 234.23L183.9 235.07L186.47 235.91L189.56 236.89L192.75 237.89L196.01 238.89L199.34 239.9L202.73 240.92L206.2 241.95L209.73 242.98L213.3 244.01L216.92 245.05L220.57 246.08L224.26 247.11L227.96 248.14L231.7 249.16L235.45 250.18L242.95 252.2L246.71 253.19L250.47 254.17L254.2 255.14L257.9 256.08L261.59 257.01L265.24 257.93L268.85 258.83L272.41 259.7L275.92 260.55L279.38 261.37L282.78 262.19L286.1 262.96L289.35 263.69L292.53 264.41L295.61 265.1L298.6 265.75L301.49 266.36L304.29 266.94L306.96 267.48L309.52 267.98L311.96 268.44L314.28 268.87L316.45 269.24L318.49 269.58L319.99 269.79L321.41 270L322.77 270.2L324.04 270.39L325.27 270.57L326.43 270.72L327.54 270.87L328.59 271L329.58 271.12L330.54 271.21L331.43 271.3L332.31 271.38L333.13 271.42L333.92 271.46L334.68 271.47L335.41 271.47L336.12 271.46L336.8 271.42L337.46 271.37L338.11 271.29L338.75 271.19L339.37 271.08L339.99 270.94L340.61 270.77L341.23 270.61L341.84 270.4L342.47 270.17L343.11 269.93L343.76 269.65L344.42 269.36L345.1 269.04L345.82 268.69L346.55 268.32L347.31 267.92L348.11 267.49L348.93 267.05L349.81 266.58L350.72 266.07L351.67 265.54L352.68 264.98L354.81 263.74L357.22 262.19L359.88 260.31L362.79 258.16L365.93 255.73L369.27 253.04L372.8 250.12L376.53 246.99L380.39 243.63L384.42 240.09L388.55 236.38L392.82 232.53L397.15 228.52L401.57 224.41L406.05 220.18L410.57 215.86L415.12 211.48L419.68 207.04L424.21 202.57L428.74 198.07L433.21 193.57L437.64 189.09L441.98 184.64L446.23 180.22L450.37 175.88L454.38 171.61L458.26 167.46L461.96 163.41L465.51 159.48L468.85 155.71L471.98 152.1L474.89 148.68L477.55 145.45L479.94 142.44L482.07 139.66L483.9 137.12L485.43 134.85L486.61 132.86L487.46 131.2L487.94 129.81L488.17 128.79L488.33 127.82L488.42 126.84L488.43 125.89L488.34 124.95L488.18 124.03L487.93 123.13L487.58 122.25L487.12 121.36L486.57 120.5L485.89 119.62L485.11 118.77L484.2 117.92L483.18 117.06L482.03 116.2L480.75 115.34L479.34 114.47L477.77 113.58L476.08 112.71L474.23 111.81L472.22 110.91L470.05 109.97L467.73 109.02L465.23 108.07L462.57 107.08L459.73 106.07L456.71 105.03L453.51 103.96L450.12 102.87L446.54 101.74L442.76 100.58L438.77 99.37L434.57 98.15L430.17 96.88L425.56 95.55L420.72 94.19L415.66 92.78L410.38 91.33L404.86 89.82L399.1 88.25L397.91 87.93L396.66 87.59L395.39 87.26L394.08 86.9L392.75 86.55L391.39 86.17L390 85.81L388.57 85.44L387.13 85.07L385.66 84.69L384.18 84.32L382.68 83.93L381.16 83.55L379.63 83.16L378.08 82.77L376.53 82.38L374.96 81.99L367.1 80.05L365.52 79.68L363.95 79.29L360.84 78.54L357.77 77.81L356.27 77.46L354.78 77.11L353.29 76.76L351.84 76.42L350.41 76.08L349.01 75.76L347.64 75.44L346.28 75.13L344.95 74.83L343.68 74.53L342.42 74.24L341.2 73.97L338.82 73.47L336.52 72.98L334.29 72.52L332.11 72.1L330.02 71.68L327.98 71.29L326.01 70.91L324.11 70.57L322.27 70.24L320.48 69.94L318.74 69.67L317.07 69.41L315.46 69.17L313.89 68.96L312.38 68.77L310.91 68.6L309.49 68.45L308.13 68.33L306.79 68.21L305.51 68.14L304.26 68.08L303.06 68.04L301.9 68.03L300.77 68.03L299.68 68.05Z" id="b7OdbD01xi"></path></defs><g><g><g><use xlink:href="#b7OdbD01xi" opacity="1" fill="#ffffff" fill-opacity="1"></use><g><use xlink:href="#b7OdbD01xi" opacity="1" fill-opacity="0" stroke="#ffffff" stroke-width="20" stroke-opacity="1"></use></g></g></g></g></svg>