<?xml version="1.0" encoding="UTF-8" standalone="no"?>
<!DOCTYPE svg PUBLIC "-//W3C//DTD SVG 1.1//EN" "http://www.w3.org/Graphics/SVG/1.1/DTD/svg11.dtd">
<svg version="1.1" xmlns="http://www.w3.org/2000/svg" xmlns:xlink="http://www.w3.org/1999/xlink" preserveAspectRatio="xMidYMid meet" viewBox="0 0 640 640" width="640" height="640"><defs><path d="M162.11 6.65L162.48 6.67L162.85 6.71L163.22 6.76L163.6 6.81L163.98 6.88L164.36 6.96L164.74 7.05L165.13 7.15L165.53 7.26L165.92 7.38L166.33 7.52L166.74 7.66L167.16 7.81L167.58 7.98L168.01 8.15L168.45 8.33L168.9 8.53L169.36 8.74L169.64 8.9L170.01 9.14L170.46 9.47L170.99 9.88L171.6 10.38L172.29 10.96L173.06 11.62L173.91 12.38L174.84 13.21L175.86 14.13L176.96 15.14L178.14 16.23L179.4 17.41L180.74 18.67L182.17 20.02L183.68 21.46L185.28 22.98L186.96 24.59L188.72 26.29L190.57 28.08L192.5 29.95L194.52 31.92L196.62 33.97L198.81 36.1L201.08 38.33L203.44 40.65L205.89 43.05L208.42 45.55L211.04 48.14L213.74 50.81L216.53 53.58L219.41 56.43L222.38 59.38L225.43 62.41L228.58 65.54L231.81 68.76L235.13 72.07L238.54 75.47L242.04 78.97L245.63 82.55L251.36 88.32L256.8 93.78L261.95 98.96L266.82 103.85L271.42 108.48L275.76 112.85L279.83 116.96L283.65 120.83L287.23 124.46L290.58 127.87L293.7 131.06L296.59 134.05L299.28 136.83L301.75 139.43L304.03 141.85L306.12 144.09L308.02 146.17L309.75 148.1L311.31 149.88L312.71 151.53L313.96 153.05L315.06 154.45L316.02 155.74L316.86 156.94L317.56 158.04L318.16 159.06L318.64 160.01L319.02 160.89L319.31 161.72L319.51 162.5L319.64 163.24L319.69 163.96L319.68 164.65L319.62 165.34L319.5 166.02L319.35 166.72L319.16 167.43L318.94 168.16L318.71 168.93L318.46 169.74L318.36 170.06L318.24 170.39L318.11 170.72L317.96 171.06L317.8 171.41L317.62 171.77L317.43 172.13L317.21 172.51L316.98 172.89L316.73 173.3L316.46 173.71L316.16 174.14L315.84 174.59L315.5 175.06L315.13 175.55L314.73 176.05L314.31 176.58L313.86 177.13L313.38 177.71L312.87 178.31L312.33 178.94L311.75 179.59L311.14 180.28L310.5 180.99L309.82 181.73L309.11 182.51L308.35 183.32L307.56 184.17L306.73 185.05L305.86 185.97L304.95 186.92L303.99 187.92L302.99 188.96L301.94 190.04L300.85 191.16L299.72 192.32L298.53 193.53L297.3 194.79L296.01 196.1L294.68 197.45L272.48 219.77L282.78 230.2L293.08 240.49L309.26 224.8L310.15 223.93L311.02 223.08L311.87 222.26L312.69 221.47L313.5 220.69L314.29 219.94L315.06 219.21L315.81 218.51L316.54 217.82L317.26 217.16L317.95 216.52L318.64 215.9L319.3 215.3L319.95 214.72L320.59 214.16L321.21 213.62L321.82 213.1L322.42 212.59L323 212.1L323.57 211.63L324.13 211.18L324.68 210.74L325.22 210.32L325.75 209.91L326.27 209.52L326.78 209.15L327.28 208.78L327.78 208.44L328.26 208.1L328.74 207.78L329.22 207.47L329.69 207.17L330.15 206.89L330.61 206.61L331.06 206.35L331.51 206.09L331.96 205.85L332.41 205.62L332.85 205.39L333.29 205.18L333.96 204.85L334.62 204.54L335.28 204.24L335.95 203.94L336.61 203.66L337.27 203.39L337.94 203.13L338.6 202.89L339.26 202.65L339.92 202.43L340.58 202.21L341.23 202.01L341.89 201.82L342.54 201.64L343.19 201.48L343.83 201.32L344.48 201.18L345.12 201.04L345.75 200.92L346.38 200.81L347.01 200.72L347.63 200.63L348.25 200.56L348.87 200.49L349.48 200.44L350.08 200.4L350.68 200.38L351.27 200.36L351.85 200.36L352.43 200.37L353.01 200.39L353.57 200.42L354.13 200.47L354.68 200.53L355.22 200.6L355.76 200.68L356.29 200.78L356.81 200.88L357.32 201L357.82 201.13L358.12 201.21L358.42 201.29L358.7 201.36L358.97 201.42L359.22 201.48L359.47 201.53L359.71 201.58L359.94 201.62L360.16 201.65L360.37 201.68L360.58 201.69L360.78 201.7L360.98 201.7L361.17 201.7L361.36 201.68L361.55 201.65L361.73 201.62L361.91 201.57L362.1 201.52L362.28 201.45L362.46 201.38L362.64 201.29L362.83 201.19L363.02 201.08L363.21 200.95L363.41 200.82L363.61 200.67L363.81 200.51L364.03 200.34L364.25 200.15L364.48 199.95L364.72 199.73L364.96 199.5L365.22 199.25L365.49 198.99L365.77 198.72L366.06 198.43L366.36 198.12L366.68 197.79L367.01 197.45L367.78 196.69L368.58 195.94L369.41 195.21L370.27 194.5L371.16 193.81L372.07 193.14L373.01 192.48L373.97 191.85L374.95 191.23L375.96 190.64L376.99 190.06L378.03 189.51L379.1 188.98L380.18 188.47L381.28 187.98L382.4 187.51L383.52 187.07L384.67 186.65L385.82 186.25L386.99 185.88L388.16 185.53L389.34 185.21L390.54 184.91L391.73 184.63L392.94 184.38L394.15 184.16L395.36 183.96L396.57 183.79L397.79 183.65L399 183.54L400.21 183.45L401.43 183.39L402.63 183.36L403.84 183.35L405.04 183.38L406.23 183.44L407.41 183.52L408.59 183.64L409.76 183.78L410.91 183.96L411.75 184.1L412.59 184.26L413.41 184.42L414.23 184.59L415.04 184.78L415.85 184.97L416.64 185.18L417.43 185.39L418.21 185.62L418.99 185.86L419.75 186.11L420.51 186.37L421.27 186.64L422.02 186.92L422.76 187.21L423.49 187.52L424.22 187.83L424.95 188.16L425.67 188.5L426.38 188.85L427.09 189.21L427.79 189.59L428.49 189.97L429.18 190.37L429.87 190.78L430.55 191.2L431.23 191.64L431.91 192.08L432.58 192.54L433.25 193.01L433.91 193.5L434.57 193.99L435.22 194.5L435.88 195.03L436.53 195.56L437.17 196.11L437.82 196.67L438.46 197.24L439.1 197.83L439.73 198.43L441.27 199.96L442.73 201.52L444.12 203.14L445.44 204.79L446.68 206.49L447.85 208.22L448.94 209.98L449.96 211.78L450.91 213.61L451.78 215.46L452.58 217.35L453.31 219.25L453.96 221.17L454.53 223.11L455.04 225.07L455.46 227.04L455.81 229.02L456.09 231.01L456.29 233L456.42 235L456.47 237L456.45 239L456.35 241L456.18 242.99L455.93 244.97L455.6 246.95L455.2 248.9L454.72 250.85L454.17 252.77L453.54 254.68L452.84 256.57L452.05 258.42L451.2 260.26L450.26 262.06L449.25 263.83L448.16 265.57L447 267.27L445.76 268.93L444.44 270.55L443.04 272.13L442.72 272.49L442.4 272.84L442.11 273.18L441.82 273.5L441.55 273.82L441.29 274.12L441.05 274.41L440.81 274.7L440.59 274.97L440.38 275.24L440.19 275.49L440 275.74L439.82 275.98L439.66 276.21L439.51 276.44L439.37 276.66L439.23 276.87L439.11 277.08L439 277.28L438.9 277.48L438.81 277.67L438.73 277.86L438.65 278.05L438.59 278.23L438.53 278.41L438.49 278.59L438.45 278.77L438.42 278.94L438.4 279.11L438.38 279.29L438.38 279.46L438.38 279.63L438.38 279.81L438.4 279.98L438.42 280.16L438.45 280.34L438.48 280.52L438.52 280.7L438.57 280.89L438.62 281.08L438.8 281.73L438.96 282.39L439.09 283.06L439.21 283.74L439.32 284.43L439.4 285.13L439.47 285.84L439.52 286.56L439.55 287.28L439.56 288.02L439.55 288.76L439.53 289.5L439.49 290.25L439.44 291.01L439.36 291.77L439.27 292.54L439.16 293.31L439.04 294.08L438.89 294.86L438.73 295.64L438.56 296.42L438.36 297.21L438.15 297.99L437.93 298.78L437.69 299.57L437.43 300.36L437.15 301.14L436.86 301.93L436.55 302.71L436.23 303.5L435.89 304.28L435.53 305.06L435.16 305.83L434.78 306.6L434.37 307.37L433.95 308.13L433.52 308.89L433.07 309.64L432.61 310.38L432.13 311.12L431.95 311.39L431.77 311.67L431.57 311.96L431.35 312.26L431.12 312.58L430.88 312.91L430.62 313.25L430.36 313.6L430.08 313.96L429.79 314.33L429.49 314.7L429.18 315.09L428.87 315.49L428.54 315.89L428.2 316.3L427.86 316.72L427.51 317.15L427.15 317.57L426.78 318.01L426.41 318.45L426.03 318.89L425.65 319.34L425.26 319.79L424.87 320.24L424.47 320.7L424.08 321.15L423.67 321.61L423.27 322.07L422.86 322.53L422.45 322.99L422.04 323.44L421.64 323.9L421.23 324.35L420.82 324.8L420.41 325.25L420 325.7L419.59 326.14L419.19 326.57L418.79 327L418.39 327.43L408.58 337.61L418.88 347.91L429.18 358.34L447.08 340.68L448.13 339.64L449.14 338.64L450.12 337.67L451.07 336.75L451.98 335.85L452.86 335L453.71 334.17L454.54 333.38L455.33 332.62L456.09 331.9L456.83 331.2L457.54 330.53L458.23 329.9L458.89 329.29L459.52 328.72L460.14 328.17L460.73 327.64L461.3 327.14L461.85 326.67L462.38 326.23L462.89 325.8L463.38 325.4L463.85 325.03L464.31 324.67L464.76 324.34L465.18 324.03L465.6 323.74L466 323.46L466.39 323.21L466.77 322.97L467.14 322.75L467.5 322.55L467.85 322.36L468.19 322.19L468.53 322.03L468.86 321.88L469.18 321.75L469.5 321.63L469.82 321.52L470.13 321.43L470.94 321.18L471.71 320.95L472.45 320.73L473.15 320.54L473.85 320.38L474.53 320.27L475.21 320.2L475.91 320.19L476.63 320.25L477.37 320.37L478.16 320.58L478.99 320.87L479.87 321.26L480.83 321.75L481.85 322.36L482.96 323.07L484.16 323.92L485.47 324.9L486.88 326.01L488.42 327.28L490.08 328.7L491.89 330.29L493.83 332.04L495.94 333.98L498.21 336.1L500.66 338.42L503.28 340.93L506.11 343.66L509.13 346.6L512.36 349.77L515.82 353.17L519.5 356.81L523.42 360.7L527.59 364.84L532.01 369.25L536.7 373.93L541.67 378.88L546.91 384.12L552.46 389.65L558.3 395.49L564.13 401.32L569.66 406.85L574.9 412.09L579.86 417.05L584.53 421.73L588.94 426.15L593.08 430.31L596.97 434.23L600.61 437.91L604.01 441.35L607.18 444.58L610.12 447.6L612.85 450.42L615.37 453.05L617.68 455.49L619.8 457.76L621.74 459.86L623.49 461.81L625.08 463.61L626.5 465.28L627.77 466.81L628.89 468.23L629.86 469.53L630.71 470.74L631.43 471.85L632.03 472.88L632.52 473.83L632.91 474.72L633.2 475.56L633.41 476.34L633.53 477.09L633.59 477.82L633.58 478.52L633.51 479.21L633.4 479.9L633.24 480.6L633.05 481.31L632.84 482.06L632.6 482.83L632.36 483.65L632.25 484L632.11 484.36L631.94 484.75L631.74 485.15L631.51 485.58L631.24 486.03L630.93 486.52L630.58 487.04L630.18 487.6L629.73 488.2L629.23 488.84L628.68 489.54L628.07 490.28L627.4 491.07L626.66 491.92L625.86 492.83L624.99 493.8L624.05 494.84L623.03 495.95L621.94 497.13L620.76 498.38L619.5 499.71L618.15 501.13L616.71 502.63L615.19 504.21L613.56 505.89L611.84 507.66L610.01 509.53L608.08 511.5L606.05 513.57L603.9 515.75L601.64 518.04L599.26 520.44L596.77 522.96L594.15 525.59L591.41 528.35L588.54 531.24L585.54 534.25L582.41 537.39L579.14 540.67L575.86 543.94L572.72 547.07L569.71 550.07L566.82 552.94L564.06 555.68L561.43 558.3L558.91 560.79L556.51 563.17L554.22 565.43L552.04 567.58L549.97 569.61L548 571.54L546.14 573.37L544.37 575.09L542.69 576.71L541.11 578.24L539.61 579.68L538.2 581.03L536.86 582.29L535.61 583.47L534.44 584.56L533.33 585.58L532.3 586.52L531.33 587.39L530.42 588.19L529.57 588.93L528.78 589.6L528.05 590.21L527.36 590.76L526.72 591.26L526.13 591.71L525.57 592.11L525.06 592.46L524.58 592.77L524.13 593.04L523.71 593.27L523.31 593.47L522.94 593.64L522.58 593.77L522.25 593.89L521.42 594.13L520.63 594.37L519.88 594.58L519.16 594.78L518.45 594.93L517.76 595.05L517.06 595.11L516.35 595.12L515.62 595.07L514.87 594.94L514.07 594.73L513.23 594.44L512.34 594.05L511.38 593.56L510.35 592.96L509.23 592.24L508.03 591.4L506.72 590.42L505.3 589.3L503.76 588.04L502.09 586.61L500.29 585.03L498.34 583.27L496.24 581.34L493.97 579.21L491.52 576.9L488.9 574.38L486.08 571.65L483.06 568.71L479.83 565.54L476.38 562.14L472.7 558.5L468.78 554.61L464.62 550.47L460.2 546.06L455.52 541.39L450.56 536.43L445.32 531.19L439.79 525.66L433.96 519.83L428.12 513.99L422.59 508.45L417.35 503.2L412.4 498.24L407.72 493.55L403.32 489.12L399.17 484.96L395.29 481.04L391.65 477.36L388.25 473.91L385.08 470.68L382.13 467.66L379.41 464.84L376.89 462.21L374.58 459.77L372.45 457.5L370.52 455.39L368.76 453.44L367.18 451.64L365.75 449.98L364.49 448.44L363.37 447.03L362.39 445.72L361.55 444.52L360.83 443.41L360.23 442.38L359.74 441.42L359.35 440.53L359.06 439.69L358.85 438.9L358.72 438.15L358.67 437.43L358.68 436.72L358.74 436.02L358.86 435.33L359.01 434.62L359.2 433.9L359.42 433.15L359.65 432.37L359.9 431.54L360 431.22L360.12 430.91L360.26 430.58L360.4 430.25L360.56 429.91L360.74 429.56L360.94 429.2L361.15 428.83L361.38 428.45L361.63 428.05L361.91 427.64L362.2 427.22L362.52 426.77L362.86 426.31L363.23 425.83L363.63 425.32L364.05 424.8L364.5 424.25L364.98 423.68L365.49 423.08L366.03 422.45L366.61 421.8L367.22 421.12L367.86 420.4L368.54 419.66L369.25 418.89L370.01 418.08L370.8 417.23L371.63 416.35L372.5 415.43L373.42 414.48L374.37 413.48L375.37 412.44L376.42 411.37L377.51 410.24L378.65 409.08L379.83 407.87L381.07 406.61L382.35 405.3L383.69 403.95L405.88 381.63L395.58 371.21L385.15 360.79L339.65 406.28L338.06 401.63L337.77 400.81L337.45 399.96L337.1 399.06L336.73 398.13L336.33 397.16L335.9 396.16L335.46 395.13L334.99 394.07L334.5 392.99L333.99 391.88L333.46 390.75L332.92 389.6L332.36 388.44L331.78 387.26L331.19 386.07L330.59 384.87L329.98 383.66L329.36 382.45L328.73 381.24L328.1 380.03L327.46 378.82L326.81 377.61L326.16 376.42L325.51 375.23L324.85 374.05L324.2 372.89L323.55 371.74L322.9 370.62L322.25 369.51L321.61 368.43L320.98 367.38L320.35 366.35L319.73 365.35L319.12 364.39L318.52 363.46L317.94 362.57L317.37 361.73L316.81 360.92L316.27 360.16L315.74 359.44L314.32 357.56L312.85 355.68L311.35 353.82L309.81 351.98L308.23 350.15L306.62 348.33L304.97 346.54L303.29 344.76L301.58 343L299.84 341.26L298.07 339.55L296.27 337.85L294.44 336.17L292.59 334.52L290.71 332.89L288.8 331.28L286.87 329.7L284.92 328.14L282.95 326.61L280.95 325.11L278.94 323.63L276.9 322.19L274.85 320.77L272.78 319.38L270.7 318.02L268.6 316.69L266.49 315.4L264.36 314.14L262.23 312.91L260.08 311.71L257.92 310.55L255.76 309.43L253.59 308.34L251.41 307.29L249.22 306.28L247.03 305.31L244.84 304.37L242.64 303.48L240.44 302.62L238.25 301.81L233.59 300.22L269.89 263.92L259.46 253.5L249.16 243.07L231.26 260.73L230.21 261.77L229.2 262.77L228.22 263.73L227.27 264.66L226.36 265.55L225.48 266.41L224.63 267.24L223.8 268.03L223.01 268.79L222.25 269.51L221.51 270.21L220.8 270.87L220.11 271.51L219.45 272.11L218.82 272.69L218.2 273.24L217.61 273.77L217.04 274.26L216.49 274.73L215.96 275.18L215.45 275.6L214.96 276L214.49 276.38L214.03 276.73L213.58 277.07L213.16 277.38L212.74 277.67L212.34 277.95L211.95 278.2L211.57 278.44L211.2 278.66L210.84 278.86L210.49 279.05L210.15 279.22L209.81 279.38L209.48 279.52L209.16 279.66L208.84 279.78L208.52 279.88L208.21 279.98L207.4 280.23L206.63 280.46L205.9 280.68L205.19 280.87L204.5 281.02L203.82 281.14L203.13 281.2L202.43 281.21L201.72 281.16L200.97 281.03L200.19 280.82L199.36 280.53L198.47 280.14L197.52 279.65L196.49 279.05L195.38 278.33L194.18 277.48L192.88 276.51L191.46 275.39L189.93 274.12L188.26 272.7L186.46 271.12L184.51 269.36L182.41 267.42L180.14 265.3L177.69 262.99L175.06 260.47L172.24 257.74L169.22 254.8L165.98 251.63L162.53 248.23L158.85 244.59L154.93 240.7L150.76 236.56L146.33 232.15L141.64 227.47L136.68 222.52L131.43 217.28L125.89 211.75L120.05 205.91L114.22 200.07L108.68 194.53L103.44 189.28L98.49 184.32L93.81 179.63L89.41 175.21L85.26 171.04L81.38 167.13L77.74 163.45L74.34 159.99L71.17 156.76L68.22 153.74L65.5 150.92L62.98 148.3L60.66 145.85L58.54 143.58L56.61 141.48L54.85 139.53L53.26 137.73L51.84 136.07L50.58 134.53L49.46 133.11L48.48 131.81L47.64 130.6L46.92 129.49L46.32 128.46L45.82 127.51L45.44 126.62L45.14 125.78L44.94 124.99L44.81 124.24L44.75 123.51L44.76 122.81L44.83 122.11L44.94 121.41L45.1 120.71L45.29 119.99L45.5 119.24L45.74 118.46L45.98 117.63L46.1 117.29L46.24 116.93L46.4 116.56L46.6 116.16L46.83 115.74L47.1 115.29L47.41 114.81L47.75 114.29L48.15 113.74L48.59 113.15L49.08 112.51L49.63 111.83L50.23 111.1L50.89 110.31L51.62 109.47L52.4 108.57L53.26 107.61L54.18 106.59L55.18 105.5L56.26 104.34L57.41 103.1L58.64 101.79L59.96 100.4L61.37 98.93L62.86 97.37L64.45 95.72L66.13 93.98L67.91 92.15L69.8 90.22L71.78 88.19L73.88 86.06L76.08 83.82L78.39 81.47L80.82 79.01L83.37 76.43L86.04 73.73L88.83 70.92L91.75 67.98L94.8 64.91L97.98 61.71L100.48 59.21L102.92 56.77L105.31 54.39L107.63 52.07L109.91 49.82L112.12 47.62L114.27 45.48L116.37 43.4L118.41 41.39L120.4 39.43L122.33 37.53L124.2 35.7L126.01 33.92L127.76 32.2L129.46 30.55L131.1 28.95L132.69 27.42L134.21 25.94L135.68 24.53L137.09 23.17L138.45 21.88L139.75 20.65L140.99 19.47L142.17 18.36L143.3 17.31L144.37 16.31L145.39 15.38L146.34 14.51L147.24 13.7L148.09 12.94L148.87 12.25L149.6 11.62L150.28 11.05L150.89 10.54L151.45 10.09L151.96 9.7L152.4 9.37L152.79 9.1L153.13 8.89L153.4 8.74L153.86 8.53L154.3 8.33L154.74 8.15L155.17 7.98L155.6 7.81L156.01 7.66L156.42 7.52L156.82 7.38L157.22 7.26L157.62 7.15L158 7.05L158.39 6.96L158.77 6.88L159.15 6.81L159.52 6.76L159.9 6.71L160.27 6.67L160.64 6.65L161 6.63L161.37 6.62L161.74 6.63L162.11 6.65ZM516.98 547.79L530.71 533.93L544.57 520.2L516.37 492L488.78 519.59L516.98 547.79ZM558.67 506.1L572.4 492.24L586.26 478.51L558.06 450.31L530.47 477.9L558.67 506.1ZM475.15 451.6L475.02 451.69L474.86 451.82L474.67 451.98L474.44 452.18L474.18 452.41L473.89 452.67L473.58 452.96L473.23 453.28L472.86 453.62L472.46 454L472.03 454.4L471.58 454.83L471.11 455.28L470.61 455.75L470.1 456.25L469.56 456.77L469 457.31L468.43 457.87L467.84 458.44L467.23 459.04L466.61 459.65L465.97 460.28L465.32 460.92L464.65 461.57L463.98 462.24L463.29 462.92L462.6 463.61L461.9 464.31L461.19 465.02L447.7 478.51L475.29 506.1L502.88 478.51L489.39 465.02L488.68 464.31L487.98 463.61L487.28 462.92L486.6 462.24L485.93 461.57L485.26 460.92L484.61 460.28L483.97 459.65L483.35 459.04L482.74 458.44L482.15 457.87L481.58 457.31L481.02 456.77L480.48 456.25L479.97 455.75L479.47 455.28L479 454.83L478.55 454.4L478.12 454L477.72 453.62L477.35 453.28L477 452.96L476.69 452.67L476.4 452.41L476.14 452.18L475.91 451.98L475.72 451.82L475.56 451.69L475.43 451.6L475.34 451.55L475.29 451.53L475.24 451.55L475.15 451.6ZM516.83 409.91L516.71 410L516.55 410.13L516.35 410.29L516.13 410.49L515.87 410.72L515.58 410.98L515.26 411.27L514.92 411.59L514.55 411.93L514.15 412.31L513.72 412.71L513.27 413.14L512.8 413.59L512.3 414.06L511.79 414.56L511.25 415.08L510.69 415.62L510.12 416.18L509.53 416.75L508.92 417.35L508.29 417.96L507.66 418.59L507.01 419.23L506.34 419.88L505.67 420.55L504.98 421.23L504.29 421.92L503.59 422.62L502.88 423.33L489.39 436.82L516.98 464.41L544.57 436.82L531.08 423.33L530.37 422.62L529.67 421.92L528.97 421.23L528.29 420.55L527.62 419.88L526.95 419.23L526.3 418.59L525.66 417.96L525.04 417.35L524.43 416.75L523.84 416.18L523.27 415.62L522.71 415.08L522.17 414.56L521.66 414.06L521.16 413.59L520.69 413.14L520.24 412.71L519.81 412.31L519.41 411.93L519.04 411.59L518.69 411.27L518.38 410.98L518.09 410.72L517.83 410.49L517.6 410.29L517.41 410.13L517.25 410L517.12 409.91L517.03 409.86L516.98 409.84L516.93 409.86L516.83 409.91ZM433.45 409.9L433.32 409.99L433.16 410.11L432.97 410.27L432.74 410.47L432.49 410.69L432.2 410.95L431.88 411.23L431.53 411.55L431.16 411.89L430.76 412.26L430.33 412.66L429.89 413.08L429.41 413.53L428.92 414L428.4 414.5L427.86 415.01L427.31 415.55L426.73 416.11L426.14 416.69L425.53 417.28L424.91 417.9L424.27 418.52L423.62 419.17L422.96 419.83L422.28 420.5L421.6 421.19L420.91 421.89L420.2 422.6L419.49 423.32L406 436.81L419.49 450.3L420.2 451.01L420.91 451.71L421.6 452.4L422.29 453.07L422.97 453.74L423.64 454.4L424.3 455.04L424.95 455.67L425.59 456.28L426.21 456.87L426.82 457.45L427.41 458.01L427.98 458.55L428.54 459.07L429.07 459.56L429.59 460.04L430.08 460.49L430.56 460.92L431.01 461.32L431.43 461.69L431.83 462.04L432.2 462.36L432.55 462.65L432.87 462.91L433.16 463.14L433.41 463.33L433.64 463.49L433.83 463.62L433.99 463.71L434.12 463.77L434.21 463.79L434.3 463.77L434.42 463.72L434.58 463.63L434.77 463.5L434.99 463.35L435.25 463.16L435.53 462.94L435.84 462.69L436.18 462.41L436.55 462.1L436.94 461.76L437.36 461.4L437.8 461.01L438.27 460.6L438.76 460.16L439.26 459.69L439.79 459.21L440.34 458.7L440.9 458.17L441.48 457.63L442.08 457.06L442.69 456.48L443.31 455.87L443.95 455.26L444.6 454.62L445.26 453.97L445.93 453.31L446.6 452.64L447.29 451.95L447.98 451.25L448.68 450.55L461.8 437.43L447.94 423.57L447.21 422.85L446.49 422.14L445.77 421.44L445.07 420.75L444.37 420.07L443.69 419.4L443.02 418.75L442.36 418.11L441.72 417.49L441.1 416.88L440.49 416.29L439.91 415.73L439.34 415.18L438.79 414.65L438.26 414.14L437.76 413.66L437.28 413.2L436.82 412.76L436.39 412.35L435.99 411.97L435.61 411.62L435.26 411.29L434.94 410.99L434.66 410.73L434.4 410.5L434.18 410.3L433.99 410.13L433.84 410L433.72 409.9L433.64 409.84L433.59 409.82L433.54 409.84L433.45 409.9ZM475.14 368.22L475.01 368.31L474.85 368.44L474.66 368.6L474.43 368.79L474.17 369.02L473.89 369.28L473.57 369.57L473.22 369.89L472.85 370.24L472.45 370.61L472.02 371.01L471.57 371.44L471.1 371.89L470.61 372.37L470.09 372.86L469.55 373.38L469 373.92L468.42 374.48L467.83 375.06L467.22 375.65L466.6 376.26L465.96 376.89L465.31 377.53L464.65 378.19L463.97 378.85L463.29 379.53L462.59 380.22L461.89 380.92L461.18 381.63L447.7 395.13L475.9 423.33L503.49 395.74L489.75 382L489.02 381.27L488.3 380.55L487.58 379.84L486.88 379.14L486.18 378.45L485.5 377.78L484.83 377.12L484.17 376.47L483.53 375.84L482.91 375.23L482.3 374.64L481.71 374.06L481.14 373.51L480.59 372.98L480.06 372.47L479.56 371.98L479.07 371.52L478.61 371.08L478.18 370.67L477.77 370.29L477.39 369.93L477.03 369.61L476.71 369.31L476.41 369.04L476.15 368.81L475.92 368.61L475.72 368.44L475.56 368.31L475.43 368.22L475.34 368.16L475.28 368.14L475.23 368.16L475.14 368.22ZM188.5 192.02L187.82 192.71L187.14 193.4L186.47 194.08L185.82 194.74L185.18 195.4L184.56 196.05L183.94 196.69L183.35 197.31L182.77 197.92L182.21 198.52L181.67 199.1L181.14 199.66L180.64 200.2L180.16 200.73L179.7 201.23L179.26 201.71L178.85 202.17L178.46 202.61L178.1 203.02L177.76 203.41L177.45 203.77L177.18 204.11L176.93 204.41L176.71 204.69L176.52 204.94L176.36 205.15L176.24 205.33L176.15 205.48L176.1 205.59L176.08 205.67L176.1 205.76L176.15 205.88L176.24 206.04L176.37 206.24L176.53 206.46L176.73 206.72L176.96 207.01L177.22 207.33L177.51 207.67L177.83 208.05L178.17 208.45L178.55 208.87L178.95 209.32L179.38 209.79L179.83 210.29L180.3 210.8L180.8 211.34L181.32 211.9L181.86 212.47L182.42 213.06L182.99 213.67L183.59 214.29L184.2 214.92L184.83 215.57L185.47 216.23L186.12 216.9L186.79 217.58L187.47 218.27L188.16 218.97L188.86 219.67L189.57 220.38L203.06 233.88L216.92 220.02L230.64 206.28L202.44 178.08L189.2 191.32L188.5 192.02ZM244.76 192.18L258.49 178.32L272.35 164.59L244.15 136.39L216.56 163.98L244.76 192.18ZM161.23 137.68L161.1 137.77L160.94 137.9L160.75 138.06L160.52 138.26L160.26 138.49L159.97 138.75L159.66 139.04L159.31 139.36L158.94 139.7L158.54 140.08L158.11 140.48L157.66 140.91L157.19 141.36L156.69 141.83L156.18 142.33L155.64 142.85L155.08 143.39L154.51 143.95L153.92 144.52L153.31 145.12L152.69 145.73L152.05 146.36L151.4 147L150.73 147.65L150.06 148.32L149.37 149L148.68 149.69L147.98 150.39L147.27 151.1L133.78 164.59L161.37 192.18L175.1 178.44L188.96 164.6L175.47 151.1L174.76 150.4L174.06 149.7L173.37 149.01L172.68 148.33L172.01 147.66L171.34 147L170.69 146.36L170.06 145.73L169.43 145.12L168.83 144.53L168.23 143.95L167.66 143.39L167.1 142.85L166.57 142.33L166.05 141.84L165.55 141.36L165.08 140.91L164.63 140.48L164.21 140.08L163.81 139.71L163.43 139.36L163.09 139.04L162.77 138.75L162.48 138.49L162.22 138.26L161.99 138.06L161.8 137.9L161.64 137.77L161.51 137.68L161.42 137.63L161.37 137.61L161.32 137.63L161.23 137.68ZM119.54 96L119.41 96.09L119.25 96.22L119.06 96.38L118.83 96.58L118.57 96.8L118.28 97.06L117.97 97.35L117.62 97.67L117.25 98.02L116.85 98.4L116.42 98.8L115.97 99.22L115.5 99.67L115 100.15L114.49 100.65L113.95 101.16L113.39 101.7L112.82 102.26L112.23 102.84L111.62 103.43L111 104.05L110.36 104.67L109.71 105.31L109.04 105.97L108.37 106.64L107.69 107.32L106.99 108.01L106.29 108.71L105.58 109.41L92.09 122.91L120.29 151.1L147.88 123.51L134.14 109.78L133.41 109.05L132.69 108.33L131.97 107.61L131.27 106.91L130.57 106.23L129.89 105.55L129.22 104.89L128.57 104.25L127.93 103.62L127.3 103.01L126.7 102.41L126.11 101.84L125.54 101.29L124.99 100.76L124.46 100.25L123.95 99.76L123.47 99.3L123.01 98.86L122.57 98.45L122.16 98.07L121.78 97.71L121.43 97.38L121.1 97.09L120.81 96.82L120.55 96.59L120.31 96.39L120.12 96.22L119.95 96.09L119.83 96L119.73 95.94L119.68 95.92L119.63 95.94L119.54 96ZM202.92 95.99L202.8 96.08L202.64 96.21L202.44 96.37L202.21 96.57L201.96 96.8L201.67 97.06L201.35 97.35L201.01 97.67L200.63 98.01L200.23 98.39L199.81 98.79L199.36 99.22L198.88 99.67L198.39 100.14L197.87 100.64L197.34 101.16L196.78 101.7L196.2 102.26L195.61 102.83L195 103.43L194.38 104.04L193.74 104.67L193.09 105.31L192.43 105.96L191.76 106.63L191.07 107.31L190.38 108L189.68 108.7L188.97 109.41L175.48 122.9L203.07 150.49L230.66 122.9L217.16 109.41L216.46 108.7L215.75 108L215.06 107.31L214.38 106.63L213.7 105.97L213.04 105.31L212.39 104.67L211.75 104.04L211.13 103.43L210.52 102.84L209.93 102.26L209.35 101.7L208.8 101.16L208.26 100.64L207.74 100.15L207.25 99.67L206.77 99.22L206.32 98.79L205.9 98.39L205.5 98.02L205.13 97.67L204.78 97.35L204.46 97.06L204.17 96.8L203.92 96.57L203.69 96.38L203.5 96.21L203.34 96.08L203.21 95.99L203.12 95.94L203.07 95.92L203.01 95.94L202.92 95.99ZM161.23 54.3L161.11 54.4L160.95 54.52L160.75 54.69L160.53 54.88L160.27 55.11L159.98 55.37L159.66 55.66L159.32 55.98L158.94 56.32L158.54 56.7L158.12 57.1L157.67 57.53L157.19 57.98L156.7 58.45L156.18 58.95L155.65 59.47L155.09 60.01L154.51 60.57L153.92 61.14L153.31 61.74L152.69 62.35L152.05 62.98L151.4 63.62L150.74 64.27L150.07 64.94L149.38 65.62L148.69 66.31L147.99 67.01L147.28 67.72L133.79 81.21L161.98 109.41L189.57 81.82L175.84 68.08L175.11 67.35L174.38 66.63L173.67 65.92L172.96 65.22L172.27 64.53L171.59 63.86L170.92 63.2L170.26 62.55L169.62 61.93L169 61.31L168.39 60.72L167.8 60.15L167.23 59.59L166.68 59.06L166.15 58.55L165.64 58.07L165.16 57.6L164.7 57.17L164.26 56.76L163.86 56.37L163.47 56.02L163.12 55.69L162.8 55.39L162.5 55.13L162.24 54.89L162.01 54.7L161.81 54.53L161.65 54.4L161.52 54.3L161.43 54.25L161.38 54.23L161.32 54.25L161.23 54.3Z" id="czH43VyxS"></path><path d="M86.82 324.49C83.38 330.87 84.12 344.48 88.77 358.21C95.76 378.57 110.36 404.93 127.4 427.87C127.9 428.54 130.39 431.94 134.88 438.04C139.15 430.47 141.52 426.26 141.99 425.41C145.79 418.55 148.98 412.29 149.1 411.68C149.1 410.94 146.4 407.14 143.21 403.1C128.13 384.34 117.22 365.95 117.22 359.56C117.22 348.53 136.96 353.56 164.67 371.71C199.99 394.76 243.27 437.68 266.82 472.99C285.45 500.7 291.46 522.66 280.55 522.66C274.78 522.66 261.18 515.05 244.5 502.43C235.92 496.05 228.56 490.78 228.19 490.78C227.33 490.78 207.35 502.43 204.65 504.63C202.69 506.11 206.24 509.05 225.61 522.05C265.47 548.53 301.76 560.92 315.87 552.7C321.63 549.27 329.6 536.88 333.4 525.48C346.76 484.77 334.5 426.28 303.24 382.01C293.67 368.52 274.18 348.65 260.93 338.97C221.57 310.02 171.92 296.17 130.47 302.54C111.22 305.61 91.85 315.3 86.82 324.49Z" id="bbJ2lD74"></path><path d="M164.44 455.21C155.85 469.68 148.61 481.82 148.37 482.07C148.13 482.31 147.14 481.95 146.28 481.21C145.43 480.47 141.75 479.24 138.19 478.39C120.41 474.59 104.47 488.08 104.47 506.71C104.47 523.64 116.36 535.4 133.16 535.4C153.39 535.4 166.52 516.89 160.13 497.52C159.28 495.07 158.91 492.86 159.16 492.61C159.28 492.49 171.91 484.4 187.11 474.84C202.32 465.27 215.68 456.56 216.91 455.46C221.81 451.17 218.26 440.99 208.33 430.94C197.54 420.13 188.22 417.81 183.07 424.8C181.36 427.01 173.02 440.74 164.44 455.21Z" id="c1ETmwm9dZ"></path><path d="M50.89 541.04C57.39 568.27 78.48 586.78 106.8 589.97C116.36 591.07 132.92 589.73 138.32 587.52C142.61 585.8 144.08 581.02 141.63 576.73C139.91 573.66 139.17 573.54 126.42 572.81C110.85 571.95 101.77 569.25 91.6 562.26C75.65 551.23 66.95 533.44 66.95 511.37C66.95 501.81 66.71 500.58 64.25 498.87C61.18 496.65 57.51 496.41 54.44 498.12C49.91 500.82 47.7 527.55 50.89 541.04Z" id="a1gyNGyQkZ"></path><path d="M8.46 559.93C15.7 589.24 32.01 610.69 56.41 622.59C73.7 631.17 83.76 633.38 104.97 633.38C118.33 633.26 124.83 632.77 131.33 631.05C131.9 630.9 134.76 630.12 139.91 628.72C140.13 625.26 140.25 623.34 140.28 622.96C140.77 614.74 138.19 613.27 125.8 614.74C115.38 615.97 99.32 614.5 89.02 611.43C66.09 604.68 46.34 588.26 35.07 566.55C27.22 551.58 25.01 541.16 25.01 520.2C25.01 509.77 24.52 501.8 23.78 500.83C21.82 498.5 12.13 498.98 10.79 501.44C6.13 510.39 4.9 544.97 8.46 559.93Z" id="fw7REyA"></path></defs><g><g><g><use xlink:href="#czH43VyxS" opacity="1" fill="#ffffff" fill-opacity="1"></use><g><use xlink:href="#czH43VyxS" opacity="1" fill-opacity="0" stroke="#000000" stroke-width="1" stroke-opacity="0"></use></g></g><g><use xlink:href="#bbJ2lD74" opacity="1" fill="#ffffff" fill-opacity="1"></use><g><use xlink:href="#bbJ2lD74" opacity="1" fill-opacity="0" stroke="#000000" stroke-width="1" stroke-opacity="0"></use></g></g><g><use xlink:href="#c1ETmwm9dZ" opacity="1" fill="#ffffff" fill-opacity="1"></use><g><use xlink:href="#c1ETmwm9dZ" opacity="1" fill-opacity="0" stroke="#000000" stroke-width="1" stroke-opacity="0"></use></g></g><g><use xlink:href="#a1gyNGyQkZ" opacity="1" fill="#ffffff" fill-opacity="1"></use><g><use xlink:href="#a1gyNGyQkZ" opacity="1" fill-opacity="0" stroke="#000000" stroke-width="1" stroke-opacity="0"></use></g></g><g><use xlink:href="#fw7REyA" opacity="1" fill="#ffffff" fill-opacity="1"></use><g><use xlink:href="#fw7REyA" opacity="1" fill-opacity="0" stroke="#000000" stroke-width="1" stroke-opacity="0"></use></g></g></g></g></svg>