<?xml version="1.0" encoding="UTF-8" standalone="no"?>
<!DOCTYPE svg PUBLIC "-//W3C//DTD SVG 1.1//EN" "http://www.w3.org/Graphics/SVG/1.1/DTD/svg11.dtd">
<svg version="1.1" xmlns="http://www.w3.org/2000/svg" xmlns:xlink="http://www.w3.org/1999/xlink" preserveAspectRatio="xMidYMid meet" viewBox="0 0 640 640" width="640" height="640"><defs><path d="M281.87 7.24L292.14 8.29L302.29 9.73L312.3 11.57L322.17 13.8L331.9 16.4L341.46 19.38L350.86 22.72L360.09 26.41L369.14 30.44L377.99 34.82L386.65 39.52L395.1 44.54L403.34 49.88L411.35 55.52L419.13 61.46L426.68 67.68L433.97 74.19L441.02 80.97L447.79 88.01L454.3 95.31L460.53 102.85L466.46 110.63L472.1 118.65L477.44 126.88L482.46 135.33L487.17 143.99L491.54 152.85L495.58 161.89L499.27 171.12L502.6 180.52L505.58 190.09L508.18 199.81L510.41 209.68L512.25 219.7L513.7 229.84L514.74 240.11L515.37 250.5L515.58 260.99L515.56 264.52L515.49 268.04L515.37 271.55L515.2 275.05L514.98 278.53L514.72 282L514.4 285.46L514.05 288.9L513.64 292.33L513.19 295.74L512.7 299.14L512.16 302.53L511.57 305.9L510.95 309.25L510.27 312.59L509.55 315.92L508.79 319.23L507.99 322.52L507.14 325.79L506.26 329.05L505.33 332.29L504.35 335.51L503.34 338.71L502.29 341.9L501.19 345.07L500.05 348.21L498.88 351.34L497.66 354.45L496.41 357.54L495.12 360.61L493.79 363.66L492.42 366.69L491.01 369.7L489.56 372.69L488.08 375.65L486.56 378.59L485.01 381.52L483.42 384.41L481.79 387.29L480.13 390.14L614.98 524.93L615.9 526.29L616.79 527.65L617.66 528.99L618.51 530.32L619.34 531.64L620.14 532.94L620.92 534.23L621.68 535.51L622.41 536.78L623.12 538.04L623.81 539.28L624.47 540.51L625.11 541.73L625.73 542.93L626.33 544.13L626.9 545.31L627.44 546.47L627.97 547.63L628.47 548.77L628.94 549.9L629.4 551.02L629.83 552.13L630.24 553.22L630.62 554.3L630.98 555.37L631.32 556.43L631.63 557.47L631.92 558.51L632.19 559.53L632.44 560.53L632.66 561.53L632.86 562.51L633.03 563.48L633.18 564.44L633.31 565.38L633.41 566.31L633.5 567.23L633.55 568.14L633.59 569.04L633.6 569.92L633.55 572.54L633.39 575.14L633.13 577.71L632.77 580.24L632.31 582.74L631.75 585.21L631.1 587.64L630.36 590.03L629.52 592.39L628.6 594.69L627.59 596.96L626.5 599.17L625.32 601.34L624.07 603.45L622.74 605.51L621.33 607.51L619.84 609.46L618.29 611.35L616.66 613.17L614.97 614.94L613.21 616.63L611.39 618.26L609.5 619.82L607.56 621.3L605.55 622.72L603.5 624.05L601.38 625.31L599.22 626.49L597.01 627.58L594.75 628.59L592.44 629.51L590.09 630.35L587.7 631.1L585.27 631.75L582.81 632.3L580.3 632.77L577.77 633.13L575.2 633.39L572.61 633.55L569.98 633.6L568.67 633.59L567.36 633.55L566.05 633.48L564.76 633.39L563.47 633.27L562.19 633.13L560.92 632.96L559.65 632.77L558.4 632.55L557.15 632.31L555.91 632.04L554.68 631.75L553.46 631.44L552.25 631.1L551.05 630.74L549.86 630.36L548.68 629.96L547.51 629.53L546.35 629.08L545.21 628.61L544.07 628.11L542.95 627.6L541.84 627.06L540.74 626.51L539.65 625.93L538.57 625.33L537.51 624.72L536.46 624.08L535.43 623.42L534.41 622.75L533.4 622.05L532.41 621.34L531.43 620.6L530.46 619.85L529.51 619.08L528.58 618.3L527.66 617.49L526.75 616.67L525.86 615.83L524.99 614.98L390.14 480.13L387.29 481.79L384.42 483.42L381.52 485.01L378.6 486.56L375.65 488.08L372.69 489.56L369.7 491.01L366.7 492.42L363.67 493.79L360.62 495.12L357.55 496.41L354.47 497.66L351.36 498.88L348.23 500.05L345.08 501.19L341.92 502.29L338.73 503.34L335.53 504.35L332.31 505.33L329.07 506.26L325.82 507.14L322.54 507.99L319.25 508.79L315.95 509.55L312.62 510.27L309.28 510.95L305.93 511.57L302.56 512.16L299.17 512.7L295.77 513.19L292.35 513.64L288.92 514.05L285.48 514.4L282.02 514.72L278.55 514.98L275.06 515.2L271.56 515.37L268.05 515.49L264.53 515.56L260.99 515.58L250.5 515.37L240.11 514.74L229.84 513.7L219.7 512.25L209.68 510.41L199.81 508.18L190.09 505.58L180.52 502.6L171.12 499.27L161.89 495.58L152.85 491.54L143.99 487.17L135.33 482.46L126.88 477.44L118.65 472.1L110.63 466.46L102.85 460.53L95.31 454.3L88.01 447.79L80.97 441.02L74.19 433.97L67.68 426.68L61.46 419.13L55.52 411.35L49.88 403.34L44.54 395.1L39.52 386.65L34.82 377.99L30.44 369.14L26.41 360.09L22.72 350.86L19.38 341.46L16.4 331.9L13.8 322.17L11.57 312.3L9.73 302.29L8.29 292.14L7.24 281.87L6.61 271.49L6.4 260.99L6.61 250.5L7.24 240.11L8.29 229.84L9.73 219.7L11.57 209.68L13.8 199.81L16.4 190.09L19.38 180.52L22.72 171.12L26.41 161.89L30.44 152.85L34.82 143.99L39.52 135.33L44.54 126.88L49.88 118.65L55.52 110.63L61.46 102.85L67.68 95.31L74.19 88.01L80.97 80.97L88.01 74.19L95.31 67.68L102.85 61.46L110.63 55.52L118.65 49.88L126.88 44.54L135.33 39.52L143.99 34.82L152.85 30.44L161.89 26.41L171.12 22.72L180.52 19.38L190.09 16.4L199.81 13.8L209.68 11.57L219.7 9.73L229.84 8.29L240.11 7.24L250.5 6.61L260.99 6.4L271.49 6.61L281.87 7.24ZM245.33 70.65L237.63 71.43L230.01 72.52L222.5 73.9L215.1 75.57L207.8 77.52L200.63 79.75L193.58 82.26L186.66 85.02L179.87 88.05L173.23 91.33L166.73 94.86L160.39 98.63L154.22 102.63L148.2 106.86L142.37 111.32L136.71 115.99L131.23 120.87L125.95 125.95L120.87 131.23L115.99 136.71L111.32 142.37L106.86 148.2L102.63 154.22L98.63 160.39L94.86 166.73L91.33 173.23L88.05 179.87L85.02 186.66L82.26 193.58L79.75 200.63L77.52 207.8L75.57 215.1L73.9 222.5L72.52 230.01L71.43 237.63L70.65 245.33L70.18 253.12L70.02 260.99L70.18 268.86L70.65 276.65L71.43 284.36L72.52 291.97L73.9 299.48L75.57 306.88L77.52 314.17L79.75 321.35L82.25 328.4L85.02 335.32L88.05 342.1L91.33 348.74L94.86 355.23L98.63 361.57L102.63 367.75L106.86 373.76L111.31 379.59L115.98 385.25L120.86 390.72L125.94 396L131.22 401.08L136.7 405.96L142.35 410.63L148.19 415.08L154.2 419.31L160.38 423.31L166.71 427.08L173.21 430.6L179.85 433.88L186.63 436.91L193.55 439.67L200.6 442.17L207.77 444.4L215.06 446.36L222.46 448.03L229.97 449.41L237.57 450.49L245.27 451.27L253.06 451.74L260.93 451.9L268.8 451.74L276.58 451.27L284.28 450.49L291.89 449.4L299.39 448.02L306.8 446.35L314.09 444.4L321.26 442.17L328.31 439.67L335.23 436.9L342.01 433.87L348.65 430.59L355.14 427.06L361.48 423.29L367.66 419.29L373.67 415.06L379.5 410.61L385.16 405.94L390.63 401.06L395.91 395.98L400.99 390.7L405.87 385.22L410.54 379.57L415 373.73L419.23 367.72L423.23 361.54L427 355.21L430.53 348.71L433.81 342.07L436.83 335.29L439.6 328.37L442.1 321.32L444.34 314.15L446.29 306.86L447.96 299.46L449.34 291.95L450.42 284.35L451.21 276.65L451.68 268.86L451.84 260.99L451.69 253.12L451.22 245.33L450.44 237.63L449.36 230.01L447.98 222.5L446.32 215.1L444.37 207.8L442.14 200.63L439.64 193.58L436.88 186.66L433.86 179.87L430.58 173.23L427.06 166.73L423.29 160.39L419.29 154.22L415.07 148.2L410.62 142.37L405.95 136.71L401.07 131.23L395.99 125.95L390.71 120.87L385.24 115.99L379.59 111.32L373.75 106.86L367.74 102.63L361.57 98.63L355.23 94.86L348.74 91.33L342.1 88.05L335.32 85.02L328.4 82.26L321.35 79.75L314.17 77.52L306.88 75.57L299.48 73.9L291.97 72.52L284.36 71.43L276.65 70.65L268.86 70.18L260.99 70.02L253.12 70.18L245.33 70.65Z" id="ab9GiQQZj"></path></defs><g><g><g><use xlink:href="#ab9GiQQZj" opacity="1" fill="#ffffff" fill-opacity="1"></use><g><use xlink:href="#ab9GiQQZj" opacity="1" fill-opacity="0" stroke="#000000" stroke-width="1" stroke-opacity="0"></use></g></g></g></g></svg>