<?xml version="1.0" encoding="UTF-8"?>
<svg width="32px" height="32px" viewBox="0 0 32 32" version="1.1" xmlns="http://www.w3.org/2000/svg" xmlns:xlink="http://www.w3.org/1999/xlink">
    <!-- Generator: Sketch 52.5 (67469) - http://www.bohemiancoding.com/sketch -->
    <title>ic_remote@3x</title>
    <desc>Created with Sketch.</desc>
    <g id="ic_remote" stroke="none" stroke-width="1" fill="none" fill-rule="evenodd">
        <rect id="Rectangle" fill-rule="nonzero" x="0" y="0" width="32" height="32"></rect>
        <g transform="translate(4.000000, 2.000000)">
            <g id="control-room-copy">
                <g id="Group-10">
                    <g id="Group-12" fill="#3B5256" fill-opacity="0.7" stroke="#2C3A3D">
                        <circle id="Oval-7" cx="12.5" cy="12.5" r="13"></circle>
                    </g>
                    <polygon id="Triangle-2" fill="#2C3A3D" fill-rule="nonzero" transform="translate(12.500000, 27.000000) scale(1, -1) translate(-12.500000, -27.000000) " points="12.5 25 16 29 9 29"></polygon>
                </g>
            </g>
            <g id="baseline-settings_remote-24px" transform="translate(4.000000, 4.000000)">
                <polygon id="Shape" points="0 0 17 0 17 17 0 17"></polygon>
                <path d="M10.6257235,6.26086957 L6.38135048,6.26086957 C5.99228296,6.26086957 5.67395498,6.57391304 5.67395498,6.95652174 L5.67395498,15.3043478 C5.67395498,15.6869565 5.99228296,16 6.38135048,16 L10.6257235,16 C11.014791,16 11.333119,15.6869565 11.333119,15.3043478 L11.333119,6.95652174 C11.333119,6.57391304 11.014791,6.26086957 10.6257235,6.26086957 Z M8.50353698,10.4347826 C7.72540193,10.4347826 7.08874598,9.80869565 7.08874598,9.04347826 C7.08874598,8.27826087 7.72540193,7.65217391 8.50353698,7.65217391 C9.28167203,7.65217391 9.91832797,8.27826087 9.91832797,9.04347826 C9.91832797,9.80869565 9.28167203,10.4347826 8.50353698,10.4347826 Z M5.00192926,4.20869565 L5.99935691,5.18956522 C6.64308682,4.56347826 7.52733119,4.17391304 8.50353698,4.17391304 C9.47974277,4.17391304 10.3639871,4.56347826 11.007717,5.18956522 L12.0051447,4.20869565 C11.1067524,3.32521739 9.86881029,2.7826087 8.50353698,2.7826087 C7.13826367,2.7826087 5.90032154,3.32521739 5.00192926,4.20869565 Z M8.50353698,0 C6.35305466,0 4.40771704,0.855652174 3,2.24 L3.99742765,3.22086957 C5.15048232,2.09391304 6.74212219,1.39130435 8.50353698,1.39130435 C10.2649518,1.39130435 11.8565916,2.09391304 13.0025723,3.22782609 L14,2.24695652 C12.5993569,0.855652174 10.6540193,0 8.50353698,0 Z" id="Shape" fill="#FFFFFF" fill-rule="nonzero"></path>
            </g>
        </g>
    </g>
</svg>