<?xml version="1.0" ?><!DOCTYPE svg  PUBLIC '-//W3C//DTD SVG 20010904//EN'  'http://www.w3.org/TR/2001/REC-SVG-20010904/DTD/svg10.dtd'><svg height="256.000000pt" preserveAspectRatio="xMidYMid meet" version="1.0" viewBox="0 0 256.000000 256.000000" width="256.000000pt" xmlns="http://www.w3.org/2000/svg"><g fill="#000000" stroke="none" transform="translate(0.000000,256.000000) scale(0.100000,-0.100000)"><path d="M2343 2421 c-43 -32 -122 -97 -176 -144 l-98 -85 -77 24 c-264 83 -680 191 -772 200 -98 11 -120 -1 -290 -160 -156 -145 -296 -286 -427 -430 l-71 -78 -162 23 -161 23 -22 -22 c-40 -41 3 -73 194 -145 l112 -43 33 -149 c40 -181 102 -408 154 -569 32 -97 37 -123 27 -135 -7 -9 -40 -49 -75 -88 -101 -118 -182 -233 -182 -259 0 -34 32 -48 69 -30 34 18 154 112 258 202 l72 63 73 -25 c158 -54 575 -165 753 -199 16 -3 33 -34 74 -138 61 -156 73 -177 107 -177 43 0 49 33 29 172 -10 67 -20 137 -22 153 -4 28 9 42 170 192 186 172 402 399 448 472 41 63 44 110 19 242 -26 143 -97 416 -155 604 -25 79 -45 148 -45 153 0 4 37 50 81 102 110 128 199 248 199 269 0 9 -5 22 -12 29 -22 22 -45 13 -125 -47z m-975 -136 c64 -14 169 -39 232 -56 314 -83 370 -109 356 -163 -16 -63 -436 -474 -542 -530 -55 -30 -55 -30 -137 -18 -105 16 -366 81 -529 132 -140 45 -167 65 -149 112 21 57 481 505 549 535 41 18 91 15 220 -12z m756 -347 c26 -41 111 -335 161 -563 36 -162 32 -216 -20 -282 -21 -26 -138 -148 -260 -270 -182 -184 -225 -223 -248 -223 -52 0 -65 16 -97 118 -61 195 -132 495 -137 584 -5 80 -4 90 20 130 44 75 438 480 502 516 32 18 63 14 79 -10z m-1294 -435 c96 -24 243 -66 326 -94 157 -51 183 -67 217 -135 36 -71 187 -621 187 -680 0 -39 -27 -64 -68 -64 -55 0 -353 77 -564 146 -134 44 -182 78 -213 149 -47 105 -185 608 -185 672 0 13 9 32 21 44 25 25 37 24 279 -38z"/></g></svg>