<?xml version="1.0" encoding="UTF-8" standalone="no"?>
<!DOCTYPE svg PUBLIC "-//W3C//DTD SVG 1.1//EN" "http://www.w3.org/Graphics/SVG/1.1/DTD/svg11.dtd">
<svg version="1.1" xmlns="http://www.w3.org/2000/svg" xmlns:xlink="http://www.w3.org/1999/xlink" preserveAspectRatio="xMidYMid meet" viewBox="0 0 640 640" width="640" height="640"><defs><path d="M274.57 426.77C274.57 499.96 213.06 559.38 137.29 559.38C61.52 559.38 0 499.96 0 426.77C0 353.58 61.52 294.16 137.29 294.16C213.06 294.16 274.57 353.58 274.57 426.77Z" id="a1XX8t6LyE"></path><path d="M607.13 553.73C607.13 601.34 567.85 640 519.48 640C471.11 640 431.84 601.34 431.84 553.73C431.84 506.12 471.11 467.46 519.48 467.46C567.85 467.46 607.13 506.12 607.13 553.73Z" id="abLPpuhqM"></path><path d="M640 175.83C640 271.12 561.98 348.47 465.87 348.47C369.77 348.47 291.75 271.12 291.75 175.83C291.75 80.55 369.77 3.19 465.87 3.19C561.98 3.19 640 80.55 640 175.83Z" id="adFPsGyGr"></path></defs><g><g><g><use xlink:href="#a1XX8t6LyE" opacity="1" fill="#ffffff" fill-opacity="1"></use></g><g><use xlink:href="#abLPpuhqM" opacity="1" fill="#ffffff" fill-opacity="1"></use></g><g><use xlink:href="#adFPsGyGr" opacity="1" fill="#ffffff" fill-opacity="1"></use></g></g></g></svg>