<?xml version="1.0" encoding="UTF-8"?>
<svg width="20px" height="16px" viewBox="0 0 20 16" version="1.1" xmlns="http://www.w3.org/2000/svg" xmlns:xlink="http://www.w3.org/1999/xlink">
    <g id="Symbols" stroke="none" stroke-width="1" fill="none" fill-rule="evenodd">
        <g id="ic-/-speed" transform="translate(-2.000000, -2.000000)" fill="#FFFFFF" fill-rule="nonzero">
            <g transform="translate(2.000000, 2.000000)" id="Shape">
                <path d="M9.83333294,0.0682897715 C4.4154706,0.0682897715 -8.1944448e-07,4.49145729 -8.1944448e-07,9.918726 C-8.1944448e-07,12.1192581 0.721892619,14.1591187 1.94617982,15.8016238 L3.59360466,14.3480008 C2.71123504,13.098829 2.18518446,11.5719845 2.18518446,9.918726 C2.18518446,5.67449435 5.5964406,2.25727499 9.83333294,2.25727499 C14.0702256,2.25727499 17.4814817,5.67449435 17.4814817,9.918726 C17.4814817,11.5719845 16.9554308,13.098829 16.0730615,14.3480008 L17.7204863,15.8016238 C18.9447743,14.1591187 19.6666681,12.1192581 19.6666681,9.918726 C19.6666681,4.49145729 15.2511956,0.0682897715 9.83333294,0.0682897715 Z M13.2476849,7.00293475 L9.45775422,11.6117693 C9.12930202,11.7060324 8.831166,11.9247121 8.64684562,12.2445228 C8.26969602,12.8988926 8.497235,13.7393261 9.15046254,14.1171449 C9.80368544,14.4949364 10.6426704,14.2670083 11.0198203,13.6126386 C11.2041401,13.2928278 11.2391241,12.9271852 11.1563943,12.5950888 L13.2476849,7.00293475 Z"></path>
            </g>
        </g>
    </g>
</svg>