<?xml version="1.0" encoding="UTF-8" standalone="no"?>
<!DOCTYPE svg PUBLIC "-//W3C//DTD SVG 1.1//EN" "http://www.w3.org/Graphics/SVG/1.1/DTD/svg11.dtd">
<svg version="1.1" xmlns="http://www.w3.org/2000/svg" xmlns:xlink="http://www.w3.org/1999/xlink" preserveAspectRatio="xMidYMid meet" viewBox="0 0 640 640" width="14" height="14"><defs><path d="M501.97 45.27L502.26 45.29L502.54 45.31L502.83 45.34L503.11 45.38L503.39 45.42L503.67 45.47L503.95 45.53L504.23 45.6L504.51 45.67L504.78 45.74L505.05 45.83L505.32 45.92L505.59 46.01L505.85 46.12L506.12 46.23L506.38 46.34L506.63 46.46L506.89 46.59L507.14 46.73L507.39 46.87L507.63 47.02L507.87 47.17L508.11 47.33L508.34 47.5L508.57 47.67L508.8 47.85L509.02 48.03L618.57 141.53L618.91 141.84L619.24 142.16L619.55 142.48L619.84 142.82L620.12 143.16L620.39 143.51L620.63 143.87L620.86 144.24L621.08 144.61L621.27 144.99L621.46 145.38L621.62 145.77L621.77 146.17L621.9 146.57L622.02 146.97L622.12 147.38L622.2 147.79L622.26 148.2L622.31 148.62L622.35 149.03L622.36 149.45L622.36 149.87L622.34 150.28L622.31 150.7L622.26 151.12L622.19 151.53L622.11 151.94L622 152.35L621.89 152.76L621.75 153.16L621.6 153.56L621.43 153.95L621.24 154.34L621.04 154.73L620.82 155.1L620.58 155.47L620.33 155.84L620.05 156.19L619.77 156.54L619.46 156.88L178.71 626.68L178.39 627.01L178.06 627.32L177.72 627.62L177.37 627.9L177.01 628.17L176.64 628.42L176.26 628.66L175.88 628.87L175.49 629.08L175.09 629.27L174.68 629.44L174.27 629.6L173.86 629.74L173.44 629.86L173.01 629.97L172.59 630.07L172.16 630.15L171.72 630.21L171.29 630.26L170.85 630.29L170.42 630.3L169.98 630.3L169.54 630.29L169.1 630.25L168.67 630.2L168.23 630.14L167.8 630.06L167.37 629.96L166.95 629.85L166.53 629.72L166.11 629.58L165.69 629.41L165.29 629.24L164.88 629.04L164.49 628.83L164.1 628.61L163.72 628.36L163.34 628.1L162.98 627.83L162.62 627.54L26.75 511.56L26.41 511.26L26.08 510.94L25.77 510.61L25.47 510.28L25.2 509.94L24.93 509.58L24.69 509.22L24.46 508.86L24.24 508.48L24.04 508.1L23.86 507.72L23.7 507.33L23.55 506.93L23.42 506.53L23.3 506.13L23.2 505.72L23.12 505.31L23.06 504.89L23.01 504.48L22.97 504.06L22.96 503.65L22.96 503.23L22.98 502.81L23.01 502.4L23.06 501.98L23.13 501.57L23.21 501.15L23.32 500.74L23.43 500.34L23.57 499.94L23.72 499.54L23.89 499.14L24.08 498.75L24.28 498.37L24.5 497.99L24.74 497.62L24.99 497.26L25.26 496.9L25.55 496.55L25.86 496.21L428.93 66.57L429.04 66.46L429.15 66.35L429.26 66.24L429.37 66.13L429.48 66.02L429.6 65.92L429.71 65.82L429.83 65.71L429.95 65.61L430.07 65.52L430.19 65.42L430.32 65.32L430.44 65.23L430.57 65.14L430.7 65.05L430.82 64.96L430.95 64.87L431.08 64.79L431.22 64.71L431.35 64.62L431.49 64.55L431.62 64.47L431.76 64.39L431.9 64.32L432.04 64.25L432.18 64.18L432.32 64.11L432.46 64.04L432.6 63.97L432.75 63.91L432.89 63.85L433.04 63.79L433.19 63.73L433.33 63.68L433.48 63.63L433.63 63.57L433.78 63.53L433.93 63.48L434.09 63.43L434.24 63.39L498.25 45.69L498.53 45.62L498.82 45.55L499.1 45.49L499.39 45.44L499.68 45.39L499.96 45.35L500.25 45.32L500.54 45.29L500.82 45.28L501.11 45.26L501.4 45.26L501.69 45.26L501.97 45.27ZM50.44 502.61L169.33 604.09L192.13 579.79L158.16 550.79L173.36 534.59L207.32 563.59L237.72 531.19L203.75 502.19L218.95 485.99L252.92 514.99L283.31 482.59L249.35 453.59L264.55 437.39L298.51 466.39L328.91 433.99L294.94 404.99L310.14 388.79L344.11 417.79L374.5 385.39L340.54 356.39L355.73 340.19L389.7 369.19L420.1 336.79L386.13 307.79L401.33 291.59L435.3 320.59L465.69 288.19L431.72 259.19L446.92 242.99L480.89 271.99L511.29 239.59L477.32 210.59L492.52 194.39L526.49 223.39L556.88 190.99L522.91 161.99L538.11 145.79L572.08 174.79L594.88 150.49L498.5 68.22L443.73 83.39L50.44 502.61Z" id="a1RN8O8lQI"></path><path d="M497.75 123.13C497.75 123.13 497.75 123.13 497.75 123.13C488.63 132.85 483.56 138.25 482.55 139.33C482.55 139.33 482.55 139.33 482.55 139.33C472.36 130.64 466.7 125.8 465.57 124.84C465.57 124.84 465.57 124.84 465.57 124.84C474.69 115.12 479.75 109.72 480.77 108.64C480.77 108.64 480.77 108.64 480.77 108.64C490.96 117.33 496.62 122.17 497.75 123.13Z" id="c5FdZH5mI"></path></defs><g><g><g><use xlink:href="#a1RN8O8lQI" opacity="1" fill="#ffffff" fill-opacity="1"></use><g><use xlink:href="#a1RN8O8lQI" opacity="1" fill-opacity="0" stroke="#fffcfc" stroke-width="20" stroke-opacity="1"></use></g></g><g><use xlink:href="#c5FdZH5mI" opacity="1" fill="#ffffff" fill-opacity="1"></use><g><use xlink:href="#c5FdZH5mI" opacity="1" fill-opacity="0" stroke="#fffcfc" stroke-width="20" stroke-opacity="1"></use></g></g></g></g></svg>