<?xml version="1.0" encoding="UTF-8"?>
<svg width="28px" height="40px" viewBox="0 0 38 50" version="1.1" xmlns="http://www.w3.org/2000/svg" xmlns:xlink="http://www.w3.org/1999/xlink">
    <defs>
        <filter x="-24.0%" y="-24.0%" width="148.0%" height="148.0%" filterUnits="objectBoundingBox" id="filter-1">
            <feOffset dx="0" dy="2" in="SourceAlpha" result="shadowOffsetOuter1"></feOffset>
            <feGaussianBlur stdDeviation="2" in="shadowOffsetOuter1" result="shadowBlurOuter1"></feGaussianBlur>
            <feColorMatrix values="0 0 0 0 0   0 0 0 0 0   0 0 0 0 0  0 0 0 0.5 0" type="matrix" in="shadowBlurOuter1" result="shadowMatrixOuter1"></feColorMatrix>
            <feMerge>
                <feMergeNode in="shadowMatrixOuter1"></feMergeNode>
                <feMergeNode in="SourceGraphic"></feMergeNode>
            </feMerge>
        </filter>
    </defs>
    <g id="warnings" stroke="none" stroke-width="1" fill="none" fill-rule="evenodd">
        <g id="ic-/-control-room" transform="translate(-11.000000, -7.000000)">
            <g id="control-room" filter="url(#filter-1)" transform="translate(5.000000, 5.000000)">
                <path d="M25,4.16666667 C16.9375,4.16666667 10.4166667,10.6875 10.4166667,18.75 C10.4166667,29.6875 25,45.8333333 25,45.8333333 C25,45.8333333 39.5833333,29.6875 39.5833333,18.75 C39.5833333,10.6875 33.0625,4.16666667 25,4.16666667 Z" id="Shape" fill="#2C3A3D" fill-rule="nonzero"></path>
                <circle id="Oval-7" stroke="#2C3A3D" fill="#FFFFFF" cx="25" cy="19.047619" r="12.4047619"></circle>
                <path d="M31.3847656,12.1729446 L18.6122024,12.1729446 C17.9325707,12.1729446 17.3809524,12.7276135 17.3809524,13.4072452 L17.3809524,20.8851842 L21.9577939,20.8851842 C22.0576079,19.8841053 22.6344122,19.0225726 23.4601934,18.5373605 C23.8410528,19.0071707 24.3802083,19.3348865 25.0000558,19.3348865 C25.6189732,19.3348865 26.1573102,19.0071894 26.537593,18.5374349 C27.3617001,19.0222935 27.9365513,19.8833426 28.0359003,20.8851841 L32.6190476,20.8851842 L32.6190476,13.4072452 C32.6190476,12.7276135 32.0643973,12.1729446 31.3847656,12.1729446 Z M25,18.7253255 C24.1436198,18.7253255 23.4822917,17.7683873 23.4822917,16.9455264 C23.4822917,16.1074312 24.1619048,15.4247675 25,15.4247675 C25.8350633,15.4247675 26.5146763,16.1074312 26.5146763,16.9455264 C26.5146763,17.7683873 25.8533482,18.7253255 25,18.7253255 Z" id="Shape" fill="#2C3A3D" fill-rule="nonzero"></path>
                <path d="M27.7611421,21.4956194 C27.7581101,21.4956194 27.7550595,21.4956194 27.7550595,21.4956194 L22.2419085,21.4956194 C22.2403274,21.4956194 22.2390067,21.4947266 22.2374256,21.494708 L17.3809524,21.494708 L17.3809524,22.3824684 C17.3809524,23.0621001 17.9325707,23.616769 18.6122024,23.616769 L23.3540551,23.616769 C23.3653088,23.9861514 23.3175781,24.3205822 23.2019159,24.6072452 C22.7935268,25.6373419 21.5074405,26.2895182 21.4952381,26.2956194 C21.3702939,26.3596261 21.3032553,26.5028553 21.3367746,26.6400019 C21.3672433,26.7771484 21.4922061,26.8746745 21.6323847,26.8746745 L28.3645834,26.8746745 C28.5047619,26.8746745 28.6236236,26.780199 28.6601935,26.646103 C28.6937314,26.5120071 28.6358259,26.3718099 28.5139137,26.3047712 C28.50173,26.2956194 27.2582962,25.5885696 26.868192,24.6072452 C26.7492002,24.3072824 26.6916481,23.9755673 26.6863282,23.616769 L31.3847657,23.616769 C32.0643973,23.616769 32.6190476,23.0621001 32.6190476,22.3824684 L32.6190476,21.494708 L27.765625,21.494708 C27.7640439,21.4947266 27.7627232,21.4956194 27.7611421,21.4956194 Z" id="Shape" fill="#2C3A3D" fill-rule="nonzero"></path>
                <polygon id="Shape" points="0 0 50 0 50 50 0 50"></polygon>
            </g>
        </g>
    </g>
</svg>