<?xml version="1.0" encoding="UTF-8"?>
<svg width="14px" height="13px" viewBox="0 0 14 13" version="1.1" xmlns="http://www.w3.org/2000/svg" xmlns:xlink="http://www.w3.org/1999/xlink">
    <g id="Symbols" stroke="none" stroke-width="1" fill="none" fill-rule="evenodd">
        <g id="ic-/-map-/-photo_camera" transform="translate(-5.000000, -5.000000)">
            <g id="ic-/-photo_camera" transform="translate(4.000000, 4.500000)">
                <g>
                    <circle id="Oval" fill="#FFFFFF" fill-rule="nonzero" cx="8" cy="8" r="2.13333333"></circle>
                    <path d="M6,1.33333333 L4.78,2.66666667 L2.66666667,2.66666667 C1.93333333,2.66666667 1.33333333,3.26666667 1.33333333,4 L1.33333333,12 C1.33333333,12.7333333 1.93333333,13.3333333 2.66666667,13.3333333 L13.3333333,13.3333333 C14.0666667,13.3333333 14.6666667,12.7333333 14.6666667,12 L14.6666667,4 C14.6666667,3.26666667 14.0666667,2.66666667 13.3333333,2.66666667 L11.22,2.66666667 L10,1.33333333 L6,1.33333333 Z M8,11.3333333 C6.16,11.3333333 4.66666667,9.84 4.66666667,8 C4.66666667,6.16 6.16,4.66666667 8,4.66666667 C9.84,4.66666667 11.3333333,6.16 11.3333333,8 C11.3333333,9.84 9.84,11.3333333 8,11.3333333 Z" id="Shape" fill="#FFFFFF" fill-rule="nonzero"></path>
                    <polygon id="Shape" points="0 0 16 0 16 16 0 16"></polygon>
                </g>
            </g>
        </g>
    </g>
</svg>