<?xml version="1.0" encoding="UTF-8" standalone="no"?>
<!DOCTYPE svg PUBLIC "-//W3C//DTD SVG 1.1//EN" "http://www.w3.org/Graphics/SVG/1.1/DTD/svg11.dtd">
<svg version="1.1" xmlns="http://www.w3.org/2000/svg" xmlns:xlink="http://www.w3.org/1999/xlink" preserveAspectRatio="xMidYMid meet" viewBox="0 0 640 640" width="640" height="640"><defs><path d="M145.29 567.38C69.52 567.38 8 507.96 8 434.77C8 361.58 69.52 302.16 145.29 302.16C221.06 302.16 282.57 361.58 282.57 434.77C282.57 507.96 221.06 567.38 145.29 567.38Z" id="b6s2XnEyq"></path><path d="M521.31 640C470 640 428.35 599.67 428.35 550.01C428.35 500.34 470 460.01 521.31 460.01C572.62 460.01 614.28 500.34 614.28 550.01C614.28 599.67 572.62 640 521.31 640Z" id="ak4SzwCLw"></path><path d="M465.87 362.47C369.77 362.47 291.75 285.12 291.75 189.83C291.75 94.55 369.77 17.19 465.87 17.19C561.98 17.19 640 94.55 640 189.83C640 285.12 561.98 362.47 465.87 362.47Z" id="e3oSMY56Av"></path><path d="M119.23 142.98C79.66 142.98 47.54 111.46 47.54 72.64C47.54 33.82 79.66 2.3 119.23 2.3C158.79 2.3 190.92 33.82 190.92 72.64C190.92 111.46 158.79 142.98 119.23 142.98Z" id="aYL2qUpfz"></path></defs><g><g><g><use xlink:href="#b6s2XnEyq" opacity="1" fill="#ffffff" fill-opacity="1"></use><g><use xlink:href="#b6s2XnEyq" opacity="1" fill-opacity="0" stroke="#000000" stroke-width="1" stroke-opacity="0"></use></g></g><g><use xlink:href="#ak4SzwCLw" opacity="1" fill="#ffffff" fill-opacity="1"></use><g><use xlink:href="#ak4SzwCLw" opacity="1" fill-opacity="0" stroke="#000000" stroke-width="1" stroke-opacity="0"></use></g></g><g><use xlink:href="#e3oSMY56Av" opacity="1" fill="#ffffff" fill-opacity="1"></use><g><use xlink:href="#e3oSMY56Av" opacity="1" fill-opacity="0" stroke="#000000" stroke-width="1" stroke-opacity="0"></use></g></g><g><use xlink:href="#aYL2qUpfz" opacity="1" fill="#ffffff" fill-opacity="1"></use><g><use xlink:href="#aYL2qUpfz" opacity="1" fill-opacity="0" stroke="#000000" stroke-width="1" stroke-opacity="0"></use></g></g></g></g></svg>