<?xml version="1.0" encoding="UTF-8"?>
<svg width="50px" height="20px" viewBox="0 0 50 17" version="1.1" xmlns="http://www.w3.org/2000/svg" xmlns:xlink="http://www.w3.org/1999/xlink">
    <!-- Generator: Sketch 52.4 (67378) - http://www.bohemiancoding.com/sketch -->
    <title>baseline-navigation-24px copy 4</title>
    <desc>Created with Sketch.</desc>
    <g id="Symbols" stroke="none" stroke-width="1" fill="none" fill-rule="evenodd">
        <g id="object-/-level2" transform="translate(-96.000000, -187.000000)">
            <g id="Group-6" transform="translate(12.000000, 91.000000)">
                <g id="baseline-navigation-24px-copy-4" transform="translate(102.003655, 104.290603) rotate(-88.000000) translate(-102.003655, -104.290603) translate(90.003655, 85.790603)">
                    <polygon id="Shape" points="0 13 24 13 24 37 0 37"></polygon>
                    <path d="M17.8322048,23.7371078 L19.290603,27.293655 L18.580603,28.003655 L11.790603,25.003655 L5.00060302,28.003655 L4.29060302,27.293655 L5.81077692,23.5864576 L11.651005,21.0060917 L17.8322048,23.7371078 Z" id="Combined-Shape" fill-opacity="0.7" fill="#3B5256" fill-rule="nonzero"></path>
                    <polygon id="Shape" fill-opacity="0.8" fill="#3B5256" fill-rule="nonzero" points="12.3363004 0.97667479 4.83630039 19.2666748 5.54630039 19.9766748 12.3363004 16.9766748 19.1263004 19.9766748 19.8363004 19.2666748"></polygon>
                    <path d="M18.0765012,30.7328436 L19.5348995,34.2893908 L18.8248995,34.9993908 L12.0348995,31.9993908 L5.2448995,34.9993908 L4.5348995,34.2893908 L6.0550734,30.5821934 L11.8953015,28.0018275 L18.0765012,30.7328436 Z" id="Combined-Shape" fill-opacity="0.6" fill="#3B5256" fill-rule="nonzero"></path>
                </g>
            </g>
        </g>
    </g>
</svg>