<?xml version="1.0" encoding="UTF-8"?>
<svg width="50px" height="20px" viewBox="0 0 50 17" version="1.1" xmlns="http://www.w3.org/2000/svg" xmlns:xlink="http://www.w3.org/1999/xlink">
    <!-- Generator: Sketch 52.4 (67378) - http://www.bohemiancoding.com/sketch -->
    <title>baseline-navigation-24px copy 4</title>
    <desc>Created with Sketch.</desc>
    <g id="Symbols" stroke="none" stroke-width="1" fill="none" fill-rule="evenodd">
        <g id="object-/-level3" transform="translate(-100.000000, -191.000000)">
            <g id="Group-6" transform="translate(-19.000000, 65.000000)">
                <g id="baseline-navigation-24px-copy-4" transform="translate(139.502741, 134.342952) rotate(-88.000000) translate(-139.502741, -134.342952) translate(127.502741, 113.342952)">
                    <polygon id="Shape" points="0 14 24 14 24 38 0 38"></polygon>
                    <path d="M17.7973053,23.737717 L19.2557035,27.2942642 L18.5457035,28.0042642 L11.7557035,25.0042642 L4.96570352,28.0042642 L4.25570352,27.2942642 L5.77587743,23.5870668 L11.6161055,21.0067009 L17.7973053,23.737717 Z" id="Combined-Shape" fill-opacity="0.7" fill="#3B5256" fill-rule="nonzero"></path>
                    <polygon id="Shape" fill-opacity="0.8" fill="#3B5256" fill-rule="nonzero" points="12.3014009 0.977283963 4.80140089 19.267284 5.51140089 19.977284 12.3014009 16.977284 19.0914009 19.977284 19.8014009 19.267284"></polygon>
                    <path d="M18.0416017,30.7334528 L19.5,34.29 L18.79,35 L12,32 L5.21,35 L4.5,34.29 L6.0201739,30.5828026 L11.860402,28.0024367 L18.0416017,30.7334528 Z" id="Combined-Shape" fill-opacity="0.6" fill="#3B5256" fill-rule="nonzero"></path>
                    <path d="M18.2858982,37.7291886 L19.7442965,41.2857358 L19.0342965,41.9957358 L12.2442965,38.9957358 L5.45429648,41.9957358 L4.74429648,41.2857358 L6.26447038,37.5785384 L12.1046985,34.9981725 L18.2858982,37.7291886 Z" id="Combined-Shape" fill-opacity="0.5" fill="#3B5256" fill-rule="nonzero"></path>
                </g>
            </g>
        </g>
    </g>
</svg>