<?xml version="1.0" encoding="UTF-8"?>
<svg width="50px" height="20px" viewBox="0 0 50 17" version="1.1" xmlns="http://www.w3.org/2000/svg" xmlns:xlink="http://www.w3.org/1999/xlink">
    <!-- Generator: Sketch 52.4 (67378) - http://www.bohemiancoding.com/sketch -->
    <title>baseline-navigation-24px copy 4</title>
    <desc>Created with Sketch.</desc>
    <g id="Symbols" stroke="none" stroke-width="1" fill="none" fill-rule="evenodd">
        <g id="object-/-level5" transform="translate(-72.000000, -171.000000)">
            <g id="Group-6" transform="translate(22.000000, 90.000000)">
                <g id="baseline-navigation-24px-copy-4" transform="translate(74.001218, 89.430201) rotate(-88.000000) translate(-74.001218, -89.430201) translate(62.001218, 64.930201)">
                    <polygon id="Shape" points="0 15 24 15 24 39 0 39"></polygon>
                    <path d="M17.7624058,23.7383262 L19.220804,27.2948734 L18.510804,28.0048734 L11.720804,25.0048734 L4.93080403,28.0048734 L4.22080403,27.2948734 L5.74097793,23.587676 L11.581206,21.0073101 L17.7624058,23.7383262 Z" id="Combined-Shape" fill-opacity="0.7" fill="#3B5256" fill-rule="nonzero"></path>
                    <polygon id="Shape" fill-opacity="0.8" fill="#3B5256" fill-rule="nonzero" points="12.2665014 0.977893136 4.7665014 19.2678931 5.4765014 19.9778931 12.2665014 16.9778931 19.0565014 19.9778931 19.7665014 19.2678931"></polygon>
                    <path d="M18.0067022,30.7340619 L19.4651005,34.2906092 L18.7551005,35.0006092 L11.9651005,32.0006092 L5.1751005,35.0006092 L4.4651005,34.2906092 L5.98527441,30.5834117 L11.8255025,28.0030459 L18.0067022,30.7340619 Z" id="Combined-Shape" fill-opacity="0.6" fill="#3B5256" fill-rule="nonzero"></path>
                    <path d="M18.2509987,37.7297977 L19.709397,41.286345 L18.999397,41.996345 L12.209397,38.996345 L5.41939698,41.996345 L4.70939698,41.286345 L6.22957088,37.5791475 L12.069799,34.9987817 L18.2509987,37.7297977 Z" id="Combined-Shape" fill-opacity="0.5" fill="#3B5256" fill-rule="nonzero"></path>
                    <path d="M18.4952952,44.7255335 L19.9536935,48.2820808 L19.2436935,48.9920808 L12.4536935,45.9920808 L5.66369346,48.9920808 L4.95369346,48.2820808 L6.47386736,44.5748833 L12.3140955,41.9945174 L18.4952952,44.7255335 Z" id="Combined-Shape" fill-opacity="0.4" fill="#3B5256" fill-rule="nonzero"></path>
                </g>
            </g>
        </g>
    </g>
</svg>